<?xml version="1.0" encoding="iso-8859-1"?>
<!-- Generator: Adobe Illustrator 30.3.0, SVG Export Plug-In . SVG Version: 9.03 Build 0)  -->
<svg version="1.1" xmlns="http://www.w3.org/2000/svg" xmlns:xlink="http://www.w3.org/1999/xlink" x="0px" y="0px"
	 viewBox="0 0 951.862 990.303" style="enable-background:new 0 0 951.862 990.303;" xml:space="preserve">
<g id="mic">
	<g id="mic_00000003079852283021440340000011596493981662668706_">
		<g>
			<g>
				<g id="XMLID_00000037667646608001725870000002463385016369866932_">
					<g>
						<path style="fill:#53595D;" d="M716.791,696.6c0.135,0.183,0.167,0.271,0.167,0.271c0,0.016-0.04,0.199-0.303,0.557
							l-6.823,9.466c-0.072-0.024-0.167-0.064-0.279-0.127l-12.308-6.465c-0.263-0.135-0.541-0.231-0.836-0.287l-2.85-0.549
							l11.233-14.808l1.115,2.134c0.175,0.342,0.414,0.645,0.701,0.892l9.386,8.097C716.417,696.146,716.656,696.417,716.791,696.6z
							"/>
						<path style="fill:#1B1D1D;" d="M705.574,681.537c0.366,0.764,0.302,1.704-0.247,2.42l-0.533,0.701l-2.221-4.243
							c0.74-0.31,1.624-0.231,2.309,0.287C705.183,680.932,705.414,681.218,705.574,681.537z"/>
						<path style="fill:#1B1D1D;" d="M702.572,680.414l2.221,4.243l-11.233,14.808l-4.825-0.924
							c0.056-0.334,0.199-0.661,0.414-0.947l12.475-16.448C701.879,680.812,702.214,680.565,702.572,680.414z"/>
						<path style="fill:#53595D;" d="M700.876,677.166l1.696,3.248c-0.358,0.151-0.693,0.398-0.947,0.732l-12.475,16.448
							c-0.215,0.287-0.358,0.613-0.414,0.947l-2.468-0.47l-25.309-15.158c3.312-2.874,5.063-6.783,4.944-11.066
							c-0.143-5.016-2.532-9.195-6.727-11.767c-2.444-1.497-4.856-3.328-7.189-5.103c-5.525-4.188-10.74-8.152-16.695-8.328
							c-4.068-0.127-7.802,1.306-10.541,4.028c-2.524,2.508-4.06,5.915-4.419,9.761c-0.135-0.111-0.287-0.223-0.454-0.303
							l-21.567-12.03l26.83-34.831L700.876,677.166z"/>
						<path style="fill:#1B1D1D;" d="M669.763,795.925c12.977,1.704,26.607,7.221,25.954,17.626
							c-0.804,12.714-18.152,16.01-23.852,17.093c-9.578,1.823-18.407,2.715-26.965,2.715c-0.151,0-0.302,0-0.454,0
							c-13.104-0.048-25.93-0.366-38.796-3.662c-12.937-3.312-19.274-9.068-18.844-17.101c0.86-15.676,32.22-18.216,45.666-18.582
							c0.048,0,0.096,0,0.135,0c0.326,0,0.653,0.032,0.963,0.096v4.705c0,0.064,0,0.127-0.008,0.199
							c-0.326-0.072-0.645-0.127-0.955-0.119c-11.807,0.318-40.316,2.906-40.921,13.964c-0.366,6.719,7.587,10.167,15.174,12.109
							c12.444,3.193,24.815,3.463,37.601,3.511c8.988,0.032,17.666-0.947,26.495-2.627c8.734-1.664,19.394-4.841,19.887-12.603
							c0.47-7.492-13.128-11.361-21.719-12.483l-9.8-1.282c-3.455-0.454-6.815-0.931-9.991-0.231
							c-0.263,0.056-0.549,0.096-0.836,0.111l0.008-0.302l0.056-4.634c3.821-0.78,7.523-0.302,11.098,0.175L669.763,795.925z"/>
						<path style="fill:#1B1D1D;" d="M706.354,681.131l2.229,4.267l9.386,8.097c1.903,1.64,2.802,3.399,1.138,5.7l-6.879,9.546
							c-1.083,1.497-2.627,1.465-4.084,0.701l-12.3-6.457l-5.334-1.027l0.127-0.661c0.119,0.024,0.239,0.032,0.366,0.032
							c0.701,0,1.393-0.318,1.847-0.924l0.709-0.939l2.85,0.549c0.295,0.056,0.573,0.151,0.836,0.287l12.308,6.465
							c0.111,0.064,0.207,0.104,0.279,0.127l6.823-9.466c0.263-0.358,0.303-0.541,0.303-0.557c0,0-0.032-0.088-0.167-0.271
							c-0.135-0.183-0.374-0.454-0.796-0.82l-9.386-8.097c-0.287-0.247-0.525-0.549-0.701-0.892l-1.115-2.134l0.533-0.701
							c0.549-0.717,0.613-1.656,0.247-2.42L706.354,681.131z"/>
						<path style="fill:#1B1D1D;" d="M669.127,800.766c8.59,1.122,22.188,4.992,21.719,12.483
							c-0.494,7.762-11.154,10.939-19.887,12.603c-8.829,1.68-17.507,2.659-26.495,2.627c-12.786-0.048-25.158-0.318-37.601-3.511
							c-7.587-1.943-15.541-5.39-15.174-12.109c0.605-11.058,29.115-13.646,40.921-13.964c0.31-0.008,0.629,0.048,0.955,0.119
							c0,0.454-0.024,0.955-0.048,1.473c-0.048,1.003-0.104,2.094-0.056,3.208c-0.231,0.048-0.47,0.072-0.716,0.08
							c-3.129,0.088-14.084,0.541-23.669,2.826c-9.721,2.317-12.444,5.191-12.515,6.528c-0.199,3.702,7.985,6.202,11.512,7.109
							c11.799,3.025,23.47,3.312,36.415,3.352c0.135,0.008,0.271,0.008,0.406,0.008c7.945,0,16.177-0.836,25.15-2.54
							c13.574-2.587,15.803-6.194,15.931-8.121c0.127-2.038-6.616-5.907-17.475-7.332l-10.103-1.322
							c-2.962-0.39-5.764-0.756-8.009-0.263c-0.709,0.159-1.409,0.151-2.07,0l0.183-4.657c0.287-0.016,0.573-0.056,0.836-0.111
							c3.177-0.701,6.536-0.223,9.991,0.231L669.127,800.766z"/>
						<path style="fill:#1B1D1D;" d="M688.735,698.542l4.825,0.924l-0.709,0.939c-0.454,0.605-1.146,0.924-1.847,0.924
							c-0.127,0-0.247-0.008-0.366-0.032c-0.366-0.056-0.724-0.207-1.043-0.446C688.863,700.294,688.552,699.386,688.735,698.542z"
							/>
						<path style="fill:#53595D;" d="M668.498,805.606c10.859,1.425,17.603,5.294,17.475,7.332
							c-0.127,1.927-2.357,5.533-15.931,8.121c-8.972,1.704-17.204,2.54-25.15,2.54c-0.135,0-0.271,0-0.406-0.008
							c-12.945-0.04-24.617-0.326-36.415-3.352c-3.527-0.908-11.711-3.407-11.512-7.109c0.072-1.338,2.794-4.212,12.515-6.528
							c9.585-2.285,20.54-2.739,23.669-2.826c0.247-0.008,0.486-0.032,0.716-0.08c0.08,1.887,0.446,3.837,1.616,5.485
							c0.048,0.072,0.104,0.127,0.151,0.191c1.322,1.497,3.216,1.951,5.151,1.951c1.783,0,3.607-0.382,5.071-0.685
							c0.295-0.064,0.573-0.119,0.82-0.175c1.059-0.207,1.839-1.107,1.879-2.189l0.167-4.251c0.661,0.151,1.361,0.159,2.07,0
							c2.245-0.494,5.047-0.127,8.009,0.263L668.498,805.606z"/>
						<path style="fill:#53595D;" d="M661.253,671.975c0.08,2.97-1.202,5.692-3.614,7.659c-0.159,0.127-0.303,0.279-0.422,0.446
							c-0.223,0.31-0.374,0.629-0.502,0.908c-0.016,0.032-0.032,0.072-0.048,0.104c-0.064,0.056-0.119,0.119-0.167,0.183
							c-1.154-0.159-2.269-0.151-3.272-0.151c-0.788,0-1.537,0.008-2.158-0.072c-1.314-1.011-3.2-1.927-5.613-3.089
							c-2.07-0.995-4.427-2.134-6.385-3.376c-5.247-3.328-10.167-7.094-14.561-10.668c0.255-0.382,0.406-0.844,0.39-1.338
							c-0.08-3.479,1.035-6.528,3.121-8.606c1.855-1.839,4.331-2.779,7.133-2.683c4.466,0.135,9.108,3.662,14.02,7.396
							c2.42,1.839,4.928,3.742,7.571,5.358C660.353,666.259,661.181,669.579,661.253,671.975z"/>
						<path style="fill:#1B1D1D;" d="M690.511,701.958l-5.334-1.019l-26.36-15.779c-0.048-0.024-0.088-0.056-0.135-0.072
							c0.143-0.032,0.279-0.072,0.422-0.127c1.091-0.43,1.552-1.425,1.831-2.014c0-0.008,0-0.016,0.008-0.016
							c0.008-0.008,0.008-0.008,0.016-0.016l25.309,15.158l2.468,0.47c-0.183,0.844,0.127,1.752,0.86,2.309
							c0.318,0.239,0.677,0.39,1.043,0.446L690.511,701.958z"/>
						<path style="fill:#1B1D1D;" d="M660.369,682.564l0.589,0.35c-0.008,0.008-0.008,0.008-0.016,0.016
							c-0.008,0-0.008,0.008-0.008,0.016c-0.279,0.589-0.74,1.584-1.831,2.014c-0.143,0.056-0.279,0.096-0.422,0.127
							c-0.693-0.398-1.425-0.629-2.173-0.756c-0.183-0.191-0.318-0.422-0.422-0.677c-0.334-0.836-0.143-1.752,0.414-2.38
							C657.774,681.441,659.095,681.799,660.369,682.564z"/>
						<path style="fill:#1B1D1D;" d="M658.681,685.088c-0.143,0.024-0.295,0.04-0.438,0.04c-0.669,0-1.306-0.287-1.736-0.796
							C657.256,684.459,657.989,684.689,658.681,685.088z"/>
						<path style="fill:#1B1D1D;" d="M660.369,682.564c-1.274-0.764-2.595-1.123-3.869-1.29c0.048-0.064,0.104-0.127,0.167-0.183
							c0.016-0.032,0.032-0.072,0.048-0.104c0.127-0.279,0.279-0.597,0.502-0.908c0.119-0.167,0.263-0.318,0.422-0.446
							c2.412-1.966,3.694-4.689,3.614-7.659c-0.072-2.396-0.9-5.716-4.506-7.93c-2.643-1.616-5.151-3.519-7.571-5.358
							c-4.912-3.734-9.554-7.261-14.02-7.396c-2.802-0.096-5.278,0.844-7.133,2.683c-2.086,2.078-3.201,5.127-3.121,8.606
							c0.016,0.494-0.135,0.955-0.39,1.338c-1.441-1.178-2.834-2.341-4.156-3.455c-0.008-0.008-0.016-0.016-0.024-0.024
							c0.358-3.845,1.895-7.253,4.419-9.761c2.739-2.723,6.473-4.156,10.541-4.028c5.955,0.175,11.17,4.14,16.695,8.328
							c2.333,1.775,4.745,3.607,7.189,5.103c4.196,2.572,6.584,6.751,6.727,11.767c0.119,4.283-1.632,8.192-4.944,11.066
							L660.369,682.564z"/>
						<path style="fill:#1B1D1D;" d="M653.228,681.123c1.003,0,2.118-0.008,3.272,0.151c-0.557,0.629-0.748,1.544-0.414,2.38
							c0.103,0.255,0.239,0.486,0.422,0.677c-1.123-0.199-2.285-0.191-3.407-0.183l-0.016-0.096c-0.215-1.218-0.9-2.142-2.014-3.001
							C651.691,681.131,652.44,681.123,653.228,681.123z"/>
						<path style="fill:#1B1D1D;" d="M653.1,684.148l0.525,3.017c-0.127,0-0.255,0-0.374,0c-0.884,0-1.783,0.008-2.707-0.096
							l-0.438-2.492l0.199-0.581C651.182,684.148,652.129,684.148,653.1,684.148z"/>
						<path style="fill:#1B1D1D;" d="M647.32,683.487c0.287-1.648,1.847-2.747,3.487-2.468c0.088,0.016,0.175,0.024,0.263,0.032
							c1.115,0.86,1.799,1.783,2.014,3.001l0.016,0.096c-0.971,0-1.919,0-2.794-0.151l-0.199,0.581l0.438,2.492
							c-0.247-0.024-0.494-0.056-0.748-0.096c-0.836-0.135-1.529-0.605-1.974-1.242C647.384,685.103,647.185,684.307,647.32,683.487
							z"/>
						<path style="fill:#1B1D1D;" d="M649.47,718.629c0.008-0.342-0.064-0.677-0.207-0.971c0.207-0.096,0.422-0.207,0.621-0.334
							c0.215,0.47,0.31,0.995,0.263,1.552c-0.056,0.637-0.31,1.21-0.701,1.664L649.47,718.629z"/>
						<path style="fill:#1B1D1D;" d="M648.403,692.396l-1.146-6.568l0.565-0.096c0.446,0.637,1.138,1.107,1.974,1.242
							c0.255,0.04,0.502,0.072,0.748,0.096l0.884,5.079l-0.223,23.271c-0.008,0.86-0.605,1.465-1.322,1.903
							c-0.446-0.947-1.361-1.632-2.468-1.736l-0.804-0.072c0.151-0.072,0.326-0.143,0.517-0.223c0.263-0.104,0.74-0.295,1.059-0.47
							L648.403,692.396z"/>
						<path style="fill:#1B1D1D;" d="M654.223,715.444c-0.032,3.471-3.32,4.841-4.777,5.438v-0.342
							c0.39-0.454,0.645-1.027,0.701-1.664c0.048-0.557-0.048-1.083-0.263-1.552c0.716-0.438,1.314-1.043,1.322-1.903l0.223-23.271
							l-0.884-5.079c0.924,0.104,1.823,0.096,2.707,0.096c0.119,0,0.247,0,0.374,0l0.78,4.458c0.032,0.183,0.048,0.366,0.04,0.549
							L654.223,715.444z"/>
						<path style="fill:#1B1D1D;" d="M647.105,721.614l0.04-3.009l0.589-0.287c0.374-0.175,0.955-0.374,1.529-0.661
							c0.143,0.295,0.215,0.629,0.207,0.971l-0.024,1.911c-0.31,0.374-0.709,0.669-1.162,0.852c-0.111,0.04-0.223,0.08-0.334,0.111
							c-0.08,0.024-0.159,0.04-0.239,0.056c-0.183,0.04-0.374,0.056-0.565,0.056C647.129,721.614,647.121,721.614,647.105,721.614z"
							/>
						<path style="fill:#1B1D1D;" d="M648.284,721.391c0.454-0.183,0.852-0.478,1.162-0.852v0.342c-0.016,0-0.032,0.008-0.048,0.016
							c-0.151,0.064-0.287,0.119-0.398,0.167l-0.597,0.279C648.363,721.359,648.324,721.375,648.284,721.391z"/>
						<path style="fill:#1B1D1D;" d="M646.182,799.03l0.04-3.535c0.573-0.486,1.274-0.836,2.062-1.011
							c0.096-0.024,0.183-0.04,0.279-0.056l-0.056,4.634l-0.008,0.302C647.703,799.42,646.859,799.317,646.182,799.03z"/>
						<path style="fill:#1B1D1D;" d="M647.711,721.558c0.08-0.016,0.159-0.032,0.239-0.056
							C647.87,721.527,647.79,721.542,647.711,721.558z"/>
						<path style="fill:#1B1D1D;" d="M647.145,718.605l-0.04,3.009c-0.892-0.008-1.752-0.414-2.309-1.123l0.024-1.919
							c0.016-1.274,1.059-2.293,2.325-2.293c0.016,0,0.024,0,0.032,0c0.939,0.008,1.736,0.573,2.086,1.377
							c-0.573,0.287-1.154,0.486-1.529,0.661L647.145,718.605z"/>
						<path style="fill:#1B1D1D;" d="M647.145,721.614c0.191,0,0.382-0.016,0.565-0.056c0.08-0.016,0.159-0.032,0.239-0.056
							c0.111-0.032,0.223-0.072,0.334-0.111c0.04-0.016,0.08-0.032,0.119-0.048l0.597-0.279c0.111-0.048,0.247-0.104,0.398-0.167
							c0.016-0.008,0.032-0.016,0.048-0.016l-0.884,73.547c-0.096,0.016-0.183,0.032-0.279,0.056
							c-0.788,0.175-1.489,0.525-2.062,1.011l0.884-73.881C647.121,721.614,647.129,721.614,647.145,721.614z"/>
						<path style="fill:#1B1D1D;" d="M647.105,721.614c-0.08,0-0.167,0-0.247-0.008l-2.07-0.191l0.008-0.924
							C645.354,721.2,646.214,721.606,647.105,721.614z"/>
						<path style="fill:#1B1D1D;" d="M646.182,799.03c0.677,0.287,1.521,0.39,2.317,0.334l-0.183,4.657
							c-1.815-0.382-3.328-1.791-3.75-3.718c-0.096-0.454-0.135-0.9-0.104-1.338c0.08-1.361,0.732-2.619,1.759-3.471L646.182,799.03
							z"/>
						<path style="fill:#1B1D1D;" d="M647.416,715.587c1.107,0.104,2.022,0.788,2.468,1.736c-0.199,0.127-0.414,0.239-0.621,0.334
							c-0.35-0.804-1.146-1.369-2.086-1.377c-0.008,0-0.016,0-0.032,0c-1.266,0-2.309,1.019-2.325,2.293l-0.024,1.919
							c-0.167-0.191-0.303-0.406-0.406-0.637c-0.693-1.521-0.032-3.312,1.489-4.005l0.597-0.279c0.04-0.016,0.088-0.04,0.135-0.056
							L647.416,715.587z"/>
						<path style="fill:#53595D;" d="M644.789,721.415l-0.931,77.528l-0.279,7.332c-1.616,0.31-4.084,0.685-4.793,0.088
							c-0.836-1.322-0.724-3.622-0.629-5.653c0.04-0.677,0.064-1.314,0.064-1.895l-0.032-78.021L644.789,721.415z"/>
						<path style="fill:#1B1D1D;" d="M644.566,800.304c0.422,1.927,1.935,3.336,3.75,3.718l-0.167,4.251
							c-0.04,1.083-0.82,1.982-1.879,2.189c-0.247,0.056-0.525,0.111-0.82,0.175c-1.465,0.303-3.288,0.685-5.071,0.685
							c-1.935,0-3.829-0.454-5.151-1.951c-0.048-0.064-0.103-0.119-0.151-0.191c-1.17-1.648-1.537-3.599-1.616-5.485
							c2.333-0.406,4.068-2.46,4.028-4.88h0.732c0,0.581-0.024,1.218-0.064,1.895c-0.096,2.03-0.207,4.331,0.629,5.653
							c0.709,0.597,3.177,0.223,4.793-0.088l0.279-7.332l0.605,0.024C644.43,799.404,644.47,799.85,644.566,800.304z"/>
						<path style="fill:#1B1D1D;" d="M643.857,798.943l0.931-77.528l2.07,0.191c0.08,0.008,0.167,0.008,0.247,0.008l-0.884,73.881
							c-1.027,0.852-1.68,2.11-1.759,3.471L643.857,798.943z"/>
						<path style="fill:#343535;" d="M641.732,690.366c1.958,0.852,2.771,3.001,2.333,5.326c-0.302,1.592-1.863,2.627-3.073,2.93
							c-1.791,0.446-3.742-0.422-4.347-1.943c-0.613-1.568-0.724-2.826,0.008-4.307
							C637.098,690.167,639.821,689.538,641.732,690.366z"/>
						<path style="fill:#1B1D1D;" d="M637.576,678.32c0.876,0.748,1.21,1.895,0.963,2.938c-0.908-0.486-1.815-1.003-2.675-1.544
							c0.247-0.533,0.549-1.107,0.892-1.584c0.056-0.072,0.207-0.096,0.374-0.127C637.289,678.089,637.432,678.201,637.576,678.32z"
							/>
						<path style="fill:#1B1D1D;" d="M636.31,714.552l10.302,0.963c-0.048,0.016-0.096,0.04-0.135,0.056l-0.597,0.279
							c-1.521,0.693-2.181,2.484-1.489,4.005c0.104,0.231,0.239,0.446,0.406,0.637l-0.008,0.924l-6.6-0.621v-1.425
							c0-0.645-0.263-1.218-0.685-1.64c-0.414-0.422-1.003-0.685-1.64-0.685c-0.414,0-0.796,0.112-1.138,0.295
							c-1.409-0.326-2.763-0.963-4.522-1.823l0.892-26.113l4.18-8.415c0.159-0.326,0.358-0.78,0.589-1.274
							c0.86,0.541,1.767,1.059,2.675,1.544c-0.096,0.47-0.31,0.924-0.653,1.322l-0.08,0.096l-3.718,7.492l-0.796,23.462
							C634.503,714.17,635.37,714.457,636.31,714.552z"/>
						<path style="fill:#1B1D1D;" d="M637.488,798.767c-0.04-1.377-0.645-2.611-1.592-3.471l-0.032-74.717l2.325,0.215l0.032,78.021
							h-0.732C637.488,798.799,637.488,798.783,637.488,798.767z"/>
						<path style="fill:#1B1D1D;" d="M638.189,719.369v1.425l-2.325-0.215v-1.21l0.151-1.815c-0.446-0.04-0.868-0.111-1.29-0.215
							c0.342-0.183,0.724-0.295,1.138-0.295c0.637,0,1.226,0.263,1.64,0.685C637.926,718.151,638.189,718.724,638.189,719.369z"/>
						<path style="fill:#1B1D1D;" d="M635.896,798.815v-3.519c0.947,0.86,1.552,2.094,1.592,3.471c0,0.016,0,0.032,0,0.048
							c0.04,2.42-1.696,4.474-4.028,4.88c-0.048-1.115,0.008-2.205,0.056-3.208c0.024-0.517,0.048-1.019,0.048-1.473
							C634.343,799.166,635.14,799.373,635.896,798.815z"/>
						<path style="fill:#1B1D1D;" d="M633.675,678.289c0.979-0.82,2.365-0.931,3.455-0.287c-0.167,0.032-0.318,0.056-0.374,0.127
							c-0.342,0.478-0.645,1.051-0.892,1.584c-0.008-0.008-0.024-0.016-0.032-0.024
							C635.108,679.228,634.391,678.766,633.675,678.289z"/>
						<path style="fill:#53595D;" d="M636.652,692.372c-0.732,1.481-0.621,2.739-0.008,4.307c0.605,1.521,2.556,2.388,4.347,1.943
							c1.21-0.303,2.771-1.338,3.073-2.93c0.438-2.325-0.374-4.474-2.333-5.326C639.821,689.538,637.098,690.167,636.652,692.372z
							 M633.293,713.629l0.796-23.462l3.718-7.492l0.08-0.096c0.342-0.398,0.557-0.852,0.653-1.322
							c1.457,0.78,2.938,1.497,4.299,2.15c1.544,0.748,3.583,1.728,4.403,2.317l0.016,0.104l1.146,6.568l-0.215,22.427
							c-0.318,0.175-0.796,0.366-1.059,0.47c-0.191,0.08-0.366,0.151-0.517,0.223l-10.302-0.963
							C635.37,714.457,634.503,714.17,633.293,713.629z"/>
						<path style="fill:#1B1D1D;" d="M635.864,720.579l0.032,74.717c-0.637-0.589-1.441-1.011-2.325-1.186l-0.032-73.961
							c0.701,0.199,1.425,0.334,2.197,0.414L635.864,720.579z"/>
						<path style="fill:#1B1D1D;" d="M633.571,798.815v-4.705c0.884,0.175,1.688,0.597,2.325,1.186v3.519
							c-0.756,0.557-1.552,0.35-2.333,0.199C633.571,798.943,633.571,798.879,633.571,798.815z"/>
						<path style="fill:#1B1D1D;" d="M635.832,679.69c0.008,0.008,0.024,0.016,0.032,0.024c-0.231,0.494-0.43,0.947-0.589,1.274
							l-4.18,8.415l-0.892,26.113c1.759,0.86,3.113,1.497,4.522,1.823c-0.709,0.398-1.186,1.162-1.186,2.03v0.78
							c-1.489-0.406-2.906-1.067-4.657-1.911c-1.075-0.525-1.744-1.624-1.704-2.826l0.892-26.113
							c0.016-0.43,0.127-0.852,0.318-1.234l4.18-8.423c0.111-0.223,0.255-0.438,0.414-0.629l0.334-0.382
							c0.111-0.127,0.231-0.247,0.358-0.342C634.391,678.766,635.108,679.228,635.832,679.69z"/>
						<path style="fill:#1B1D1D;" d="M633.539,719.369c0-0.868,0.478-1.632,1.186-2.03c0.422,0.103,0.844,0.175,1.29,0.215
							l-0.151,1.815v1.21l-0.127-0.016c-0.772-0.08-1.497-0.215-2.197-0.414V719.369z"/>
						<path style="fill:#1B1D1D;" d="M703.281,675.239l3.073,5.891l-0.78,0.406c-0.159-0.318-0.39-0.605-0.693-0.836
							c-0.685-0.517-1.568-0.597-2.309-0.287l-1.696-3.248l-75.736-63.89l0.685-0.892c0.502-0.645,0.605-1.465,0.358-2.181
							L703.281,675.239z"/>
						<path style="fill:#1B1D1D;" d="M623.986,610.967l0.939-1.855c0.016,0.032,0.032,0.056,0.056,0.088
							c0.08,0.088,0.215,0.167,0.318,0.255l0.884,0.74c0,0.008,0,0.008,0,0.008c0.247,0.716,0.143,1.536-0.358,2.181l-0.685,0.892
							l-1.775-1.497L623.986,610.967z"/>
						<polygon style="fill:#1B1D1D;" points="623.365,611.779 625.14,613.276 598.31,648.107 596.256,646.961 						"/>
						<path style="fill:#1B1D1D;" d="M620.355,660.463c1.322,1.115,2.715,2.277,4.156,3.455c-0.406,0.613-1.091,1.019-1.879,1.035
							c-0.016,0-0.04,0-0.056,0c-0.549,0-1.059-0.191-1.457-0.518c-0.517-0.414-0.852-1.043-0.868-1.751
							c-0.016-0.764,0.008-1.513,0.08-2.245C620.339,660.447,620.347,660.455,620.355,660.463z"/>
						<path style="fill:#1B1D1D;" d="M624.925,609.112l-0.939,1.855l-0.621,0.812l-0.016-0.016c-0.127-0.088-0.326-0.247-0.541-0.47
							c-0.398-0.303-0.812-0.637-1.242-0.995l0.581-0.756c0.78-1.011,2.237-1.202,3.256-0.422c0.374,0.287,0.637,0.661,0.78,1.075
							l-0.884-0.74c-0.104-0.088-0.239-0.167-0.318-0.255C624.957,609.168,624.941,609.144,624.925,609.112z"/>
						<path style="fill:#1B1D1D;" d="M623.349,611.764l0.016,0.016l-27.108,35.181l-0.541-0.303
							c-0.494-0.279-0.987-0.565-1.489-0.868l27.339-35.492c0.43,0.358,0.844,0.693,1.242,0.995
							C623.022,611.517,623.221,611.676,623.349,611.764z"/>
						<path style="fill:#1B1D1D;" d="M650.807,681.019c-1.64-0.279-3.201,0.82-3.487,2.468c-0.135,0.82,0.064,1.616,0.502,2.245
							l-0.565,0.096l-0.016-0.104c-0.82-0.589-2.858-1.568-4.403-2.317c-1.361-0.653-2.842-1.369-4.299-2.15
							c0.247-1.043-0.088-2.189-0.963-2.938c-0.143-0.119-0.287-0.231-0.446-0.318c0.334-0.064,0.709-0.159,0.318-0.86
							c-5.804-3.686-11.194-7.85-16.623-12.348l0.295-0.358c0.398,0.326,0.908,0.518,1.457,0.518c0.016,0,0.04,0,0.056,0
							c0.788-0.016,1.473-0.422,1.879-1.035c4.395,3.575,9.315,7.34,14.561,10.668c1.958,1.242,4.315,2.38,6.385,3.376
							c2.412,1.162,4.299,2.078,5.613,3.089C650.983,681.043,650.895,681.035,650.807,681.019z"/>
						<path style="fill:#53595D;" d="M621.565,610.299l-27.339,35.492c-0.247-0.143-0.494-0.295-0.74-0.446
							c-1.958-1.178-4.092-2.452-6.417-3.296l29.688-37.339C618.07,607.05,619.878,608.882,621.565,610.299z"/>
						<path style="fill:#1B1D1D;" d="M620.252,662.684c0.016,0.709,0.35,1.337,0.868,1.751l-0.295,0.358
							c-0.804-0.669-1.608-1.345-2.412-2.022l-22.491-12.539c0.541-0.096,1.059-0.39,1.417-0.868l0.971-1.258l21.567,12.03
							c0.167,0.08,0.318,0.191,0.454,0.303C620.26,661.172,620.236,661.92,620.252,662.684z"/>
						<path style="fill:#1B1D1D;" d="M616.653,593.293c0.924-0.088,1.704-2.365,2.126-3.272c0-0.016,0-0.032,0-0.048l1.059,3.376
							c0.032,0.096,0.056,0.199,0.072,0.295l1.146,5.565c0.541,2.595,2.341,4.976,5.684,7.484c0.159,0.119,0.303,0.247,0.43,0.39
							c0.024,0.024,0.048,0.04,0.072,0.064l77.981,65.785c0.303,0.255,0.549,0.565,0.732,0.908l5.039,9.649l8.949,7.715
							c4.641,4.005,3.009,7.834,1.616,9.761l-6.879,9.546c-1.17,1.616-2.85,2.46-4.689,2.46c-1.051,0-2.158-0.279-3.248-0.852
							l-11.91-6.25l-10.23-1.958c-0.342-0.064-0.677-0.191-0.979-0.374l-26.36-15.787c-0.908-0.541-2.229-0.589-3.638-0.581
							l-0.525-3.017c1.123-0.008,2.285-0.016,3.407,0.183c0.43,0.51,1.067,0.796,1.736,0.796c0.143,0,0.295-0.016,0.438-0.04
							c0.048,0.016,0.088,0.048,0.135,0.072l26.36,15.779l5.334,1.019l5.334,1.027l12.3,6.457c1.457,0.764,3.001,0.796,4.084-0.701
							l6.879-9.546c1.664-2.301,0.764-4.06-1.138-5.7l-9.386-8.097l-2.229-4.267l-3.073-5.891l-77.098-65.036c0,0,0,0,0-0.008
							c-0.143-0.414-0.406-0.788-0.78-1.075c-1.019-0.78-2.476-0.589-3.256,0.422l-0.581,0.756
							c-1.688-1.417-3.495-3.248-4.809-5.589l1.632-2.046c0.796-1.003,0.629-2.468-0.374-3.264l-1.059-5.143L616.653,593.293z"/>
						<path style="fill:#343535;" d="M618.779,589.973l-1.513-4.809C618.11,586.797,618.771,588.453,618.779,589.973z"/>
						<path style="fill:#1B1D1D;" d="M616.279,601.581c0.239-0.247,0.199-1.385,0.629-1.489l1.194-0.279l-0.088-0.414
							c1.003,0.796,1.17,2.261,0.374,3.264l-1.632,2.046c-0.422-0.74-0.788-1.521-1.083-2.365L616.279,601.581z"/>
						<path style="fill:#1B1D1D;" d="M616.271,581.98l0.995,3.185c-0.366-0.724-0.772-1.441-1.162-2.142
							C616.223,582.689,616.279,582.331,616.271,581.98z"/>
						<path style="fill:#1B1D1D;" d="M613.079,591.996c1.019,0.947,2.293,1.417,3.575,1.298l0.303,0.963l1.059,5.143
							c-0.924-0.74-2.229-0.661-3.057,0.143l-0.932-4.53L613.079,591.996z"/>
						<path style="fill:#1B1D1D;" d="M616.757,604.71l-29.688,37.339c-0.78-0.295-1.592-0.533-2.42-0.693l31.025-39.011
							C615.969,603.189,616.335,603.969,616.757,604.71z"/>
						<path style="fill:#1B1D1D;" d="M614.958,599.543c0.828-0.804,2.134-0.884,3.057-0.143l0.088,0.414l-1.194,0.279
							c-0.43,0.103-0.39,1.242-0.629,1.489l-0.605,0.764c-0.215-0.613-0.398-1.25-0.533-1.919L614.958,599.543z"/>
						<path style="fill:#1B1D1D;" d="M614.958,599.543l0.183,0.884c0.135,0.669,0.318,1.306,0.533,1.919l-31.025,39.011
							c-0.422-0.088-0.844-0.151-1.282-0.199c-0.143-0.016-0.287-0.016-0.43-0.016l-1.083,0.04c0.056-0.096,0.111-0.183,0.183-0.271
							l32.713-41.136C614.814,599.694,614.886,599.615,614.958,599.543z"/>
						<path style="fill:#1B1D1D;" d="M612.888,583.246l-2.476,0.239c-0.127-0.39-0.159-0.78-0.135-1.162l2.476-0.231l0.159-0.39
							l-0.685-0.661c-0.008-0.024-0.016-0.056-0.016-0.072l0.908-0.088c0.629-0.072,1.21,0.382,1.282,1.019s-0.382,1.218-1.019,1.29
							L612.888,583.246z"/>
						<path style="fill:#1B1D1D;" d="M613.381,583.19c0.637-0.072,1.091-0.653,1.019-1.29s-0.653-1.091-1.282-1.019l-0.908,0.088
							c-0.024-0.422,0.987-0.796,1.481-0.74c0.263,0.024,0.048,0.82,1.123,0.438c0.374,0.748,0.828,1.537,1.29,2.357
							c-0.135,0.406-0.366,0.788-0.685,1.115c-0.597,0.613-1.385,0.916-2.173,0.916c-0.756,0-1.513-0.279-2.102-0.852l-0.732-0.709
							v-0.008l2.476-0.239L613.381,583.19z"/>
						<path style="fill:#1B1D1D;" d="M612.211,580.969c0,0.016,0.008,0.048,0.016,0.072l-0.072-0.064L612.211,580.969z"/>
						<path style="fill:#1B1D1D;" d="M612.752,582.092l-2.476,0.231c0.04-0.422,0.167-0.836,0.374-1.202l1.505-0.143l0.072,0.064
							l0.685,0.661L612.752,582.092z"/>
						<path style="fill:#1B1D1D;" d="M612.155,580.977l-0.756-0.74c0.287-0.231,0.613-0.414,0.987-0.525
							c1.592-0.502,3.288,0.382,3.79,1.974l0.096,0.295c0.008,0.35-0.048,0.709-0.167,1.043c-0.462-0.82-0.916-1.608-1.29-2.357
							c-1.075,0.382-0.86-0.414-1.123-0.438c-0.494-0.056-1.505,0.318-1.481,0.74L612.155,580.977z"/>
						<path style="fill:#1B1D1D;" d="M611.399,580.237l0.756,0.74l-1.505,0.143C610.842,580.786,611.088,580.483,611.399,580.237z"
							/>
						<path style="fill:#1B1D1D;" d="M599.13,568.311l12.268,11.926c-0.31,0.247-0.557,0.549-0.748,0.884l-1.935,0.183
							c-0.175,0-0.358,0.008-0.533,0.016l-10.716-10.413L599.13,568.311z"/>
						<path style="fill:#53595D;" d="M604.839,593.381c1.998-1.68,4.132-3.2,6.353-4.633c0.366,1.369,1.043,2.468,1.887,3.248
							l0.947,3.017l0.932,4.53c-0.072,0.072-0.143,0.151-0.207,0.231l-32.713,41.136c-0.072,0.088-0.127,0.175-0.183,0.271
							l-8.805,0.318l0.398-4.984l1.576-5.055l21.886-29.417l1.25-1.688C600.118,597.72,602.379,595.435,604.839,593.381z"/>
						<path style="fill:#1B1D1D;" d="M613.079,591.996l-2.667-8.503l0.732,0.709c0.589,0.573,1.345,0.852,2.102,0.852
							c0.788,0,1.576-0.303,2.173-0.916c0.318-0.326,0.549-0.709,0.685-1.115c0.39,0.701,0.796,1.417,1.162,2.142l1.513,4.809
							c0,0.016,0,0.032,0,0.048c-0.422,0.908-1.202,3.185-2.126,3.272C615.372,593.413,614.098,592.943,613.079,591.996z"/>
						<path style="fill:#1B1D1D;" d="M608.716,581.304l1.935-0.183c-0.207,0.366-0.334,0.78-0.374,1.202l-0.971,0.096l-1.122-1.099
							C608.358,581.311,608.541,581.304,608.716,581.304z"/>
						<path style="fill:#1B1D1D;" d="M610.404,583.485l-1.099-1.067l0.971-0.096c-0.024,0.382,0.008,0.772,0.135,1.162H610.404z"/>
						<path style="fill:#1B1D1D;" d="M608.923,583.628c-0.111-0.382-0.175-0.764-0.143-1.162l0.525-0.048l1.099,1.067
							L608.923,583.628z"/>
						<path style="fill:#53595D;" d="M600.866,584.679c2.556-0.629,5.207-1.011,7.929-1.051c0.032,0,0.064,0,0.096,0h0.032
							c0.223,0.756,0.629,1.544,0.836,2.548l-6.003,4.013c-0.318-0.645-0.454-0.931-0.581-1.107l-0.016-0.024l-0.135-0.279
							L600.866,584.679z"/>
						<path style="fill:#1B1D1D;" d="M608.78,582.466c-0.032,0.398,0.032,0.78,0.143,1.162h-0.032c-0.032,0-0.064,0-0.096,0
							c-2.723,0.04-5.374,0.422-7.929,1.051l-1.115-2.11c2.707-0.709,5.525-1.162,8.431-1.25l1.122,1.099L608.78,582.466z"/>
						<path style="fill:#53595D;" d="M608.182,581.319c-2.906,0.088-5.724,0.541-8.431,1.25l-0.836-1.592
							c-1.282-2.42-2.388-4.888-3.312-7.356c0.199-0.183,0.374-0.39,0.525-0.621l1.337-2.094L608.182,581.319z"/>
						<path style="fill:#343535;" d="M610.412,583.493l2.667,8.503c-0.844-0.78-1.521-1.879-1.887-3.248
							c-2.221,1.433-4.355,2.954-6.353,4.633l-0.661-0.772c0.279-0.342,0.342-0.828,0.135-1.25l-1.138-2.277
							c0.127,0.175,0.263,0.462,0.581,1.107l6.003-4.013c-0.207-1.003-0.613-1.791-0.836-2.548l1.481-0.143h0.008V583.493z"/>
						<path style="fill:#1B1D1D;" d="M601.973,589.273c0.223-0.04,0.533-0.724,0.892-0.478c0.127,0.088,0.215,0.159,0.295,0.263
							l0.016,0.024l1.138,2.277c0.207,0.422,0.143,0.908-0.135,1.25c-0.104,0.127-0.231,0.231-0.382,0.31
							c-0.167,0.088-0.342,0.127-0.518,0.127c-0.43,0-0.836-0.239-1.043-0.645l-1.13-2.277
							C601.224,589.583,601.407,589.368,601.973,589.273z"/>
						<path style="fill:#1B1D1D;" d="M602.864,588.795c-0.358-0.247-0.669,0.438-0.892,0.478c-0.565,0.096-0.748,0.31-0.868,0.852
							l-0.398-0.796l-2.126-4.021c0.748-0.231,1.513-0.446,2.285-0.629l2.157,4.1l0.135,0.279
							C603.079,588.954,602.992,588.883,602.864,588.795z"/>
						<path style="fill:#1B1D1D;" d="M615.356,579.862c0.597,0.581,0.9,1.345,0.916,2.118l-0.096-0.295
							c-0.502-1.592-2.197-2.476-3.79-1.974c-0.374,0.111-0.701,0.295-0.987,0.525l-12.268-11.926l0.318-0.502l0.016-0.024
							c0.008-0.008,0.016-0.024,0.016-0.032c0.072-0.111,0.135-0.239,0.191-0.358c0.008-0.008,0.008-0.016,0.016-0.032
							c0.04-0.104,0.08-0.199,0.111-0.303c0.024-0.048,0.032-0.104,0.04-0.151c0.024-0.056,0.032-0.104,0.032-0.159
							c0.024-0.072,0.04-0.143,0.04-0.215c0.024-0.127,0.032-0.255,0.032-0.374c0-0.127-0.008-0.247-0.024-0.366
							c-0.008-0.096-0.024-0.191-0.048-0.279c-0.016-0.064-0.032-0.127-0.048-0.183c-0.024-0.072-0.048-0.151-0.072-0.223
							s-0.056-0.143-0.088-0.207c-0.024-0.064-0.056-0.127-0.096-0.183c-0.032-0.072-0.08-0.143-0.127-0.215
							c-0.04-0.072-0.088-0.135-0.143-0.199c-0.048-0.064-0.096-0.127-0.151-0.191L615.356,579.862z"/>
						<path style="fill:#1B1D1D;" d="M599.751,582.569l1.115,2.11c-0.772,0.183-1.537,0.398-2.285,0.629l-1.099-2.078
							C598.231,582.983,598.987,582.76,599.751,582.569z"/>
						<path style="fill:#1B1D1D;" d="M599.943,566.161c0,0.119-0.008,0.247-0.032,0.374c0,0.072-0.016,0.143-0.04,0.215
							c0,0.056-0.008,0.103-0.032,0.159c-0.008,0.056-0.024,0.103-0.04,0.151c-0.032,0.104-0.064,0.207-0.111,0.303
							c-0.008,0.016-0.008,0.024-0.016,0.032c-0.056,0.127-0.119,0.247-0.191,0.358c0,0.008-0.008,0.024-0.016,0.032l-0.016,0.024
							c-0.111,0.167-0.231,0.318-0.366,0.454l-1.823-1.775l-0.342-0.326l-0.47-0.111l-2.476-0.549
							c0.064-0.326,0.191-0.637,0.374-0.931c0.008-0.016,0.024-0.032,0.032-0.048c0.072-0.111,0.151-0.207,0.231-0.303
							c0.064-0.08,0.135-0.159,0.215-0.231c0.04-0.04,0.08-0.08,0.119-0.112c0.032-0.032,0.072-0.064,0.111-0.096
							c0.056-0.04,0.111-0.08,0.167-0.119c0.191-0.135,0.398-0.239,0.613-0.318c0.104-0.04,0.199-0.08,0.303-0.104
							c0.032-0.008,0.064-0.016,0.104-0.024c0.088-0.024,0.175-0.04,0.263-0.048c0.143-0.024,0.295-0.032,0.446-0.032
							c0.111,0,0.231,0.008,0.342,0.032c0.032,0,0.064,0,0.096,0.008c0.024,0,0.048,0.008,0.072,0.016
							c0.056,0,0.103,0.016,0.159,0.032c0.016,0,0.032,0,0.048,0.016c0.056,0.008,0.104,0.024,0.151,0.04
							c0.103,0.032,0.207,0.064,0.302,0.111c0.016,0,0.024,0.008,0.032,0.016c0.127,0.056,0.247,0.119,0.358,0.191
							c0.088,0.048,0.175,0.111,0.263,0.183c0.024,0.016,0.048,0.032,0.072,0.064c0.048,0.024,0.088,0.064,0.127,0.103
							c0.056,0.048,0.111,0.104,0.167,0.167c0.056,0.064,0.111,0.127,0.159,0.191c0.056,0.064,0.104,0.135,0.143,0.199
							c0.048,0.072,0.096,0.143,0.127,0.215c0.04,0.064,0.064,0.119,0.096,0.183c0.032,0.064,0.064,0.135,0.088,0.207
							c0.032,0.072,0.056,0.151,0.072,0.223c0.016,0.056,0.032,0.119,0.048,0.183c0.024,0.088,0.04,0.183,0.048,0.279
							C599.935,565.914,599.943,566.042,599.943,566.161z"/>
						<path style="fill:#1B1D1D;" d="M599.943,566.161c0-0.119-0.008-0.247-0.024-0.366
							C599.935,565.914,599.943,566.034,599.943,566.161z"/>
						<path style="fill:#1B1D1D;" d="M599.919,565.795c-0.008-0.096-0.024-0.191-0.048-0.279
							C599.895,565.604,599.911,565.699,599.919,565.795z"/>
						<path style="fill:#1B1D1D;" d="M599.871,566.75c0.024-0.072,0.04-0.143,0.04-0.215
							C599.911,566.607,599.895,566.679,599.871,566.75z"/>
						<path style="fill:#1B1D1D;" d="M599.799,567.061c0.016-0.048,0.032-0.096,0.04-0.151
							C599.831,566.957,599.823,567.013,599.799,567.061z"/>
						<path style="fill:#1B1D1D;" d="M599.823,565.333c-0.016-0.072-0.04-0.151-0.072-0.223
							C599.775,565.182,599.799,565.261,599.823,565.333z"/>
						<path style="fill:#1B1D1D;" d="M599.688,567.363c0.048-0.096,0.08-0.199,0.111-0.303
							C599.767,567.164,599.728,567.26,599.688,567.363z"/>
						<path style="fill:#1B1D1D;" d="M599.481,567.753c0.072-0.111,0.135-0.231,0.191-0.358
							C599.616,567.514,599.552,567.642,599.481,567.753z"/>
						<path style="fill:#1B1D1D;" d="M599.664,564.903c-0.032-0.064-0.056-0.119-0.096-0.183
							C599.608,564.776,599.64,564.839,599.664,564.903z"/>
						<path style="fill:#1B1D1D;" d="M599.449,567.809l-0.318,0.502l-0.048-0.048C599.218,568.128,599.337,567.976,599.449,567.809z
							"/>
						<path style="fill:#1B1D1D;" d="M599.441,564.505c-0.04-0.064-0.088-0.135-0.143-0.199
							C599.353,564.37,599.401,564.433,599.441,564.505z"/>
						<path style="fill:#1B1D1D;" d="M599.146,564.115c0.056,0.064,0.103,0.127,0.151,0.191c-0.048-0.064-0.104-0.127-0.159-0.191
							C599.138,564.115,599.138,564.115,599.146,564.115z"/>
						<path style="fill:#1B1D1D;" d="M599.027,563.996l0.119,0.119c-0.008,0-0.008,0-0.008,0c-0.056-0.064-0.111-0.119-0.167-0.167
							C598.995,563.964,599.011,563.98,599.027,563.996z"/>
						<path style="fill:#1B1D1D;" d="M597.26,566.487l1.823,1.775c-0.716,0.74-1.791,1.091-2.874,0.836l-0.462-0.111l-0.334-0.072
							l-0.605-0.589c-0.78-0.756-1.059-1.839-0.836-2.826l2.476,0.549l0.47,0.111L597.26,566.487z"/>
						<path style="fill:#1B1D1D;" d="M598.772,563.781c0.024,0.016,0.048,0.032,0.072,0.064
							C598.82,563.812,598.796,563.797,598.772,563.781z"/>
						<path style="fill:#1B1D1D;" d="M597.482,583.23l1.099,2.078c-3.216,0.995-6.258,2.357-9.052,3.901l-1.154-2.014
							C591.185,585.642,594.242,584.257,597.482,583.23z"/>
						<path style="fill:#1B1D1D;" d="M598.509,563.597c-0.111-0.072-0.231-0.135-0.358-0.191c0.064,0.032,0.127,0.064,0.199,0.096
							C598.406,563.526,598.454,563.558,598.509,563.597z"/>
						<path style="fill:#1B1D1D;" d="M598.35,563.502c-0.072-0.032-0.135-0.064-0.199-0.096
							C598.223,563.43,598.286,563.462,598.35,563.502z"/>
						<path style="fill:#1B1D1D;" d="M598.31,648.107l-0.971,1.258c-0.358,0.478-0.876,0.772-1.417,0.868l-1.68-0.939l1.258-1.345
							l0.756-0.987L598.31,648.107z"/>
						<path style="fill:#1B1D1D;" d="M598.119,563.391c-0.096-0.048-0.199-0.08-0.302-0.111c0.024,0,0.04,0.008,0.056,0.016
							C597.952,563.327,598.04,563.359,598.119,563.391z"/>
						<path style="fill:#1B1D1D;" d="M598.119,563.391c-0.08-0.032-0.167-0.064-0.247-0.096
							C597.96,563.319,598.04,563.351,598.119,563.391z"/>
						<path style="fill:#1B1D1D;" d="M597.817,563.279c-0.048-0.016-0.096-0.032-0.151-0.04c0.024,0,0.056,0.008,0.088,0.016
							C597.777,563.263,597.793,563.271,597.817,563.279z"/>
						<path style="fill:#1B1D1D;" d="M597.753,563.255c-0.032-0.008-0.064-0.016-0.088-0.016c-0.016-0.016-0.032-0.016-0.048-0.016
							C597.666,563.231,597.705,563.239,597.753,563.255z"/>
						<path style="fill:#1B1D1D;" d="M597.618,563.223c-0.056-0.016-0.104-0.032-0.159-0.032
							C597.514,563.199,597.562,563.207,597.618,563.223z"/>
						<path style="fill:#53595D;" d="M596.861,582.06l0.621,1.17c-3.24,1.027-6.297,2.412-9.108,3.965l-6.258-10.963l1.059-0.581
							l8.073-2.372c0.191,0.239,0.43,0.462,0.709,0.637c0.446,0.295,0.947,0.446,1.449,0.47
							C594.37,576.965,595.524,579.544,596.861,582.06z"/>
						<path style="fill:#1B1D1D;" d="M597.291,563.168c-0.112-0.024-0.231-0.032-0.342-0.032
							C597.06,563.136,597.18,563.144,597.291,563.168z"/>
						<path style="fill:#1B1D1D;" d="M596.503,563.168c-0.088,0.008-0.175,0.024-0.263,0.048
							C596.328,563.191,596.416,563.176,596.503,563.168z"/>
						<path style="fill:#1B1D1D;" d="M596.209,569.099c1.083,0.255,2.158-0.096,2.874-0.836l0.048,0.048l-1.664,2.595l-2.054-1.99
							l0.334,0.072L596.209,569.099z"/>
						<path style="fill:#1B1D1D;" d="M596.137,563.239c-0.104,0.024-0.199,0.064-0.303,0.104
							C595.93,563.303,596.033,563.263,596.137,563.239z"/>
						<path style="fill:#53595D;" d="M601.049,590.364c-0.048,0.263-0.159,0.486,0.342,0.9c-0.135,2.03-4.156,3.742-6.138,7.102
							c-0.302-0.215-0.557-0.398-0.788-0.51l-4.936-8.646c2.794-1.544,5.836-2.906,9.052-3.901l2.126,4.021l0.398,0.796
							C601.081,590.196,601.065,590.276,601.049,590.364z"/>
						<path style="fill:#1B1D1D;" d="M594.242,649.293l1.68,0.939c-0.143,0.024-0.279,0.04-0.422,0.04
							c-0.502,0-0.995-0.159-1.417-0.486c-1.019-0.78-1.21-2.245-0.43-3.256l0.573-0.74c0.502,0.303,0.995,0.589,1.489,0.868
							l0.541,0.303l-0.756,0.987L594.242,649.293z"/>
						<path style="fill:#1B1D1D;" d="M594.704,571.041c0.279,0.86,0.573,1.72,0.9,2.579c-0.557,0.502-1.29,0.772-2.022,0.772
							c-0.056,0-0.119,0-0.175-0.008c-0.199-0.525-0.382-1.051-0.565-1.576l1.075-0.318
							C594.529,572.307,594.879,571.662,594.704,571.041z"/>
						<path style="fill:#1B1D1D;" d="M595.221,563.661c-0.056,0.04-0.112,0.08-0.167,0.119
							C595.11,563.741,595.166,563.693,595.221,563.661z"/>
						<path style="fill:#1B1D1D;" d="M581.942,559.76l15.445,3.415c-0.032-0.008-0.064-0.008-0.096-0.008
							c-0.112-0.024-0.231-0.032-0.342-0.032c-0.151,0-0.303,0.008-0.446,0.032c-0.088,0.008-0.175,0.024-0.263,0.048
							c-0.04,0.008-0.072,0.016-0.104,0.024c-0.104,0.024-0.207,0.064-0.303,0.104c-0.215,0.08-0.422,0.183-0.613,0.318
							c-0.056,0.032-0.112,0.08-0.167,0.119c-0.04,0.032-0.08,0.064-0.111,0.096c-0.04,0.032-0.088,0.072-0.119,0.112
							c-0.024,0.016-0.048,0.04-0.072,0.064c-0.056,0.056-0.104,0.111-0.143,0.167c-0.088,0.096-0.167,0.199-0.231,0.303
							c-0.008,0.016-0.024,0.032-0.032,0.048l-0.565,0.892l-12.483-2.747l-4.124-0.263h-0.788c-1.21-1.401-2.707-2.349-4.323-2.818
							c1.449-0.135,2.89-0.199,4.323-0.199h0.78c0.064-0.016,0.127,0,0.199,0l4.116,0.263
							C581.639,559.704,581.791,559.728,581.942,559.76z"/>
						<path style="fill:#1B1D1D;" d="M594.943,563.876c-0.04,0.032-0.08,0.072-0.119,0.112
							C594.855,563.948,594.903,563.908,594.943,563.876z"/>
						<path style="fill:#343535;" d="M595.253,598.365c1.982-3.36,6.003-5.071,6.138-7.102c-0.502-0.414-0.39-0.637-0.342-0.9
							c0.016-0.088,0.032-0.167,0.056-0.239l1.13,2.277c0.207,0.406,0.613,0.645,1.043,0.645c0.175,0,0.35-0.04,0.518-0.127
							c0.151-0.08,0.279-0.183,0.382-0.31l0.661,0.772c-2.46,2.054-4.721,4.339-6.68,6.974l-1.25,1.688l-1.497-1.115
							c0.271-0.358,0.318-0.868,0.08-1.282l-1.027-1.791C594.696,597.967,594.951,598.15,595.253,598.365z"/>
						<path style="fill:#1B1D1D;" d="M594.823,563.988c-0.08,0.072-0.151,0.151-0.215,0.231c0.04-0.056,0.088-0.111,0.143-0.167
							C594.776,564.027,594.799,564.003,594.823,563.988z"/>
						<path style="fill:#1B1D1D;" d="M594.608,564.218c-0.08,0.096-0.159,0.191-0.231,0.303
							C594.441,564.417,594.521,564.314,594.608,564.218z"/>
						<path style="fill:#1B1D1D;" d="M593.78,565.46l0.565-0.892c-0.183,0.295-0.31,0.605-0.374,0.931L593.78,565.46z"/>
						<path style="fill:#1B1D1D;" d="M594.807,568.327l0.605,0.589l-3.368-0.74l1.736-2.715l0.191,0.04
							C593.749,566.487,594.027,567.57,594.807,568.327z"/>
						<path style="fill:#1B1D1D;" d="M593.78,565.46l-1.736,2.715l-11.178-2.46l-3.79-0.239h-0.334l-0.191-0.406
							c-0.064-0.135-0.151-0.255-0.255-0.35c0.47-0.669,1.027-1.29,0.876-2.269l4.124,0.263L593.78,565.46z"/>
						<path style="fill:#1B1D1D;" d="M595.604,573.621c0.923,2.468,2.03,4.936,3.312,7.356l0.836,1.592
							c-0.764,0.191-1.521,0.414-2.269,0.661l-0.621-1.17c-1.338-2.516-2.492-5.095-3.455-7.675
							c0.056,0.008,0.119,0.008,0.175,0.008C594.314,574.393,595.046,574.122,595.604,573.621z"/>
						<path style="fill:#1B1D1D;" d="M593.255,570.253c0.104-0.032,0.215-0.048,0.318-0.048
							C593.462,570.205,593.366,570.221,593.255,570.253z"/>
						<path style="fill:#1B1D1D;" d="M595.412,568.916l2.054,1.99L596.129,573c-0.151,0.231-0.326,0.438-0.525,0.621
							c-0.326-0.86-0.621-1.72-0.9-2.579c0-0.008-0.008-0.016-0.008-0.024c-0.159-0.502-0.621-0.812-1.123-0.812
							c-0.104,0-0.215,0.016-0.318,0.048c-0.008,0-0.016,0.008-0.024,0.008l-2.643,0.78c0.04-0.446,0.199-0.892,0.454-1.298
							l1.003-1.568L595.412,568.916z"/>
						<path style="fill:#1B1D1D;" d="M592.841,572.809c0.183,0.525,0.366,1.051,0.565,1.576c-0.502-0.024-1.003-0.175-1.449-0.47
							c-0.279-0.175-0.518-0.398-0.709-0.637L592.841,572.809z"/>
						<path style="fill:#1B1D1D;" d="M595.492,599.646c0.239,0.414,0.191,0.924-0.08,1.282c-0.096,0.127-0.207,0.231-0.35,0.31
							c-0.183,0.103-0.382,0.151-0.573,0.151c-0.406,0-0.796-0.215-1.011-0.589l-1.067-1.871c-0.072-0.494,0.04-0.939,0.653-1.194
							l0.239,0.422c0.422-0.478,0.756-0.502,1.162-0.303L595.492,599.646z"/>
						<path style="fill:#53595D;" d="M592.873,600.753l-6.918,8.925c-0.661-0.557-0.693-1.138-1.043-1.138
							c-0.096,0-0.191,0.016-0.287,0.04l-8.025-10.031c2.707-2.468,6.449-5.501,10.915-8.184l4.896,8.566
							C592.491,599.551,592.841,600.244,592.873,600.753z"/>
						<path style="fill:#1B1D1D;" d="M594.704,571.041c0.175,0.621-0.175,1.266-0.788,1.449l-1.075,0.318
							c-0.119-0.366-0.239-0.724-0.358-1.083c-0.199-0.613,0.135-1.266,0.748-1.465c0.008,0,0.016-0.008,0.024-0.008
							c0.111-0.032,0.207-0.048,0.318-0.048c0.502,0,0.963,0.31,1.123,0.812C594.696,571.025,594.704,571.033,594.704,571.041z"/>
						<path style="fill:#1B1D1D;" d="M593.231,570.261c-0.613,0.199-0.947,0.852-0.748,1.465c0.119,0.358,0.239,0.716,0.358,1.083
							l-1.592,0.47c-0.518-0.629-0.748-1.433-0.661-2.237L593.231,570.261z"/>
						<path style="fill:#1B1D1D;" d="M589.529,589.209l4.936,8.646c-0.406-0.199-0.74-0.175-1.162,0.303l-0.239-0.422
							c-0.613,0.255-0.724,0.701-0.653,1.194l-4.896-8.566C588.176,589.965,588.844,589.575,589.529,589.209z"/>
						<path style="fill:#1B1D1D;" d="M588.375,587.195l1.154,2.014c-0.685,0.366-1.353,0.756-2.014,1.154l-1.154-2.014
							C587.013,587.951,587.682,587.569,588.375,587.195z"/>
						<path style="fill:#1B1D1D;" d="M582.117,576.232l6.258,10.963c-0.693,0.374-1.361,0.756-2.014,1.154l-6.281-10.995
							L582.117,576.232z"/>
						<path style="fill:#1B1D1D;" d="M586.36,588.349l1.154,2.014c-4.466,2.683-8.208,5.716-10.915,8.184l-1.465-1.823
							C577.929,594.201,581.775,591.096,586.36,588.349z"/>
						<path style="fill:#53595D;" d="M580.079,577.355l6.281,10.995c-4.586,2.747-8.431,5.852-11.225,8.375l-0.032-0.04
							c-2.818-4.1-5.334-8.176-7.516-12.181c0.868-0.645,1.767-1.234,2.715-1.759L580.079,577.355z"/>
						<path style="fill:#1B1D1D;" d="M586.217,610.569c0.398,0.502,0.318,1.234-0.175,1.64c-0.215,0.167-0.478,0.255-0.732,0.255
							c-0.342,0-0.677-0.151-0.908-0.438l-1.608-2.014c0.096-0.462,0.39-0.924,0.716-0.955c0.279-0.024,0.645-0.366,1.115-0.478
							L586.217,610.569z"/>
						<path style="fill:#1B1D1D;" d="M584.625,608.579c-0.47,0.111-0.836,0.454-1.115,0.478c-0.326,0.032-0.621,0.494-0.716,0.955
							l-7.89-9.864c0.31-0.31,0.629-0.621,0.955-0.924c0.239-0.223,0.486-0.454,0.74-0.677L584.625,608.579z"/>
						<path style="fill:#1B1D1D;" d="M583.861,642.351l-0.812,1.815l-0.621,0.024c-0.008-0.008-0.008-0.008-0.016-0.016
							c-0.916-0.724-1.138-2.014-0.557-2.993l1.083-0.04c0.143,0,0.287,0,0.43,0.016c0.438,0.048,0.86,0.111,1.282,0.199
							L583.861,642.351z"/>
						<path style="fill:#53595D;" d="M584.06,612.01l-6.903,9.187c-0.438-0.478-0.685-0.406-0.971-0.422l-9.498-10.151
							c2.38-3.782,5.016-7.316,8.216-10.477l7.89,9.864c-0.08,0.342-0.04,0.685,0.167,0.86
							C583.248,611.119,583.399,611.294,584.06,612.01z"/>
						<path style="fill:#1B1D1D;" d="M585.676,643.8c-0.454,0.581-1.138,0.876-1.823,0.876c-0.494,0-0.995-0.159-1.425-0.486
							l0.621-0.024l0.812-1.815l0.788-0.995c0.828,0.159,1.64,0.398,2.42,0.693L585.676,643.8z"/>
						<path style="fill:#53595D;" d="M582.396,573.454c-0.08,0.024-0.159,0.056-0.231,0.096l-1.202,0.661l-0.653-1.138l-3.567-7.595
							h0.334l3.79,0.239l11.178,2.46l-1.003,1.568c-0.255,0.406-0.414,0.852-0.454,1.298L582.396,573.454z"/>
						<path style="fill:#1B1D1D;" d="M583.176,575.651l-1.059,0.581l-1.154-2.022l1.202-0.661c0.072-0.04,0.151-0.072,0.231-0.096
							l8.192-2.412c-0.088,0.804,0.143,1.608,0.661,2.237L583.176,575.651z"/>
						<polygon style="fill:#1B1D1D;" points="580.963,574.21 582.117,576.232 580.079,577.355 578.925,575.333 						"/>
						<path style="fill:#1B1D1D;" d="M576.552,565.07l0.191,0.406h-0.358c-0.183,0-0.358,0-0.541,0.008
							c0.111-0.279,0.271-0.525,0.454-0.764C576.401,564.816,576.488,564.935,576.552,565.07z"/>
						<path style="fill:#1B1D1D;" d="M575.135,596.725l1.465,1.823c-0.255,0.223-0.502,0.454-0.74,0.677
							c-0.326,0.302-0.645,0.613-0.955,0.924l-1.465-1.823c0.271-0.271,0.549-0.541,0.836-0.804
							C574.546,597.266,574.832,597.003,575.135,596.725z"/>
						<path style="fill:#1B1D1D;" d="M578.224,574.106l-3.344-7.117c0.438,0.024,0.82-0.048,1.011-0.581l-0.199-0.422
							c0.032-0.175,0.08-0.342,0.151-0.502c0.183-0.008,0.358-0.008,0.541-0.008h0.358l3.567,7.595l0.653,1.138l-2.038,1.123
							l-0.653-1.146C578.256,574.162,578.24,574.13,578.224,574.106z"/>
						<path style="fill:#1B1D1D;" d="M576.297,564.72c-0.183,0.239-0.342,0.486-0.454,0.764c-0.502,0-1.003,0.016-1.513,0.048
							c0.016-0.422,0.271-0.828,0.677-1.019C575.453,564.306,575.963,564.402,576.297,564.72z"/>
						<path style="fill:#1B1D1D;" d="M575.891,566.408c-0.191,0.533-0.573,0.605-1.011,0.581l-0.438-0.931
							c-0.08-0.167-0.111-0.35-0.111-0.525c0.51-0.032,1.011-0.048,1.513-0.048c-0.072,0.159-0.119,0.326-0.151,0.502
							L575.891,566.408z"/>
						<path style="fill:#1B1D1D;" d="M576.186,620.776l1.656,1.775c0.438,0.47,0.414,1.202-0.056,1.64
							c-0.223,0.215-0.51,0.318-0.796,0.318c-0.31,0-0.621-0.127-0.844-0.374l-1.799-1.927c-0.151-0.669-0.056-0.924,0.382-1.29
							l0.326,0.35c-0.016-0.438,0.573-0.581,0.987-0.502C576.09,620.776,576.138,620.784,576.186,620.776z"/>
						<path style="fill:#53595D;" d="M578.224,574.106c0.016,0.024,0.032,0.056,0.048,0.08l0.653,1.146l-9.745,5.382
							c-0.939,0.518-1.839,1.099-2.699,1.72c-1.13-2.189-2.165-4.355-3.097-6.489l-0.231-0.557c0.024-0.096,0.064-0.199,0.119-0.31
							c0.318-0.597-0.486-0.868-0.932-1.608l-0.008-0.016l-0.056-0.143c2.866-2.603,9.251-5.899,11.52-6.345
							c0.342-0.072,0.732,0.008,1.083,0.024L578.224,574.106z"/>
						<path style="fill:#1B1D1D;" d="M566.688,610.625l9.498,10.151c-0.048,0.008-0.096,0-0.143-0.008
							c-0.414-0.08-1.003,0.064-0.987,0.502l-0.326-0.35c-0.438,0.366-0.533,0.621-0.382,1.29l-8.909-9.53
							C565.844,611.987,566.258,611.302,566.688,610.625z"/>
						<path style="fill:#53595D;" d="M573.264,598.102l0.175,0.223c-3.248,3.185-5.963,6.775-8.383,10.549l-2.516-2.691
							l-5.804-8.972l-0.502-1.107c0.159-0.064,0.302-0.167,0.422-0.303c0.701-0.788,1.393-1.592,2.094-2.412
							c2.205-2.564,4.458-5.191,7.006-7.404c2.181,3.973,4.673,8.001,7.46,12.053C573.232,598.062,573.248,598.078,573.264,598.102z
							"/>
						<path style="fill:#1B1D1D;" d="M581.854,641.181c-0.581,0.979-0.358,2.269,0.557,2.993c0.008,0.008,0.008,0.008,0.016,0.016
							l-10.469,0.366c0.549-0.374,0.931-0.995,0.987-1.72l0.104-1.337L581.854,641.181z"/>
						<path style="fill:#1B1D1D;" d="M572.006,632.686c0.525,0.366,0.661,1.083,0.302,1.616c-0.231,0.326-0.597,0.502-0.963,0.502
							c-0.231,0-0.454-0.064-0.653-0.199l-1.664-1.138v-0.008c0.072-0.86,0.589-1.568,1.322-1.911L572.006,632.686z"/>
						<path style="fill:#1B1D1D;" d="M573.662,633.832l-0.215,2.683l-0.279,0.9c-0.947,0.255-0.374,0.963-1.226,1.274
							c-0.326,0.151-0.677,0.159-1.003,0.064l0.119-1.529c-0.629,0.525-1.441,1.338-1.059-0.064
							c-0.223-0.645-0.892-0.876-0.939-1.489c-0.024-0.366-0.406-0.844,0.478-1.322c-0.207-0.199-0.39-0.382-0.533-0.557
							l0.024-0.326l1.664,1.138c0.199,0.135,0.422,0.199,0.653,0.199c0.366,0,0.732-0.175,0.963-0.502
							c0.358-0.533,0.223-1.25-0.302-1.616l-1.656-1.138c0.35-0.175,0.756-0.255,1.178-0.223
							C572.81,631.428,573.766,632.551,573.662,633.832z"/>
						<path style="fill:#1B1D1D;" d="M571.385,644.58l0.573-0.024c-0.382,0.271-0.836,0.422-1.322,0.422
							c-0.064,0-0.127-0.008-0.191-0.008c-0.422-0.032-0.812-0.183-1.138-0.414l1.656,0.096L571.385,644.58z"/>
						<path style="fill:#1B1D1D;" d="M569.18,580.714l9.745-5.382l1.154,2.022l-9.776,5.39c-0.947,0.525-1.847,1.115-2.715,1.759
							c-0.374-0.693-0.748-1.385-1.107-2.07C567.341,581.813,568.24,581.232,569.18,580.714z"/>
						<path style="fill:#343535;" d="M564.355,560.907c2.365-1.624,5.175-2.03,7.707-1.274
							C569.514,559.856,566.943,560.286,564.355,560.907z"/>
						<path style="fill:#343535;" d="M596.909,602.043l-21.886,29.417l-1.576,5.055l0.215-2.683
							c0.104-1.282-0.852-2.404-2.134-2.508c-0.422-0.032-0.828,0.048-1.178,0.223l-1.011-0.693
							c0.056-0.016,0.119-0.024,0.175-0.016l1.186,0.135l4.777-7.205c-0.653-0.518-1.115-0.955-0.947-0.916
							c-0.08-0.255-0.135-0.462-0.183-0.645l1.799,1.927c0.223,0.247,0.533,0.374,0.844,0.374c0.287,0,0.573-0.104,0.796-0.318
							c0.47-0.438,0.494-1.17,0.056-1.64l-1.656-1.775c0.287,0.016,0.533-0.056,0.971,0.422l6.903-9.187
							c-0.661-0.716-0.812-0.892-1.099-1.138c-0.207-0.175-0.247-0.517-0.167-0.86l1.608,2.014c0.231,0.287,0.565,0.438,0.908,0.438
							c0.255,0,0.517-0.088,0.732-0.255c0.494-0.406,0.573-1.138,0.175-1.64l-1.592-1.99c0.096-0.024,0.191-0.04,0.287-0.04
							c0.35,0,0.382,0.581,1.043,1.138l6.918-8.925c-0.032-0.51-0.382-1.202-0.462-1.823l1.067,1.871
							c0.215,0.374,0.605,0.589,1.011,0.589c0.191,0,0.39-0.048,0.573-0.151c0.143-0.08,0.255-0.183,0.35-0.31L596.909,602.043z"/>
						<path style="fill:#1B1D1D;" d="M570.35,631.547c-0.732,0.342-1.25,1.051-1.322,1.911l-0.478-0.326l-0.008-0.008
							c-0.215-0.454-0.207-0.884-0.016-1.409c0.104-0.271,0.454-0.764,0.812-0.86L570.35,631.547z"/>
						<path style="fill:#1B1D1D;" d="M573.049,641.499l-0.104,1.337c-0.056,0.724-0.438,1.345-0.987,1.72l-0.573,0.024l-0.422,0.072
							l-1.656-0.096c-0.653-0.454-1.059-1.234-0.995-2.086l0.104-1.258l0.971,0.326l1.393,0.08l0.064-0.016
							c0.143-0.024,0.287-0.04,0.43-0.04L573.049,641.499z"/>
						<path style="fill:#1B1D1D;" d="M573.447,636.515l-0.398,4.984l-1.775,0.064c-0.143,0-0.287,0.016-0.43,0.04l-0.064,0.016
							l-1.393-0.08l-0.971-0.326l0.589-7.42c0.143,0.175,0.326,0.358,0.533,0.557c-0.884,0.478-0.502,0.955-0.478,1.322
							c0.048,0.613,0.717,0.844,0.939,1.489c-0.382,1.401,0.43,0.589,1.059,0.064l-0.119,1.529c0.326,0.096,0.677,0.088,1.003-0.064
							c0.852-0.31,0.279-1.019,1.226-1.274L573.447,636.515z"/>
						<path style="fill:#343535;" d="M569.029,633.458v0.008l-0.024,0.326c-0.207-0.231-0.358-0.446-0.454-0.661L569.029,633.458z"
							/>
						<path style="fill:#53595D;" d="M569.005,633.793l-0.589,7.42l-12.714-4.251c1.346-2.993,2.277-6.417,2.882-10.668
							c0.024,0.016,0.056,0.04,0.08,0.056l9.88,6.775l0.008,0.008C568.646,633.347,568.798,633.562,569.005,633.793z"/>
						<path style="fill:#1B1D1D;" d="M574.275,597.521c-0.287,0.263-0.565,0.533-0.836,0.804l-0.175-0.223
							c-0.016-0.024-0.032-0.04-0.048-0.064c-2.786-4.052-5.278-8.081-7.46-12.053c0.597-0.517,1.202-1.011,1.831-1.481
							c2.181,4.005,4.697,8.081,7.516,12.181l0.032,0.04C574.832,597.003,574.546,597.266,574.275,597.521z"/>
						<path style="fill:#1B1D1D;" d="M566.481,582.434c0.358,0.685,0.732,1.377,1.107,2.07c-0.629,0.47-1.234,0.963-1.831,1.481
							c-0.39-0.701-0.764-1.401-1.13-2.102C565.223,583.381,565.844,582.896,566.481,582.434z"/>
						<path style="fill:#1B1D1D;" d="M566.688,610.625l-1.632-1.752c2.42-3.774,5.135-7.364,8.383-10.549l1.465,1.823
							C571.704,603.309,569.068,606.843,566.688,610.625z"/>
						<path style="fill:#1B1D1D;" d="M565.056,608.874l1.632,1.752c-0.43,0.677-0.844,1.361-1.25,2.054l-1.648-1.759
							C564.204,610.235,564.626,609.55,565.056,608.874z"/>
						<path style="fill:#53595D;" d="M564.554,567.093c0.215,0.008,0.454,0.096,0.709,0.342l-4.005,2.826
							c-0.494-0.573-0.78-1.186-0.947-1.815l0.645-0.263l1.656-0.541C563.257,567.443,563.909,567.26,564.554,567.093z"/>
						<path style="fill:#53595D;" d="M561.242,576.861c1.011,2.317,2.142,4.657,3.384,7.022c-2.826,2.396-5.262,5.223-7.635,7.993
							c-0.589,0.677-1.17,1.361-1.751,2.022c-0.135-0.223-0.334-0.39-0.565-0.486l-4.466-9.57c0.064-0.032,0.127-0.08,0.191-0.135
							l8.901-7.85l0.374-0.366c0.406,0.199,0.828,0.43,1.25,0.605L561.242,576.861z"/>
						<path style="fill:#53595D;" d="M560.773,607.695l3.017,3.224c-2.221,3.678-4.204,7.484-6.17,11.233l-0.04,0.072
							c-3.463-3.344-6.664-7.452-10.031-12.889l7.181-10.947c0,0.008,0.008,0.008,0.008,0.016l5.907,9.132
							C560.685,607.592,560.725,607.648,560.773,607.695z"/>
						<path style="fill:#343535;" d="M563.273,575.078c-0.056,0.111-0.096,0.215-0.119,0.31l-0.812-1.919
							C562.787,574.21,563.591,574.481,563.273,575.078z"/>
						<path style="fill:#1B1D1D;" d="M562.277,573.31l0.056,0.143c-0.024-0.048-0.048-0.088-0.072-0.135
							C562.269,573.31,562.269,573.31,562.277,573.31z"/>
						<path style="fill:#1B1D1D;" d="M561.242,576.861l-0.318-0.764c0.47,0.199,0.947,0.342,1.385,0.302
							c0.955-0.08,0.717-0.47,0.844-1.011l0.231,0.557c0.931,2.134,1.966,4.299,3.097,6.489c-0.637,0.462-1.258,0.947-1.855,1.449
							C563.384,581.518,562.253,579.178,561.242,576.861z"/>
						<path style="fill:#1B1D1D;" d="M560.996,573.868c0.104-0.016,0.207-0.056,0.303-0.104c0.533-0.279,0.764-0.9,0.557-1.441
							l0.422,0.987c-0.008,0-0.008,0-0.016,0.008c0.024,0.048,0.048,0.088,0.072,0.135l0.008,0.016l0.812,1.919
							c-0.127,0.541,0.111,0.931-0.844,1.011c-0.438,0.04-0.916-0.103-1.385-0.302l-0.549-1.298l0.287-0.279
							C560.852,574.337,560.964,574.106,560.996,573.868z"/>
						<path style="fill:#1B1D1D;" d="M560.836,561.87c1.17-0.358,2.349-0.685,3.519-0.963c-0.446,0.303-0.876,0.653-1.29,1.043
							c-0.478,0.462-1.178,0.788-1.433,1.186c-0.271,0.422,0.119,1.25,0.096,1.616l-0.462,0.143l-1.33,0.438l-1.759,0.677
							l-0.414,0.223c-5.605,3.017-10.055,6.465-13.725,10.867c-2.508,3.001-4.649,6.465-6.544,10.533
							c-1.879,4.044-2.261,8.407-2.739,13.009c-0.931,8.956,1.584,17.618,5.247,25.85c4.49,4.419,8.423,8.757,13.057,12.77
							l0.47,0.159l15.286,5.111l0.494,0.024c0.326,0.231,0.716,0.382,1.138,0.414c0.064,0,0.127,0.008,0.191,0.008
							c0.486,0,0.939-0.151,1.322-0.422l10.469-0.366c0.43,0.326,0.931,0.486,1.425,0.486c0.685,0,1.369-0.295,1.823-0.876
							l1.393-1.751c2.325,0.844,4.458,2.118,6.417,3.296c0.247,0.151,0.494,0.303,0.74,0.446l-0.573,0.74
							c-0.78,1.011-0.589,2.476,0.43,3.256c0.422,0.326,0.916,0.486,1.417,0.486c0.143,0,0.279-0.016,0.422-0.04l22.491,12.539
							c0.804,0.677,1.608,1.353,2.412,2.022c5.43,4.498,10.819,8.662,16.623,12.348c0.39,0.701,0.016,0.796-0.318,0.86
							c-1.091-0.645-2.476-0.533-3.455,0.287c-6.329-4.204-12.085-8.885-16.99-13.017l-23.916-13.335
							c-0.788-0.446-1.592-0.924-2.396-1.409c-2.468-1.481-5.016-3.017-7.444-3.336l-11.424,0.438
							c-0.239,0.04-0.478,0.056-0.716,0.04l-2.15-0.119c-0.263-0.016-0.533-0.064-0.788-0.151l-15.755-5.27
							c-0.374-0.127-0.717-0.326-1.019-0.581c-3.272-2.834-6.122-5.74-9.14-8.813c-1.322-1.353-2.659-2.715-4.052-4.092
							c-0.271-0.263-0.486-0.573-0.637-0.924c-4.618-10.366-6.369-19.075-5.501-27.395l0.072-0.629
							c0.454-4.435,0.931-9.012,2.938-13.335c4.849-10.437,11.297-17.252,21.575-22.785l0.414-0.223
							c0.111-0.064,0.231-0.112,0.35-0.159l1.752-0.677c0.048-0.016,0.096-0.032,0.143-0.048L560.836,561.87z"/>
						<path style="fill:#1B1D1D;" d="M560.311,568.446c-0.287-1.075-0.247-2.173-0.374-3.113l1.33-0.438
							c-0.056,0.621,0.549,0.772,1.083,1.282l1.067,1.027c0.247,0.231,0.637-0.143,1.138-0.111c-0.645,0.167-1.298,0.35-1.943,0.549
							l-1.656,0.541L560.311,568.446z"/>
						<path style="fill:#1B1D1D;" d="M561.728,564.752c0.024-0.366-0.366-1.194-0.096-1.616c0.255-0.398,0.955-0.724,1.433-1.186
							c0.414-0.39,0.844-0.74,1.29-1.043c2.587-0.621,5.159-1.051,7.707-1.274c1.616,0.47,3.113,1.417,4.323,2.818h0.788
							c0.151,0.979-0.406,1.6-0.876,2.269c-0.334-0.318-0.844-0.414-1.29-0.207c-0.406,0.191-0.661,0.597-0.677,1.019
							c-3.201,0.151-6.473,0.677-9.777,1.56c-0.502-0.032-0.892,0.342-1.138,0.111l-1.067-1.027
							c-0.533-0.51-1.138-0.661-1.083-1.282L561.728,564.752z"/>
						<path style="fill:#343535;" d="M560.375,574.799l0.549,1.298c-0.422-0.175-0.844-0.406-1.25-0.605L560.375,574.799z"/>
						<path style="fill:#343535;" d="M561.752,572.108l-1.823-3.511l0.382-0.151c0.167,0.629,0.454,1.242,0.947,1.815l4.005-2.826
							c-0.255-0.247-0.494-0.334-0.709-0.342c3.304-0.884,6.576-1.409,9.777-1.56c0,0.175,0.032,0.358,0.111,0.525l0.438,0.931
							c-0.35-0.016-0.74-0.096-1.083-0.024c-2.269,0.446-8.654,3.742-11.52,6.345l-0.422-0.987c-0.016-0.04-0.032-0.088-0.056-0.127
							L561.752,572.108z"/>
						<path style="fill:#1B1D1D;" d="M559.618,572.554c0.056-0.39,0.31-0.732,0.701-0.9c0.533-0.223,1.138-0.016,1.433,0.454
							l0.048,0.088c0.024,0.04,0.04,0.088,0.056,0.127c0.207,0.541-0.024,1.162-0.557,1.441c-0.096,0.048-0.199,0.088-0.303,0.104
							c0.056-0.342-0.048-0.717-0.318-0.987C560.391,572.586,559.992,572.474,559.618,572.554z"/>
						<path style="fill:#1B1D1D;" d="M560.375,574.799l-0.669-1.6l0.032,0.064c0.207,0.398,0.613,0.629,1.027,0.629
							c0.08,0,0.159-0.008,0.231-0.024c-0.032,0.239-0.143,0.47-0.334,0.653L560.375,574.799z"/>
						<path style="fill:#1B1D1D;" d="M559.738,573.263l-0.032-0.064l-0.008-0.016c-0.088-0.207-0.112-0.422-0.08-0.621v-0.008
							c0.374-0.08,0.772,0.032,1.059,0.326c0.271,0.271,0.374,0.645,0.318,0.987c-0.072,0.016-0.151,0.024-0.231,0.024
							C560.351,573.891,559.945,573.661,559.738,573.263z"/>
						<path style="fill:#1B1D1D;" d="M559.618,572.562c-0.032,0.199-0.008,0.414,0.08,0.621l-0.295-0.557
							C559.475,572.594,559.547,572.57,559.618,572.562z"/>
						<path style="fill:#1B1D1D;" d="M559.698,573.183l0.008,0.016l0.669,1.6l-0.701,0.693c-0.43-0.223-0.836-0.406-1.186-0.47
							c-0.271-0.048-0.541-0.486-0.677-0.963l1.226-1.194c0.111-0.112,0.231-0.191,0.366-0.239L559.698,573.183z"/>
						<path style="fill:#1B1D1D;" d="M560.319,571.654c-0.39,0.167-0.645,0.51-0.701,0.9v0.008
							c-0.072,0.008-0.143,0.032-0.215,0.064l-1.035-1.998c0.295-0.31,0.836-0.669,1.011-0.565l-0.51-0.979
							c0.104-0.064,0.215-0.127,0.326-0.183l0.732-0.302l1.823,3.511C561.457,571.638,560.852,571.431,560.319,571.654z"/>
						<path style="fill:#53595D;" d="M559.977,624.438c-0.255-0.175-0.541-0.231-0.82-0.199l0.525-1.011
							c1.895-3.63,3.742-7.173,5.756-10.549l8.909,9.53c0.048,0.183,0.103,0.39,0.183,0.645c-0.167-0.04,0.295,0.398,0.947,0.916
							l-4.777,7.205l-1.186-0.135c-0.056-0.008-0.119,0-0.175,0.016L559.977,624.438z"/>
						<path style="fill:#1B1D1D;" d="M559.157,624.239c0.279-0.032,0.565,0.024,0.82,0.199l9.363,6.417
							c-0.358,0.096-0.709,0.589-0.812,0.86c-0.191,0.525-0.199,0.955,0.016,1.409l-9.88-6.775c-0.024-0.016-0.056-0.04-0.08-0.056
							c0.064-0.422,0.119-0.844,0.175-1.282l0.398-0.764V624.239z"/>
						<path style="fill:#1B1D1D;" d="M559.157,624.247l-0.398,0.764c-0.056,0.438-0.111,0.86-0.175,1.282
							c-0.47-0.374-0.573-1.051-0.223-1.56c0.143-0.207,0.334-0.35,0.549-0.43C558.989,624.279,559.069,624.255,559.157,624.247z"/>
						<path style="fill:#1B1D1D;" d="M558.018,624.247c0.438-0.47,0.422-1.202-0.048-1.648c-0.127-0.127-0.263-0.247-0.39-0.374
							l0.04-0.072c1.966-3.75,3.949-7.555,6.17-11.233l1.648,1.759c-2.014,3.376-3.861,6.918-5.756,10.549l-0.525,1.011v0.008
							c-0.088,0.008-0.167,0.032-0.247,0.056L558.018,624.247z"/>
						<path style="fill:#1B1D1D;" d="M558.368,570.627l-0.517-0.979c0.334-0.191,0.669-0.382,1.019-0.565l0.51,0.979
							C559.204,569.959,558.663,570.317,558.368,570.627z"/>
						<path style="fill:#1B1D1D;" d="M559.937,565.333c0.127,0.939,0.088,2.038,0.374,3.113l-0.382,0.151l-0.637-1.226
							c-0.215-0.414-0.645-0.637-1.083-0.621l-0.032-0.74L559.937,565.333z"/>
						<path style="fill:#1B1D1D;" d="M558.265,567.905l0.605,1.178c-0.35,0.183-0.685,0.374-1.019,0.565l-0.621-1.202
							c-0.295-0.573-0.072-1.274,0.494-1.568c0.159-0.08,0.326-0.119,0.486-0.127L558.265,567.905z"/>
						<path style="fill:#1B1D1D;" d="M559.292,567.371l0.637,1.226l-0.732,0.302c-0.111,0.056-0.223,0.119-0.326,0.183l-0.605-1.178
							l-0.056-1.154C558.647,566.734,559.077,566.957,559.292,567.371z"/>
						<path style="fill:#343535;" d="M558.711,571.981c-0.191-0.549-0.621-0.963-0.454-1.21c0.032-0.048,0.072-0.096,0.111-0.143
							l1.035,1.998c-0.135,0.048-0.255,0.127-0.366,0.239l-1.226,1.194c-0.104-0.382-0.119-0.796,0.024-1.051
							C558.01,572.697,558.392,572.801,558.711,571.981z"/>
						<path style="fill:#53595D;" d="M558.257,570.771c-0.167,0.247,0.263,0.661,0.454,1.21c-0.318,0.82-0.701,0.716-0.876,1.027
							c-0.143,0.255-0.127,0.669-0.024,1.051l-0.096,0.096l-8.519,7.516l-1.783-3.829c2.874-3.161,6.281-5.812,10.437-8.192
							l0.517,0.979C558.329,570.675,558.289,570.723,558.257,570.771z"/>
						<path style="fill:#1B1D1D;" d="M557.97,622.599c0.47,0.446,0.486,1.178,0.048,1.648c-0.398,0.422-1.051,0.478-1.513,0.143
							c0.016-0.096,0.056-0.183,0.096-0.271l0.979-1.895C557.708,622.352,557.843,622.472,557.97,622.599z"/>
						<path style="fill:#1B1D1D;" d="M558.36,624.733c-0.35,0.51-0.247,1.186,0.223,1.56c-0.605,4.251-1.536,7.675-2.882,10.668
							l-1.115-0.374c-0.303-0.271-0.605-0.541-0.908-0.812c1.353-3.057,2.237-6.648,2.794-11.257
							c0.008-0.04,0.016-0.088,0.032-0.127c0.462,0.334,1.115,0.279,1.513-0.143l0.892,0.056
							C558.695,624.382,558.504,624.526,558.36,624.733z"/>
						<path style="fill:#1B1D1D;" d="M556.235,596.104l-0.939-2.094c-0.016-0.04-0.04-0.08-0.056-0.111
							c0.581-0.661,1.162-1.345,1.751-2.022c2.372-2.771,4.809-5.597,7.635-7.993c0.366,0.701,0.74,1.401,1.13,2.102
							c-2.548,2.213-4.801,4.841-7.006,7.404c-0.701,0.82-1.393,1.624-2.094,2.412C556.537,595.936,556.394,596.04,556.235,596.104z
							"/>
						<path style="fill:#1B1D1D;" d="M555.295,594.01l0.939,2.094c-0.143,0.064-0.295,0.096-0.446,0.096
							c-0.271,0-0.549-0.096-0.772-0.295c-0.119-0.104-0.207-0.223-0.271-0.358c0.382-0.326,0.51-0.884,0.287-1.361l-0.016-0.032
							c0.072-0.08,0.151-0.167,0.223-0.255C555.255,593.93,555.279,593.97,555.295,594.01z"/>
						<path style="fill:#1B1D1D;" d="M555.24,593.898c-0.072,0.088-0.151,0.175-0.223,0.255l-0.342-0.74
							C554.905,593.508,555.104,593.675,555.24,593.898z"/>
						<path style="fill:#1B1D1D;" d="M554.921,594.265c0.032-0.04,0.064-0.072,0.096-0.112l0.016,0.032
							c0.223,0.478,0.096,1.035-0.287,1.361C554.547,595.14,554.595,594.623,554.921,594.265z"/>
						<path style="fill:#1B1D1D;" d="M554.921,594.265c-0.326,0.358-0.374,0.876-0.175,1.282c-0.08,0.072-0.175,0.135-0.279,0.183
							c-0.159,0.08-0.326,0.111-0.486,0.111c-0.159,0-0.31-0.032-0.454-0.096l-0.35-0.78c-0.271-0.581-0.008-1.274,0.581-1.537
							c0.303-0.135,0.629-0.127,0.916-0.016l0.342,0.74C554.985,594.193,554.953,594.225,554.921,594.265z"/>
						<path style="fill:#1B1D1D;" d="M554.611,637.702c0.446,0,0.868-0.247,1.059-0.677c0.008-0.024,0.016-0.04,0.032-0.064
							l12.714,4.251l-0.104,1.258c-0.064,0.852,0.342,1.632,0.995,2.086l-0.494-0.024l-15.286-5.111l0.605-1.823
							C554.284,637.67,554.451,637.702,554.611,637.702z"/>
						<path style="fill:#1B1D1D;" d="M553.711,596.143c0.326-0.111,0.701-0.08,1.011,0.127c0.541,0.358,0.685,1.075,0.334,1.616
							l-0.326,0.502c-0.032-0.048-0.048-0.096-0.072-0.143L553.711,596.143z"/>
						<path style="fill:#1B1D1D;" d="M563.79,610.92l-3.017-3.224c-0.048-0.048-0.088-0.103-0.127-0.159l-5.907-9.132
							c0-0.008-0.008-0.008-0.008-0.016l0.326-0.502c0.35-0.541,0.207-1.258-0.334-1.616c-0.31-0.207-0.685-0.239-1.011-0.127
							l-0.183-0.398c0.143,0.064,0.295,0.096,0.454,0.096c0.159,0,0.326-0.032,0.486-0.111c0.104-0.048,0.199-0.111,0.279-0.183
							c0.064,0.135,0.151,0.255,0.271,0.358c0.223,0.199,0.502,0.295,0.772,0.295c0.151,0,0.303-0.032,0.446-0.096l0.502,1.107
							l5.804,8.972l2.516,2.691C564.626,609.55,564.204,610.235,563.79,610.92z"/>
						<path style="fill:#1B1D1D;" d="M554.587,636.587l1.115,0.374c-0.016,0.024-0.024,0.04-0.032,0.064
							c-0.191,0.43-0.613,0.677-1.059,0.677c-0.159,0-0.326-0.032-0.478-0.103c-0.589-0.263-0.844-0.955-0.581-1.537
							c0.04-0.096,0.088-0.191,0.127-0.287C553.982,636.046,554.284,636.316,554.587,636.587z"/>
						<path style="fill:#1B1D1D;" d="M553.114,596.605c0.143-0.223,0.358-0.382,0.597-0.462l0.947,2.102
							c0.024,0.048,0.04,0.096,0.072,0.143l-7.181,10.947l-0.008-0.008c0.223-0.374,0.215-0.86-0.048-1.242l-0.987-1.409
							L553.114,596.605z"/>
						<path style="fill:#53595D;" d="M548.632,585.953l4.291,9.219c0.127,0.271,0.35,0.47,0.605,0.573l0.183,0.398
							c-0.239,0.08-0.454,0.239-0.597,0.462l-6.608,10.071l-1.385-1.982l-3.376-9.585L548.632,585.953z"/>
						<path style="fill:#1B1D1D;" d="M557.811,574.059c0.135,0.478,0.406,0.916,0.677,0.963c0.35,0.064,0.756,0.247,1.186,0.47
							l-0.374,0.366l-8.901,7.85c-0.064,0.056-0.127,0.104-0.191,0.135l-1.011-2.173l8.519-7.516L557.811,574.059z"/>
						<path style="fill:#1B1D1D;" d="M549.197,581.67l1.011,2.173c-0.175,0.112-0.374,0.159-0.581,0.159
							c-0.263,0-0.533-0.096-0.748-0.295c-0.04-0.024-0.08-0.064-0.119-0.104c-0.43-0.478-0.382-1.218,0.104-1.64L549.197,581.67z"
							/>
						<path style="fill:#1B1D1D;" d="M550.208,583.843l4.466,9.57c-0.287-0.112-0.613-0.119-0.916,0.016
							c-0.589,0.263-0.852,0.955-0.581,1.537l0.35,0.78c-0.255-0.104-0.478-0.303-0.605-0.573l-4.291-9.219l0.39-0.525
							c0.382-0.51,0.279-1.242-0.231-1.624l0.088-0.096c0.215,0.199,0.486,0.295,0.748,0.295
							C549.834,584.002,550.033,583.955,550.208,583.843z"/>
						<path style="fill:#1B1D1D;" d="M548.759,583.604c0.04,0.04,0.08,0.08,0.119,0.104l-0.088,0.096
							c-0.358-0.279-0.836-0.302-1.218-0.119l-1.815-3.901c0.533-0.669,1.083-1.314,1.656-1.943l1.783,3.829l-0.334,0.295
							C548.377,582.386,548.329,583.127,548.759,583.604z"/>
						<path style="fill:#1B1D1D;" d="M548.791,583.803c0.51,0.382,0.613,1.115,0.231,1.624l-0.39,0.525l-1.059-2.269
							C547.955,583.501,548.433,583.525,548.791,583.803z"/>
						<path style="fill:#1B1D1D;" d="M547.573,583.684l1.059,2.269l-6.887,9.156l3.376,9.585l1.385,1.982l-0.939,1.433
							c-0.231,0.358-0.247,0.788-0.072,1.146c0,0.008-0.008,0.008-0.008,0.016l-2.365-3.376c-0.056-0.088-0.103-0.175-0.143-0.279
							l-3.638-10.318c-0.064-0.191-0.08-0.39-0.048-0.573c0.032-0.183,0.104-0.358,0.215-0.518l7.659-10.175
							C547.278,583.883,547.414,583.771,547.573,583.684z"/>
						<path style="fill:#1B1D1D;" d="M547.509,609.391c-0.032,0.04-0.056,0.08-0.088,0.119c0.048-0.056,0.088-0.119,0.119-0.183
							l0.008,0.008L547.509,609.391z"/>
						<path style="fill:#1B1D1D;" d="M545.2,578.589c-0.151-0.318-0.143-0.669-0.008-0.963c0.104-0.247,0.303-0.454,0.565-0.581
							c0.589-0.271,1.274-0.016,1.544,0.565l0.111,0.231c-0.573,0.629-1.123,1.274-1.656,1.943L545.2,578.589z"/>
						<path style="fill:#1B1D1D;" d="M547.207,609.702c0.08-0.056,0.151-0.119,0.215-0.191
							C547.358,609.582,547.286,609.646,547.207,609.702z"/>
						<path style="fill:#1B1D1D;" d="M546.984,609.821c0.04-0.016,0.072-0.032,0.096-0.048
							C547.047,609.797,547.016,609.813,546.984,609.821z"/>
						<path style="fill:#1B1D1D;" d="M546.538,609.909c0.056,0,0.111,0,0.175-0.016
							C546.657,609.901,546.594,609.909,546.538,609.909z"/>
						<path style="fill:#1B1D1D;" d="M546.538,609.909c-0.08,0-0.167-0.008-0.247-0.032
							C546.371,609.901,546.458,609.909,546.538,609.909z"/>
						<path style="fill:#1B1D1D;" d="M547.422,609.51c-0.064,0.072-0.135,0.135-0.215,0.191c-0.04,0.032-0.088,0.056-0.127,0.072
							c-0.024,0.016-0.056,0.032-0.096,0.048c-0.088,0.04-0.183,0.064-0.271,0.072c-0.064,0.016-0.119,0.016-0.175,0.016
							c-0.08,0-0.167-0.008-0.247-0.032c-0.032,0-0.056-0.008-0.08-0.016c-0.072-0.016-0.135-0.048-0.199-0.08
							c-0.08-0.04-0.159-0.088-0.231-0.151s-0.135-0.135-0.191-0.215l-0.032-0.04l-0.048-0.08c-0.008-0.016-0.016-0.024-0.016-0.04
							c0.183-0.302,0.486-0.51,0.836-0.557c0.462-0.072,0.908,0.143,1.154,0.533c0.024,0.032,0.04,0.064,0.056,0.096
							C547.509,609.391,547.469,609.455,547.422,609.51z"/>
						<path style="fill:#1B1D1D;" d="M546.012,609.781c0.064,0.032,0.127,0.064,0.199,0.08
							C546.148,609.845,546.076,609.821,546.012,609.781z"/>
						<path style="fill:#1B1D1D;" d="M545.901,609.725c-0.04-0.032-0.08-0.064-0.119-0.096c0.072,0.064,0.151,0.111,0.231,0.151
							C545.973,609.773,545.941,609.749,545.901,609.725z"/>
						<path style="fill:#1B1D1D;" d="M547.493,608.085c0.263,0.382,0.271,0.868,0.048,1.242c-0.016-0.032-0.032-0.064-0.056-0.096
							c-0.247-0.39-0.693-0.605-1.154-0.533c-0.35,0.048-0.653,0.255-0.836,0.557c-0.175-0.358-0.159-0.788,0.072-1.146l0.939-1.433
							L547.493,608.085z"/>
						<path style="fill:#1B1D1D;" d="M557.763,566.233l0.414-0.223l0.032,0.74c-0.159,0.008-0.326,0.048-0.486,0.127
							c-0.565,0.295-0.788,0.995-0.494,1.568l0.621,1.202c-4.156,2.38-7.563,5.032-10.437,8.192l-0.111-0.231
							c-0.271-0.581-0.955-0.836-1.544-0.565c-0.263,0.127-0.462,0.334-0.565,0.581l-1.154-0.525
							C547.708,572.697,552.159,569.25,557.763,566.233z"/>
						<path style="fill:#1B1D1D;" d="M545.781,609.63c-0.088-0.072-0.159-0.159-0.223-0.255l0.032,0.04
							C545.646,609.495,545.71,609.566,545.781,609.63z"/>
						<path style="fill:#1B1D1D;" d="M545.495,609.256c0,0.016,0.008,0.024,0.016,0.04l-0.024-0.024
							C545.487,609.264,545.495,609.264,545.495,609.256z"/>
						<path style="fill:#1B1D1D;" d="M545.192,577.625c-0.135,0.295-0.143,0.645,0.008,0.963l0.557,1.194
							c-2.11,2.659-3.917,5.661-5.525,9.124c-0.82,1.775-1.33,3.686-1.672,5.7c-0.334,1.831-0.533,3.75-0.732,5.716l-0.072,0.629
							c-0.677,6.552,0.565,13.51,3.917,21.734l-0.159,0.557c-0.175,0.621,0.183,1.266,0.804,1.433
							c0.064,0.024,0.135,0.032,0.207,0.04c0.008,0.008,0.008,0.024,0.016,0.032c1.266,1.258,2.492,2.508,3.71,3.75
							c2.492,2.54,4.872,4.968,7.428,7.277c-0.04,0.096-0.088,0.191-0.127,0.287c-0.263,0.581-0.008,1.274,0.581,1.537l-0.605,1.823
							l-0.47-0.159c-4.633-4.013-8.566-8.351-13.057-12.77c-3.662-8.232-6.178-16.894-5.247-25.85
							c0.478-4.602,0.86-8.964,2.739-13.009c1.895-4.068,4.036-7.531,6.544-10.533L545.192,577.625z"/>
						<path style="fill:#1B1D1D;" d="M547.549,609.335c3.368,5.438,6.568,9.546,10.031,12.889l-0.979,1.895
							c-0.04,0.088-0.08,0.175-0.096,0.271c-0.048-0.032-0.088-0.064-0.127-0.104c-3.296-3.105-6.345-6.839-9.466-11.624
							l-3.161,11.21c-0.143,0.517-0.613,0.852-1.115,0.852c-0.04,0-0.072,0-0.111-0.008c-0.303-0.685-0.589-1.361-0.852-2.03
							l3.702-13.152c0.024-0.096,0.064-0.183,0.111-0.263l0.024,0.024l0.048,0.08c0.064,0.096,0.135,0.183,0.223,0.255
							c0.04,0.032,0.08,0.064,0.119,0.096c0.04,0.024,0.072,0.048,0.111,0.056c0.064,0.04,0.135,0.064,0.199,0.08
							c0.024,0.008,0.048,0.016,0.08,0.016c0.08,0.024,0.167,0.032,0.247,0.032c0.056,0,0.119-0.008,0.175-0.016
							c0.088-0.008,0.183-0.032,0.271-0.072c0.032-0.008,0.064-0.024,0.096-0.048c0.04-0.016,0.088-0.04,0.127-0.072
							c0.08-0.056,0.151-0.119,0.215-0.191c0.032-0.04,0.056-0.08,0.088-0.119L547.549,609.335z"/>
						<path style="fill:#53595D;" d="M546.251,628.498c-1.218-1.242-2.444-2.492-3.71-3.75c-0.008-0.008-0.008-0.024-0.016-0.032
							c0.04,0.008,0.072,0.008,0.111,0.008c0.502,0,0.971-0.334,1.115-0.852l3.161-11.21c3.121,4.785,6.17,8.519,9.466,11.624
							c0.04,0.04,0.08,0.072,0.127,0.104c-0.016,0.04-0.024,0.088-0.032,0.127c-0.557,4.61-1.441,8.2-2.794,11.257
							C551.124,633.466,548.743,631.038,546.251,628.498z"/>
						<path style="fill:#1B1D1D;" d="M541.514,623.244l0.159-0.557c0.263,0.669,0.549,1.345,0.852,2.03
							c-0.072-0.008-0.143-0.016-0.207-0.04C541.697,624.51,541.339,623.865,541.514,623.244z"/>
						<path style="fill:#53595D;" d="M538.561,594.607c0.342-2.014,0.852-3.925,1.672-5.7c1.608-3.463,3.415-6.465,5.525-9.124
							l1.815,3.901c-0.159,0.088-0.295,0.199-0.406,0.35l-7.659,10.175c-0.111,0.159-0.183,0.334-0.215,0.518L538.561,594.607z"/>
						<path style="fill:#53595D;" d="M537.828,600.323c0.199-1.966,0.398-3.885,0.732-5.716l0.732,0.119
							c-0.032,0.183-0.016,0.382,0.048,0.573l3.638,10.318c0.04,0.104,0.088,0.191,0.143,0.279l2.365,3.376
							c-0.048,0.08-0.088,0.167-0.111,0.263l-3.702,13.152c-3.352-8.224-4.594-15.182-3.917-21.734L537.828,600.323z"/>
					</g>
					<g>
					</g>
				</g>
			</g>
		</g>
	</g>
</g>
<g id="Layer_1">
</g>
</svg>
