<?xml version="1.0" encoding="iso-8859-1"?>
<!-- Generator: Adobe Illustrator 30.3.0, SVG Export Plug-In . SVG Version: 9.03 Build 0)  -->
<svg version="1.1" xmlns="http://www.w3.org/2000/svg" xmlns:xlink="http://www.w3.org/1999/xlink" x="0px" y="0px"
	 viewBox="0 0 951.862 990.303" style="enable-background:new 0 0 951.862 990.303;" xml:space="preserve">
<g id="fish">
	<g id="fish_00000097490847888955840290000006770009332733066901_">
		<path style="fill:#1F1E1E;" d="M594.057,603.222c-2.832,3.2-15.895,14.157-15.895,14.157
			c18.59,40.335,12.134,86.514-24.846,109.532c-2.029,1.263-5.82,0.11-7.452-0.059c-2.98-0.309-2.637-4.521-3.506-7.415
			c-5.623-1.673-10.911-4.647-12.231-11.512c-8.305,0.216-10.939-6.409-10.88-13.427c-7.778-3.51-9.843-10.987-8.293-18.511
			c-3.88-5.94,2.378-9.476,3.938-16.918c-10.502,3.791-20.544,7.067-32.69,8.829c-5.909,32.89-28.575,60.813-59.724,71.685
			c-2.945,1.028-5.522,0.043-7.209-0.463c-2.832-0.849-4.135-4.977-3.003-8.21l3.841-10.966c-2.786-3.789-4.555-8.69-0.933-13.595
			c-4.082-6.024-4.138-12.533,0.345-19.121c-4.653-8.685,1.209-15.083,9.854-19.884c-2.751-2.814-7.48-4.204-11.835-4.271
			c-15.426,35.596-44.912,62.313-82.314,70.606c-3.699,0.82-7.945-0.572-9.592-2.201c-6.009-5.941,1.999-14.786,0.338-16.785
			l-4.017-4.835l1.277-9.472c-4.804-2.407-7.636-6.801-4.709-12.85c-4.353-3.282-4.25-8.185-1.882-12.923
			c-2.581-4.867-3.272-10.432,1.836-13.536c-3.048-3.898-4.316-6.925-3.294-11.591c0.64-2.923,5.44-5.735,6.606-8.824
			c1.137-4.793,1.468-10.06,7.361-12.739l21.218-9.646c-16.141-15.068-22.76-38.757-38.439-39.962
			c-13.089,24.123-19.524,46.412-36.316,70.643c-15.492,22.357-36.973,40.278-63.047,47.199c-3.551,0.943-6.99-0.562-8.708-1.733
			c-2.701-1.84-2.449-6.848-0.927-9.556l7.76-13.805c-3.742-7.826-1.957-15.659,4.343-22.538c-5.82-8.203-5.709-18.809,0.555-27.825
			c-3.08-10.978-0.127-21.644,9.886-29.156c-5.487-9.645-0.443-18.598,5.115-27.091c-2.37-5.52-3.893-12.332-0.76-19.509
			c-1.927-4.115-3.532-13.713-6.936-16.43c-8.536-6.368-7.378-16.272-11.318-23.391c-5.013-9.058-15.736-15.913-10.388-28.492
			c-9.61-4.582-12.268-13.677-10.657-22.035c-7.127-6.295-10.5-13.829-9.894-22.624c-5.671-3.363-10.942-11.562-6.928-17.191
			c5.268-7.387,15.95-5.613,24.119-4.188c21.854,3.811,40.565,15.656,58.025,29.643c34.273,27.457,47.175,65.869,57.169,45.511
			l18.762-38.222c-2.46-5.914-9.695-15.06-0.36-21.556c-3.691-6.54-1.754-14.853,4.79-19.861
			c-2.348-6.108,0.967-12.081,6.212-16.398c-0.462-7.674,2.163-14.546,8.729-19.169c0.607-6.269,3.208-11.68,8.667-15.331
			c0.819-6.071,5.443-9.098,10.85-12.091c0.059-6.817,3.177-12.608,9.771-15.759c1.054-7.307,4.984-12.794,11.812-15.688
			c1.451-7.185,4.187-13.143,11.449-15.994c-0.125-9.816,5.857-15.368,13.716-20.209c0.9-6.979,3.59-14.133,11.212-15.905
			c0.748-5.525,6.169-7.483,8.193-11.087c8.67-15.437,29.344-4.117,43.897,12.276c18.096,20.384,28.337,45.093,34.017,71.579
			c26.696,5.645,49.209,19.211,69.431,36.725l17.428,17.657c2.107,6.435,8.341,13.132,12.1,18.53
			c2.863,4.111,13.247,5.736,8.628,12.453c-2.262,3.289,1.265,7.197,1.185,11.547c21.976,17.266,26.735,48.556,8.881,70.712
			c3.102,12.603,1.354,32.795-0.295,38.229c-0.757,2.496-2.872,17.736-10.113,31.647
			C609.463,586.201,595.588,601.492,594.057,603.222z"/>
		<path style="fill:#1F1E1E;" d="M412.964,281.727c-3.487,1.613-6.088,3.402-7.857,8.575l-3.04,9.687
			c-3.049-0.615-6.571,4.335-7.692,6.797l-3.485,7.652c-6.194,2.68-9.049,8.216-11.211,14.689c-1.362,4.08-8.081,4.388-7.389,9.116
			c0.96,6.559-19.034,17.134-22.941,37.175c-7.261,2.908-6.464,9.849-6.39,16.812c-6.736,2.844-8.131,8.733-6.295,16.46
			c4.252-2.058,8.354,0.539,13.913,0.554c4.822,0.013,9.022-6.342,10.069-10.382c-5.664-2.239-10.575-3.015-17.055-3.989
			c1.194-2.455,3.44-2.026,4.831-3.179c4.719,1.514,10.213,1.804,14.919,5.741c4.145-5.025,6.408-8.258,11.311-11.64
			c-6.957-3.311-12.42-6.835-18.823-7.788c0.136-0.974-0.703-1.094-1.253-1.476c-0.304-1.301,0.386-1.368,1.393-1.045
			c0.943-1.385,1.381-0.198,2.3,0.04c5.969,1.546,11.862,4.448,17.469,7.821l15.063-13.351c-4.172-4.517-8.852-8.82-14.447-11.339
			c-2.455-1.105-4.82-2.754-7.058-5.514c4.705-1.091,7,1.738,9.927,3.077c5.619,2.569,9.737,7.433,14.106,11.857
			c16.295-11.834,31.658-22.078,49.006-28.268c19.858-7.086,41.242-12.013,62.793-9.247c-5.21-21.05-13.046-39.868-25.174-56.941
			c-11.94-16.808-35.096-35.661-40.578-25.54l-5.938,5.251c-3.677,6.487-7.922,10.161-13.14,14.66
			C416.794,271.013,417.498,279.63,412.964,281.727z"/>
		<path style="fill:#1F1E1E;" d="M348.216,426.818c-14.301,20.111-24.187,42.638-35.616,64.248
			c-3.415,6.458-7.294,7.399-14.194,7.073c-9.455-0.448-19.084,28.804-12.732,53.466c2.281,8.855,6.802,20.156,16.015,22.85
			c3.326,0.972,9.166-3.513,12.586-0.15l-3.509-8.832c4.01,0.622,7.067,4.557,9.528,8.165c10.096,14.806,19.596,28.853,32.024,42.7
			c13.651-3.46,27.742-8.142,38.776-17.48l1.176-5.984c1.408-7.165,21.783,1.03,32.159,13.934c3.068,3.815-2.079,35.797-7.854,50.21
			c59.623,19.73,117.184-4.854,160.288-46.345c3.842-3.698,8.1-5.658,10.838-10.297c0.472-0.799,2.496-1.024,2.431-1.941
			l-0.38-5.376c-7.06-25.312,6.677-50.872,33.033-54.199c2.283-11.737,2.578-21.895,0.773-33.715
			c-14.941,14.308-34.516,10.319-46.223-4.909c-12.867-16.738-13.4-54.988-3.963-68.068c8.687-12.041,24.98-14.059,38.716-7.61
			c3.778-12.232-16.731-9.323-33.095-20.718c-5.161-3.594-9.514-10.643-5.942-16.608c4.059-6.778,14.758,13.504,27.914,12.807
			c-2.486-2.337-4.947-8.665-7.852-10.006c-8.714-1.069-8.413-7.221-12.392-12.208c-8.982-11.257-21.92-18.679-34.355-25.596
			c-14.973-8.329-32.351-16.832-50.745-17.093c-37.174-0.527-73.025,16.25-101.578,40.344
			C375.793,390.88,361.657,407.917,348.216,426.818z"/>
		<path style="fill:#1F1E1E;" d="M330.766,442.137l19.933-29.417c-5.889-0.454-11.255-3.587-15.791-2.476
			c-3.36,0.823-4.036,4.939-4.831,6.904c-1.015,2.509,0.395,6.132,3.318,8.807C327.528,430.02,325.501,437.38,330.766,442.137z"/>
		<path style="fill:#1F1E1E;" d="M240.736,673.508c16.97-12.348,29.502-29.189,38.89-48.97l21.566-45.444
			c-5.794-2.01-9.451-4.927-12.384-9.789c-13.158-21.812-13.037-50.241,0.829-71.483c1.156-1.771,4.054-1.693,4.053-3.587
			c0-0.23-25.635-33.529-38.657-42.363c-17.674-17.234-38.92-31.834-63.634-37.025c-5.615-1.179-15.497-2.986-18.286,2.984
			c-2.341,5.012,4.525,9.554,7.855,12.944c-0.47,9.055,2.099,16.658,10.544,22.068c-2.869,9.7,0.895,17.482,10.234,22.406
			c-4.82,11.707,2.914,19.244,10.852,26.954c2.013,4.791,0.809,12.395,5.379,17.501c22.62,25.272,4.458,32.368,14.423,42.517
			c-4.21,11.874-13.294,16.193-5.607,29.99c-9.502,7.571-13.893,17.505-10.498,28.742c-6.596,8.577-7.689,18.546-0.943,27.609
			c-5.904,7.437-9.237,14.694-4.168,22.657l-7.557,14.937C197.964,697.35,221.468,687.528,240.736,673.508z"/>
		<path style="fill:#1F1E1E;" d="M622.895,498.405c11.067-11.54,13.395-27.558,8.814-42.629
			c-3.961-13.028-14.504-24.898-29.462-28.918c-8.599-2.311-16.635-0.181-22.953,5.663c-15.187,14.046-10.698,74.287,22.179,76.108
			C609.388,509.068,616.612,504.957,622.895,498.405z"/>
		<path style="fill:#1F1E1E;" d="M397.755,594.453c-1.677,6.588-4.79,9.453-9.807,12.073l-28.101,14.673
			c-0.951,1.049,2.987,2.98,4.526,2.215l21.883-10.873c0.355,6.214,4.927,0.057,7.644,0.645l-5.544,7.44
			c-18.019,13.528-37.26,26.53-59.58,33.648c19.772-14.042,41.689-20.959,59.076-38.622c-8.725,0.661-14.299,8.663-22.547,10.617
			c-3.792,0.898-6.902,0.101-10.814,4.061c-2.697,2.73-9.321,3.854-12.403,4.534c-1.369-0.564-3.857-1.489-3.072-2.766
			l-12.599,7.211l-10.826,10.842l3.554,10.816c-1.767,2.545-5.071,6.337-1.127,9.275c-2.053,4.591-2.834,10.171,0.366,15.17
			c-3.773,6.464,3.842,9.757,4.673,14.744c0.726,4.359-3.563,10.863,4.39,13.911l-3.017,11.343l2.076,3.43
			c46.802-7.934,79.553-47.696,89.949-92.932c1.652-7.188,4.115-15.993,6.904-23.173C418.961,603.392,406.927,598,397.755,594.453z"
			/>
		<path style="fill:#1F1E1E;" d="M681.647,633.733"/>
		<path style="fill:#1F1E1E;" d="M574.802,621.108c-10.192,6.963-17.693,14.755-27.6,20.068c3.199,3.293,2.721,5.624,2.025,7.666
			l-6.013,17.638l-10.962,18.677c-1.553,2.646-3.948,5.701-7.141,4.273c10.651-15.522,18.928-29.522,22.574-47.387l-24.873,14.425
			c-4.524,2.624-8.747,11.22-8.421,16.149l1.018,15.378c9.783,0.31,7.009,9.665,10.061,12.906
			c3.863,4.103,11.934,5.67,12.801,13.097c3.151,0.042,7.152-0.145,8.229,2.211c0.66,1.446,0.221,5.307,2.949,7.058
			C585.481,701.747,589.838,660.277,574.802,621.108z"/>
		<path style="fill:#1F1E1E;" d="M432.855,680.932c-1.432-0.163-2.04-0.674-3.456-2.631c3.827-1.384,5.899-4.287,10.102-8.174
			c-1.827-1.029-6.026-2.177-8.969-1.89c-2.216,0.216-4.974,3.17-6.621,5.388c-5.023,2.594-5.41,7.853-2.893,13.078
			c-4.396,5.262-5.725,12.701-1.223,18.466c-4.099,5.119,0.932,9.548,0.228,13.223l-3.177,16.595
			c7.4,0.032,13.694-4.044,19.067-7.48c20.354-13.015,35.309-33.345,40.445-57.757l-6.582,0.327l-17.96,0.323
			C443.372,670.55,437.818,673.573,432.855,680.932z"/>
		<path style="fill:#DE7C35;" d="M590.134,598.434c0.065,0.918-1.96,1.142-2.431,1.941c-32.918,6.986-66.848,15.023-100.978,14.64
			c-17.029-0.191-49.871-7.78-61.791-20.358c-2.247,0.826-2.454,2.829-2.929,2.159l-2.303-3.246l-8.059-4.942l4.184-2.877
			c1.172-0.772-1.431-2.254-0.932-5.232l-19.386-30.47c-0.816-1.283-1.579-3.041-1.628-4.005c-0.063-1.228-0.854-3.845,1.751-4.1
			c3.645,2.476,8.035,3.71,11.339,0.892c10.907-9.298,4.758-23.641,1.918-41.622c-0.126-0.796-3.475,1.359-2.702,1.786
			c-4.057,1.055-5.668,6.956-4.236,10.809c-6.006,0.711-9.973,11.657-8.608,19.056l-5.801-1.408
			c-4.864-16.035,1.723-28.21-11.458-29.815c0.693-1.456,0.289-4.823,0.334-6.615c-0.287,1.06-2.213-1.345-2.753-1.939
			c-0.656-0.722-0.305-1.207-0.222-3.132l-8.721,0.92l1.418-4.471c0.328-1.034-1.404-4.02-2.765-3.411
			c-4.723,2.113-5.652,6.208-7.923,9.213c-2.164-1.721-4.889-2.509-2.765,1.125c-3.845,7.242-0.259,12.699,3.291,17.758
			c-1.496,4.223-4.287,9.795-3.057,14.169l-10.332,0.065l-4.513-1.031c0.785,0.179-5.557-15.264,1.617-22.277
			c-3.55-6.737-6.818-14.316-7.312-13.93l3.222-2.523c2.442-5.223,3.112-8.672,8.523-10.446c-4.842-0.719-4.291-2.533-2.176-5.331
			l-3.367-4.713c-0.385-0.539,1.353-11.423,4.583-11.891c2.388-0.346,4.407-0.502,6.87,0.15c0.314,1.923-2.899,5.821,2.309,6.739
			c0.046-7.455,0.93-12.615,6.46-17.533c-0.56-1.104-1.626-1.852-1.973-1.128l-1.852-2.077l-3.428-1.058
			c-0.812-0.25,2.875-1.88,1.32-2.876c-0.48-0.308-1.611-1.132-2.242-2.121c-1.104-1.732,2.156-3.317,0.641-4.416
			c-0.881-0.64-1.857-0.931-3.057-2.045c13.44-18.901,27.577-35.938,45.829-51.34c28.553-24.094,64.404-40.871,101.578-40.344
			c-0.3,6.667,15.749,6.452,24.889,13.854c7.235,5.86,17.319,3.258,25.855,3.238c12.435,6.917,25.373,14.34,34.355,25.596
			c3.979,4.987,4.539,5.101,12.392,12.208c2.905,1.341,5.365,7.669,7.852,10.006c-13.156,0.697-23.854-19.585-27.914-12.807
			c-3.573,5.966,0.781,13.014,5.942,16.608c16.364,11.395,36.873,8.487,33.095,20.718c-13.736-6.45-30.029-4.431-38.716,7.61
			c-9.437,13.08-8.904,51.33,3.963,68.068c11.707,15.229,31.282,19.218,46.223,4.909c1.804,11.82,1.51,21.978-0.773,33.715
			l-6.179,19.729c-2.159,6.893-5.559,13.333-10.032,19.004L590.134,598.434z M462.596,355.505c-0.016-2.82,3.872-2.686,0.626-5.676
			c-5.874,2.567-12.372,9.051-9.453,16.605L462.596,355.505z M541.747,370.901c3.701-5.41,1.143-9.212-0.741-12.05
			c-1.319-1.987-8.014-4.642-8.803-1.231C530.811,363.644,539.432,366.999,541.747,370.901z M443.337,362.376
			c3.913-1.679,1.203-5.327-1.878-3.061c-3.857,2.438-6.364,4.213-7.254,6.404c-1.171,2.883-2.007,9.038,1.127,10.074
			L443.337,362.376z M418.456,379.051c4.9-3.69,6.412-8.86,7.16-14.548c-5.623-0.091-7.116,3.173-7.965,5.541
			C416.624,372.909,416.634,375.763,418.456,379.051z M517.678,366.915c-3.616-1.007-3.155,2.063-2.729,2.853
			c0.194,0.361,13.645,0.164,15.104,26.018C536.067,384.872,530.632,370.521,517.678,366.915z M550.665,372.045l0.172,14.947
			l2.628-0.027l0.105-13.269c0.009-1.107,2.36-1.992,1.574-3.357c-0.471-0.819-1.061-2.088-2.114-1.477
			C552.539,369.146,550.647,370.508,550.665,372.045z M563.641,395.522l-0.022-19.088
			C558.273,382.04,557.026,390.326,563.641,395.522z M512.017,379.627c-22.585,31.685-50.382,16.824-60.226,41.404l14.822-4.181
			c21.38-2.478,55.808-16.044,53.785-33.01C520.113,381.45,514.751,375.791,512.017,379.627z M424.609,400.112
			c1.107-7.874,5.25-10.889,9.474-16.439c-4.711-0.649-8.868,2.038-9.879,5.789C423.201,393.183,420.043,396.452,424.609,400.112z
			 M402.389,385.608c-5.038-2.831-8.496,1.58-9.827,4.119c-1.722,3.285-2.978,8.017,1.879,10.653
			C394.451,393.73,396.759,390.103,402.389,385.608z M377.837,413.064c4.803-4.745,7.255-8.955,9.761-13.65
			C380.907,399.607,375.776,406.568,377.837,413.064z M442.215,464.178c-2.156,15.565,3.336,30.314,14.14,40.186
			c10.831,9.897,25.386,13.606,41.08,12.451c4.495-0.331,9.053-3.539,14.132-2.063c-16.461,13.456-36.167,10.969-55.361,0.453
			c7.809,11.381,21.311,13.23,35.038,14.262c-16.345,6.026-31.129-0.221-46.271-9.17c11.247,16.477,32.678,18.478,48.404,11.638
			c19.976-8.689,33.29-22.034,42.522-41.781c10.526-22.514,7.348-51.08-14.466-65.82c-14.762-9.975-33.077-6.515-48.549-1.129
			C454.97,429.438,444.923,444.632,442.215,464.178z M373.227,422.599c-7.459-2.992-9.544,3.071-10.856,6.635
			c-1.264,3.433-1.351,8.419,2.757,11.675C365.063,432.54,366.671,427.318,373.227,422.599z M406.781,435.163
			c1.539-2.068,0.673-5.258,0.668-7.845c-1.644,0.568-2.729,0.633-3.213,1.006c-12.63,9.739-19.727,32.242-11.214,39.379
			c1.738,1.457,4.831,3.823,8.423,2.228c6.815-3.027,9.518-11.277,8.817-18.612l-1.389-14.512l0.383-1.402L406.781,435.163z
			 M374.139,446.382l4.895-15.621C371.588,433.388,371.129,441.1,374.139,446.382z M366.642,457.554
			c-3.898-4.551-10.393,6.002-9.856,17.029l4.226,0.189l12.06-16.18L366.642,457.554z M615.707,517.49
			c-11.063,4.509-18.341,3.438-25.918-2.344c-2.928-1.211-5.114-6.403-9.399-3.597c5.086,8.917,15.27,16.427,25.104,14.548
			C610.1,525.217,615.983,520.822,615.707,517.49z M567.932,527.851c7.565,2.144,11.493,8.768,11.631,15.845
			c2.028-0.182,4.052-0.49,3.959-1.892c-0.808-12.22-9.929-20.172-21.787-19.828c-10.392,0.301-20.544,4.027-29.879,10.924
			C541.692,534.101,551.248,523.123,567.932,527.851z M430.457,539.422c-0.603,0.506-1.393,0.458-1.874,0.124l-0.902,1.684
			c-2.295,6.253-5.531,12.479-4.508,19.819c0.616,4.421,4.537,9.25,8.993,8.95c3.244-0.219,7.552-4.103,8.68-8.405
			c1.685-6.429-1.35-12.447-2.796-18.223l0.122-1.121l-2.175-1.38c0.381-3.11-0.545-6.966-1.477-11.773
			C431.386,532.455,430.923,536.165,430.457,539.422z M580.242,582.608c-0.441-16.645-5.8-27.955-9.27-41.885
			c-51.993-12.264-82.476,43.865-74.528,47.27C502.626,590.643,551.668,551.828,580.242,582.608z M571.361,593.887
			c-4.442-16.518-33.165-13.121-43.114-1.644c-1.35,1.558-2.387,2.206-1.23,3.229C530.034,598.141,547.167,580.095,571.361,593.887z
			 M482.759,584.432c-6.329,5.014-7.316,13.688-1.335,19.322c3.942,3.713,13.613,4.134,17.008-2.212
			c-5.794,0.806-10.228,2.121-13.19-0.285C478.027,595.395,484.928,588.893,482.759,584.432z"/>
		<path style="fill:#DE7C35;" d="M356.834,441.411c-4.514,2.252-9.133,6.614-6.796,11.921c-2.463-0.653-4.482-0.496-6.87-0.15
			c-3.23,0.468-4.968,11.352-4.583,11.891l3.367,4.713c-2.115,2.798-2.666,4.612,2.176,5.331c-5.411,1.774-6.081,5.224-8.523,10.446
			l-3.222,2.523c0.493-0.386,3.762,7.194,7.312,13.93c-7.174,7.013-0.833,22.456-1.617,22.277l4.513,1.031l10.332-0.065l1.417,5.039
			c0.57,2.026,2.571,3.554,5.378,2.539c4.6-1.663,2.617-11.793,2.766-20.251c0.004-0.242-0.165-0.579-0.284-0.918
			c-0.603-0.44-1.3-0.685-2.026-0.698c0.12-1.665-1.884-2.766-2.887-3.693l7.437-16.401l8.721-0.92
			c-0.083,1.926-0.433,2.41,0.222,3.132c0.54,0.594,2.466,2.998,2.753,1.939c-0.044,1.792,0.36,5.159-0.334,6.615
			c13.18,1.605,6.593,13.78,11.458,29.815l5.801,1.408c0.506,2.743-0.875,6.254,2.287,9.079c-2.605,0.255-1.814,2.872-1.751,4.1
			c0.049,0.965,0.812,2.722,1.628,4.005l19.386,30.47c-0.499,2.977,2.103,4.46,0.932,5.232l-4.184,2.877l8.059,4.942l2.303,3.246
			c0.475,0.67,0.682-1.333,2.929-2.159c11.921,12.578,44.763,20.167,61.791,20.358c34.13,0.383,68.06-7.654,100.978-14.64
			c-2.738,4.639-6.996,6.599-10.838,10.297c-43.104,41.492-100.665,66.076-160.288,46.345c5.775-14.413,10.922-46.395,7.854-50.21
			c-10.376-12.904-30.751-21.099-32.159-13.934l-1.176,5.984c-11.034,9.339-25.125,14.02-38.776,17.48
			c-12.428-13.847-21.928-27.895-32.024-42.7c-2.46-3.608-5.518-7.543-9.528-8.165l3.509,8.832c-3.42-3.364-9.26,1.122-12.586,0.15
			c-9.213-2.693-13.735-13.995-16.015-22.85c-6.352-24.663,3.277-53.914,12.732-53.466c6.9,0.327,10.778-0.615,14.194-7.073
			c11.428-21.609,21.315-44.137,35.616-64.248c1.2,1.115,2.176,1.406,3.057,2.045c1.515,1.099-1.745,2.684-0.641,4.416
			c0.631,0.99,1.762,1.814,2.242,2.121c1.554,0.996-2.132,2.625-1.32,2.876l3.428,1.058L356.834,441.411z M320.617,530.53
			c-2.949-4.92-1.524-9.307,0.081-12.539c1.134-4.014-0.784-5.381-2.866-2.633c-3.419,7.143-4.005,15.061,2.317,19.832
			c1.035,0.781,2.615-1.078,2.002-2.1L320.617,530.53z M294.523,517.664c-6.4,7.899-7.109,17.452-0.861,24.013
			c2.889-1.947,0.293-5.529,0.341-7.091L294.523,517.664z M301.763,551.629c-1.671-6.843-1.543-10.328,2.628-12.807
			c-1.257-4.521,2.477-8.007-2.744-9.279l-4.406,12.932C295.863,546.521,298.055,550.041,301.763,551.629z M338.815,550.896
			c-6.073-5.096-8.573-10.2-6.916-17.061c-0.511-2.324,1.012-4.551-3.23-3.4C325.85,537.969,327.757,551.576,338.815,550.896z
			 M357.809,541.448l-4.155-1.224c-2.512,9.555,4.068,18.611,13.549,18.812c0.962-3.051-1.638-2.008-2.365-3.327
			c0.939-7.791,1.858-15.867-1.401-19.421c-1.622-1.769-2.616-0.619-4.31,0.755C358.211,537.785,358.655,540.158,357.809,541.448z
			 M313.07,538.674c-4.34,6.879-1.082,14.711,6.571,15.918C315.318,549.043,314.499,545.585,313.07,538.674z M345.14,549.489
			c-5.886,1.507-4.194,8.442-2.854,12.533c1.277,3.898,3.382,9.708,10.134,7.254C345.234,565.102,343.478,557.496,345.14,549.489z
			 M374.708,583.622c-9.828-2.967-16.471-9.681-13.918-20.151c-6.455,4.212-4.1,11.395-0.148,15.674
			C363.688,582.443,369.057,587.343,374.708,583.622z M461.793,643.606l-13.686-3.284c-0.002,3.311,2.863,5.232,5.598,5.618
			C456.39,646.32,460.627,647.188,461.793,643.606z M442.237,644.047c-5.35-0.209-9.159-1.212-15.79-3.008
			c-0.284,4.045,4.333,5.707,7.622,6.323C436.298,647.779,439.77,647.769,442.237,644.047z"/>
		<path style="fill:#DE7C35;" d="M255.032,451.873c13.022,8.835,38.657,42.133,38.657,42.363c0.001,1.893-2.897,1.815-4.053,3.587
			c-13.866,21.241-13.987,49.67-0.829,71.483c2.933,4.862,6.591,7.779,12.384,9.789l-21.566,45.444
			c-9.388,19.781-21.92,36.622-38.89,48.97c-2.428-1.247-5.075,0.051-6.788-1.518c0.93-2.398,3.013-2.726,2.67-3.336l-2.161-3.086
			c21.983-20.563,36.548-46.476,51.093-73.074c0.61-1.116,2.992-1.42,1.268-2.447c-0.473-0.281-1.185-0.822-1.897-0.774
			c-2.244,0.149-22.06,38.803-37.059,56.57c-1.612-0.483-2.506-0.845-2.55-1.503l-0.271-3.975
			c-0.332-4.871,4.454-13.346,1.988-13.766c-0.765-2.526-1.202-3.769,0.566-5.093l4.507-3.374l32.403-43.292
			c0.447-0.597,2.53-0.513,2.744-1.183c0.277-0.867-0.034-2.383-0.907-2.654c-0.901-0.28-2.858,0.837-3.685,1.9l-35.215,45.256
			c-2.381,0.156-2.482-1.738-2.243-3.513l2.262-16.829c0.458-3.405,3.637-5.203,4.248-9.003c-0.53-1.054-3.477-0.967-2.898-2.643
			c0.291-0.843-0.026-2.515,0.763-2.161c1.236,0.554,3.433,0.225,3.151-0.312l-3.25-4.784c1.401-1.071,1.348-2.905,3.724-1.555
			c8.019-10.246,23.133-15.663,20.901-18.198c-0.54-0.613-2.023-0.853-3.33,0.078l-19.631,13.967
			c-7.514-2.626,4.271-12.73-4.654-16.926l5.002-3.706l-3.229-15.844l18.304,2.268c1.269,0.157,3.723,1.857,5.114,1.529
			c1.142-0.27,3.171-3.322,1.592-3.519l-25.6-3.199c3.399-8.373-16.05-8.916-7.932-17.689l3.685-0.367
			c9.393,2.318,14.991,10.02,25.465,8.903c-8.879-6.235-18.145-9.058-26.886-12.371c-3.833-1.453-6.561-4.051-8.053-7.011
			c-1.749-3.468-0.467-8.32,2.904-9.576l35.734,22.364l2.416,1.947c0.648,0.522,1.489-0.107,1.96-0.731
			c1.015-1.346,1.004-3.418-1.296-2.633c-14.027-10.282-28.257-20.165-43.954-26.668l-1.159,1.121
			c0.332,0.752,0.276,1.643,0.275,2.281l-12.726-6.594c-1.206-0.625-0.018-2.524,0.455-2.859c0.474-0.336,0.978,0.637,2.463,0.939
			c2.599-4.923-1.983-9.711-5.287-13.117c-1.319-1.36-1.284-3.927-1.874-4.866c-0.394-0.626,1.972-1.515,2.652-1.884
			c20.624,8.793,38.284,23.145,54.723,39.697c2.585,2.603,5.381,6.398,9.774,5.642c-18.304-20.668-39.152-38.226-64.073-49.138
			c-2.14-3.14-7.217-0.124-6.171-5.96c-2.386-4.297-9.866-7.946-10.237-14.806c5.927-2.112,11.234,0.911,16.12,3.487
			c24.763,13.056,44.132,33.616,62.504,56.025c0.9,1.097,3.342,2.075,3.857,1.504s1.197-1.617,1.014-2.359
			c-0.236-0.955-2.552-0.494-3.419-1.734c-16.696-23.898-36.929-42.802-61.646-55.785c0.59-2.241,1.614-4.45,3.642-7.137
			c8.256,3.105,16.107,7.261,21.521,13.203C247.372,451.207,252.65,450.257,255.032,451.873z M281.264,564.054
			c-9.284,5.344-15.508,12.404-22.725,19.699C265.617,585.574,274.263,573.322,281.264,564.054z"/>
		<path style="fill:#DE7C35;" d="M255.032,451.873c-2.382-1.616-7.661-0.666-10.915-4.237c-5.414-5.942-13.265-10.098-21.521-13.203
			c-2.027,2.687-3.052,4.896-3.642,7.137c-0.695-0.32-1.63-0.708-2.02-0.271c-0.391,0.437,0.606,0.87-0.29,2.621
			c-4.886-2.576-10.192-5.599-16.12-3.487c0.371,6.86,7.85,10.509,10.237,14.806c-1.046,5.835,4.031,2.82,6.171,5.96
			c-0.486-0.213-1.386,0.167-2.252,0.123l-2.973,0.457l4.801,3.22c-0.68,0.369-3.046,1.258-2.652,1.884
			c0.591,0.939,0.555,3.507,1.874,4.866c3.305,3.406,7.886,8.195,5.287,13.117c-1.485-0.302-1.989-1.275-2.463-0.939
			c-0.473,0.336-1.661,2.234-0.455,2.859l12.726,6.594l6.024,2.319c-3.371,1.255-4.654,6.107-2.904,9.576
			c1.493,2.96,4.221,5.558,8.053,7.011c-2.328,0.446-1.92,2.716-2.264,3.835c-8.118,8.773,11.331,9.316,7.932,17.689l-10.417,0.393
			l0.024,2.635l10.982-0.106l3.229,15.844l-5.002,3.706c8.925,4.196-2.859,14.3,4.654,16.926l-20.887,16.871
			c1.318,1.528,2.64,2.364,3.221,1.764c1.077-1.114,2.993-2.981,3.929-3.697l12.072-9.23l3.25,4.784
			c0.283,0.537-1.915,0.866-3.151,0.312c-0.789-0.354-0.471,1.319-0.763,2.161c-0.579,1.675,2.368,1.589,2.898,2.643
			c-0.611,3.8-3.79,5.598-4.248,9.003l-2.262,16.829c-0.239,1.775-0.138,3.669,2.243,3.513l-21.732,22.01
			c-0.927,0.939-1.027,2.115-1.206,2.664c-0.196,0.603,1.015,1.433,2.261,2.51l13.937-14.372c2.018-2.08,3.404-5.205,6.326-4.373
			c2.466,0.42-2.319,8.895-1.988,13.766l0.271,3.975c0.045,0.658,0.938,1.019,2.55,1.503c-6.384,7.562-11.609,16.065-21.1,21.998
			c3.662,2.206,6.178-0.854,7.695-2.272l2.161,3.086c0.343,0.609-1.74,0.938-2.67,3.336c1.714,1.57,4.36,0.271,6.788,1.518
			c-19.267,14.02-42.771,23.842-37.108,12.648l7.557-14.937c-5.069-7.963-1.736-15.22,4.168-22.657
			c-6.747-9.062-5.654-19.032,0.943-27.609c-3.394-11.237,0.997-21.171,10.498-28.742c-7.687-13.796,1.396-18.116,5.607-29.99
			c-9.965-10.149,8.197-17.245-14.423-42.517c-4.57-5.106-3.366-12.71-5.379-17.501c-7.938-7.71-15.672-15.247-10.852-26.954
			c-9.34-4.924-13.103-12.706-10.234-22.406c-8.445-5.41-11.014-13.013-10.544-22.068c-3.331-3.389-10.197-7.932-7.855-12.944
			c2.788-5.969,12.67-4.163,18.286-2.984C216.113,420.038,237.359,434.639,255.032,451.873z"/>
		<path style="fill:#DE7C35;" d="M397.755,594.453c9.172,3.547,21.206,8.939,25.604,18.282c-2.789,7.18-5.252,15.985-6.904,23.173
			c-10.396,45.236-43.147,84.998-89.949,92.932l-2.076-3.43l3.017-11.343c-7.953-3.048-3.664-9.552-4.39-13.911
			c-0.831-4.988-8.446-8.281-4.673-14.744c-3.201-4.999-2.42-10.579-0.366-15.17c-3.944-2.938-0.641-6.729,1.127-9.275
			l-3.554-10.816l10.826-10.842l12.599-7.211c-0.785,1.277,1.703,2.202,3.072,2.766c3.082-0.68,9.706-1.804,12.403-4.534
			c3.912-3.96,7.022-3.163,10.814-4.061c8.248-1.954,13.822-9.955,22.547-10.617c-17.387,17.663-39.304,24.58-59.076,38.622
			c22.32-7.118,41.561-20.12,59.58-33.648l5.544-7.44c-2.717-0.588-7.289,5.569-7.644-0.645l-21.883,10.873
			c-1.539,0.765-5.477-1.166-4.526-2.215l28.101-14.673C392.965,603.906,396.078,601.042,397.755,594.453z M393.334,621.832
			c-21.143,18.88-43.75,36.64-68.709,52.716c-0.898,3.66-0.032,3.13,3.224,1.785l29.613-20.466
			C370.694,646.721,384.41,637.831,393.334,621.832z M407.713,627.082c-4.103-1.469-5.261,2.688-6.344,4.846
			c-12.819,25.548-28.897,47.32-51.304,66.178c7.194,1.132,10.342-5.483,14.71-9.045c11.134-9.079,25.201-29.042,31.439-40.625
			L407.713,627.082z M377.872,655.844c2.796-2.89,5.632-5.664,8.044-8.865l9.383-12.453c1.532-2.033,1.236-2.277,1.112-3.673
			c-0.051-0.575-1.373-1.962-2.019-1.067c-16.385,22.714-35.583,42.612-58.075,59.642c-1.376,1.042-2.316,1.722-1.469,2.843
			c0.623,0.825,2.17,2.479,2.452,0.726c0.304-1.885,0.559-1.127,1.787-2.08l19.512-15.145L377.872,655.844z M407.471,638.174
			c-9.255,18.729-18.332,34.463-29.99,50.763c-0.917,1.282,2.394,2.312,2.963,1.697c0.725-0.783,0.702-2.542,1.376-3.413
			l10.063-13.002C397.306,661.932,408.338,652.754,407.471,638.174z"/>
		<path style="fill:#DE7C35;" d="M412.964,281.727c4.534-2.097,3.831-10.714,7.336-13.736c5.219-4.499,9.463-8.173,13.14-14.66
			l5.938-5.251c5.482-10.121,28.638,8.732,40.578,25.54c12.128,17.073,19.964,35.891,25.174,56.941
			c-21.551-2.766-42.935,2.161-62.793,9.247c-0.543-1.583-3.26-2.787-5.061-2.659c-1.523-7.775-15.073-23.671-17.925-25.781
			l13.727-8.949c8.61,8.057,13.023,20.101,19.733,30.811c1.913-0.035,1.579-2.309,1.743-3.44
			c0.503-3.478-22.15-41.097-39.639-46.312C414.783,282.585,414.547,281.787,412.964,281.727z M482.89,321.045
			c0.627,2.174,1.524,4.294,2.605,5.472c9.124,9.946-10.548-53.717-40.165-72.088C461.561,274.714,475.456,295.255,482.89,321.045z
			 M433.597,272.542c16.465,16.096,24.155,35.355,35.258,56.139C467.159,312.267,447.273,275.483,433.597,272.542z"/>
		<path style="fill:#DE7C35;" d="M574.802,621.108c15.036,39.169,10.678,80.639-25.352,102.159
			c-2.728-1.751-2.289-5.612-2.949-7.058c-1.076-2.356-5.078-2.169-8.229-2.211c-0.867-7.426-8.938-8.993-12.801-13.097
			c-3.052-3.242-0.278-12.597-10.061-12.906l-1.018-15.378c-0.326-4.93,3.897-13.526,8.421-16.149l24.873-14.425
			c-3.646,17.866-11.923,31.865-22.574,47.387c3.193,1.428,5.588-1.626,7.141-4.273l10.962-18.677l6.013-17.638
			c0.696-2.042,1.174-4.373-2.025-7.666C557.109,635.863,564.61,628.071,574.802,621.108z M574.293,637.041
			c-0.639-1.923,0.752-4.53-1.135-5.669c-1.062-0.641-1.082-3.897-4.077-2.305c5.24,16.917,6.819,33.096,3.227,50.119
			c-0.42,1.993,1.392,3.429,2.474,2.655C576.465,680.636,580.069,654.419,574.293,637.041z M566.78,641.355
			c2.579-2.652-0.781-5.37-3.774-5.829c4.431,19.102-0.47,38.097-5.433,57.014c4.268,0.172,4.737-3.711,5.176-5.49
			C566.407,672.229,569.819,657.787,566.78,641.355z M539.652,699.276c9.275-13.002,14.018-28.034,17.705-43.693
			c0.774-3.289,2.501-7.435-1.494-11.244c-2.595,20.162-8.594,38.562-19.939,55.266c0.333,1.333,1.99,2.412,2.607,2.324
			C539.282,701.821,539.266,699.816,539.652,699.276z M530.643,662.076c5.093-0.533,3.899-2.378,0.105-3.211
			c-4.11,5.15-8.744,10.472-11.268,17.35C525.229,673.617,530.749,668.171,530.643,662.076z"/>
		<path style="fill:#FEFEFE;" d="M622.895,498.405c-6.283,6.551-13.508,10.662-21.423,10.224
			c-32.877-1.821-37.366-62.062-22.179-76.108c6.318-5.843,14.354-7.973,22.953-5.663c14.959,4.02,25.502,15.89,29.462,28.918
			C636.291,470.847,633.962,486.865,622.895,498.405z M597.427,491.011c8.6-3.559,9.869-14.441,5.769-20.615
			c-4.483-6.751-13.359-9.728-20.487-4.349c-5.686,4.291-5.646,12.777-2.692,18.538C582.77,489.957,590.198,494.002,597.427,491.011
			z"/>
		<path style="fill:#DE7C35;" d="M403.762,322.36c-2.757,0.141-3.668,0.205-1.372,2.952l4.401,4.8
			c-4.972,2.358-8.458,6.054-11.346,10.798c-1.909-1.935-4.241-2.672-6.907-2.586c0.703,2.509,2.372,3.255,3.605,4.301
			l-12.918,13.594c-2.927-1.339-5.222-4.168-9.927-3.077c2.238,2.761,4.603,4.409,7.058,5.514
			c-6.768,4.969-16.847,12.491-18.086,16.869c-0.92-0.238-1.358-1.425-2.3-0.04l-1.393,1.045c0.549,0.382,1.388,0.502,1.253,1.476
			c-0.892,6.851-8.18,7.598-7.407,13.687c-1.391,1.152-3.637,0.724-4.831,3.179c6.48,0.975,11.392,1.75,17.055,3.989
			c-1.047,4.04-5.247,10.395-10.069,10.382c-5.559-0.015-9.661-2.611-13.913-0.554c-1.836-7.728-0.442-13.617,6.295-16.46
			c-0.075-6.963-0.872-13.904,6.39-16.812c3.908-20.041,23.901-30.616,22.941-37.175c-0.692-4.729,6.027-5.036,7.389-9.116
			c2.161-6.473,5.017-12.009,11.211-14.689L403.762,322.36z"/>
		<path style="fill:#DE7C35;" d="M432.855,680.932c-1.335,1.979-3.698,2.471-2.655,5.312l4.769,2.697
			c-3.99,4.515-9.959,6.955-12.322,13.433c9.786-4.167,14.664-13.041,22.401-18.957c1.85-1.415,0.66-2.958,1.869-4.572
			c1.882,0.736,4.302-1.986,4.409-2.963l0.49-5.483l17.96-0.323c-0.898,1.169,0.112,1.974,1.41,3.3
			c1.25,1.277-0.409,3.213-1.653,2.795c-1.54-2.564-2.809-0.78-3.782,0.768c-8.655,17.083-19.065,32.242-32.953,45.351
			c1.176,1.559,2.476,0.169,3.252,0.471c0.414,1.576-1.583,1.456-1.765,2.484c-0.136,0.768,1.393,1.053,1.629,2.261
			c-5.373,3.436-11.667,7.512-19.067,7.48l3.177-16.595c0.703-3.675-4.327-8.104-0.228-13.223
			c-4.501-5.764-3.173-13.204,1.223-18.466c-2.517-5.224-2.13-10.483,2.893-13.078c1.647-2.218,4.404-5.172,6.621-5.388
			c2.943-0.287,7.142,0.861,8.969,1.89c-4.202,3.886-6.275,6.789-10.102,8.174C430.814,680.258,431.422,680.77,432.855,680.932z
			 M430.71,713.211c12.47-11.439,25.196-23.112,28.487-38.66c-11.626,14.897-20.01,28.734-33.172,39.287
			c1.299,1.951,2.216,3.197,2.652,2.521L430.71,713.211z"/>
		<path style="fill:#1F1E1E;" d="M676.276,613.234"/>
		<path style="fill:#DE7C35;" d="M437.277,337.148c1.801-0.127,4.517,1.076,5.061,2.659c-17.348,6.19-32.711,16.434-49.006,28.268
			c-4.368-4.424-8.487-9.287-14.106-11.857l12.918-13.594l15.771,13.368c-0.645-6.928-7.993-10.546-12.469-15.083
			c2.888-4.744,6.374-8.44,11.346-10.798l13.907,16.183c1.489-1.226,2.406-1.037,3.09-1.202c1.618-0.389,0.351-1.151,0.078-1.767
			c-0.277-0.624-1.777-0.833-2.538-1.726l-13.244-15.54l10.094-10.739L437.277,337.148z"/>
		<path style="fill:#DE7C35;" d="M419.352,311.367c2.852,2.11,16.402,18.006,17.925,25.781l-19.098-21.827l-10.094,10.739
			c-1.076-1.262-2.641-2.564-4.323-3.7l-12.872-7.922l3.485-7.652c1.121-2.462,4.643-7.412,7.692-6.797
			C408.373,301.679,414.303,307.631,419.352,311.367z"/>
		<path style="fill:#DE7C35;" d="M414.916,283.477c0.312,2.08,1.256,3.241,3.495,5.029l13.089,10.453
			c0.754,0.602,0.499,2.448,1.579,3.46l-13.727,8.949c-5.049-3.736-10.979-9.688-17.284-11.378l3.04-9.687
			c1.769-5.172,4.37-6.962,7.857-8.575C414.547,281.787,414.783,282.585,414.916,283.477z"/>
		<path style="fill:#DE7C35;" d="M358.271,375.526c1.238-4.378,11.317-11.9,18.086-16.869c5.594,2.519,10.275,6.822,14.447,11.339
			l-15.063,13.351C370.133,379.974,364.24,377.071,358.271,375.526z"/>
		<path style="fill:#DE7C35;" d="M435.913,727.506c-0.236-1.208-1.764-1.493-1.629-2.261c0.182-1.028,2.179-0.907,1.765-2.484
			c15.159-12.563,25.987-29.034,33.484-46.591c1.244,0.418,2.903-1.517,1.653-2.795c-1.298-1.326-2.308-2.132-1.41-3.3l6.582-0.327
			C471.222,694.161,456.267,714.491,435.913,727.506z"/>
		<path style="fill:#DE7C35;" d="M330.766,442.137c-5.265-4.757-3.238-12.117,2.629-16.183c-2.923-2.675-4.333-6.298-3.318-8.807
			c0.795-1.965,1.471-6.081,4.831-6.904c4.536-1.11,9.903,2.023,15.791,2.476L330.766,442.137z"/>
		<path style="fill:#DE7C35;" d="M546.368,352.226c-8.537,0.02-18.62,2.622-25.855-3.238c-9.14-7.403-25.19-7.187-24.889-13.854
			C514.017,335.394,531.395,343.898,546.368,352.226z"/>
		<path style="fill:#77B5D1;" d="M676.276,613.234"/>
		<path style="fill:#DE7C35;" d="M348.423,391.694c-0.772-6.089,6.515-6.836,7.407-13.687c6.403,0.953,11.866,4.477,18.823,7.788
			c-4.903,3.382-7.166,6.615-11.311,11.64C358.635,393.498,353.141,393.208,348.423,391.694z"/>
		<path style="fill:#DE7C35;" d="M451.816,670.398l-0.49,5.483c-0.107,0.977-2.528,3.699-4.409,2.963
			c-0.604-0.613-0.741-0.671-1.177-0.78c-0.977-0.244-2.203,1.18-2.711,1.754l-8.061,9.123l-4.769-2.697
			c-1.043-2.84,1.321-3.333,2.655-5.312C437.818,673.573,443.372,670.55,451.816,670.398z"/>
		<path style="fill:#77B5D1;" d="M681.647,633.733"/>
		<path style="fill:#1F1E1E;" d="M442.215,464.178c2.708-19.546,12.755-34.74,30.668-40.975c15.472-5.385,33.787-8.845,48.549,1.129
			c21.814,14.74,24.992,43.306,14.466,65.82c-9.232,19.747-22.546,33.092-42.522,41.781c-15.725,6.84-37.157,4.839-48.404-11.638
			c15.141,8.949,29.926,15.196,46.271,9.17c-13.728-1.032-27.229-2.88-35.038-14.262c19.194,10.516,38.899,13.003,55.361-0.453
			c-5.078-1.476-9.636,1.732-14.132,2.063c-15.694,1.155-30.249-2.553-41.08-12.451
			C445.551,494.492,440.058,479.742,442.215,464.178z M463.975,503.296c16.518,11.532,36.782,10.538,52.041,0.422
			c15.598-10.34,23.693-28.249,19.915-47.371c-4.849-24.547-27.727-37.535-51.257-32.188c-17.582,3.996-30.829,14.246-35.37,32.087
			C444.997,473.178,448.086,492.203,463.975,503.296z"/>
		<path style="fill:#1F1E1E;" d="M580.242,582.608c-28.574-30.78-77.615,8.034-83.799,5.385
			c-7.948-3.405,22.535-59.535,74.528-47.27C574.441,554.654,579.8,565.964,580.242,582.608z M519.505,558.278
			c-9.094,3.908-13.575,13.88-16.811,21.233c11.492-4.069,19.235-9.118,31.122-12.372
			C531.06,564.18,525.191,556.626,519.505,558.278z M538.162,566.119c3.159,1.713,6.751-1.287,10.015-0.751
			c-4.397-6.138-10.034-8.354-15.828-7.429C533.694,561.068,535.18,564.501,538.162,566.119z"/>
		<path style="fill:#1F1E1E;" d="M512.017,379.627c2.734-3.836,8.096,1.823,8.381,4.213c2.023,16.966-32.405,30.532-53.785,33.01
			l-14.822,4.181C461.635,396.451,489.432,411.312,512.017,379.627z"/>
		<path style="fill:#1F1E1E;" d="M406.781,435.163l2.476,0.244c-0.498,0.378-0.433,0.883-0.383,1.402l1.389,14.512
			c0.702,7.334-2.001,15.585-8.817,18.612c-3.592,1.595-6.686-0.772-8.423-2.228c-8.513-7.137-1.416-29.64,11.214-39.379
			l-10.892,23.256c-2.203,4.369-1.288,14.643,5.459,13.934C411.958,464.133,401.601,442.122,406.781,435.163z"/>
		<path style="fill:#FEFEFE;" d="M406.781,435.163c-5.18,6.959,5.177,28.969-7.978,30.352c-6.747,0.709-7.662-9.565-5.459-13.934
			l10.892-23.256c0.484-0.373,1.569-0.438,3.213-1.006C407.454,429.905,408.32,433.095,406.781,435.163z"/>
		<path style="fill:#1F1E1E;" d="M395.632,541.945c-3.162-2.825-1.781-6.335-2.287-9.079c-1.365-7.399,2.602-18.345,8.608-19.056
			l-4.579,11.313c-1.631,4.029-1.985,14.747,4.309,14.597c13.439-0.321,3.968-22.418,4.506-36.719
			c-0.773-0.426,2.576-2.582,2.702-1.786c2.84,17.981,8.988,32.324-1.918,41.622C403.667,545.655,399.277,544.421,395.632,541.945z"
			/>
		<path style="fill:#FEFEFE;" d="M401.953,513.81c-1.433-3.853,0.178-9.754,4.236-10.809c-0.537,14.301,8.934,36.398-4.506,36.719
			c-6.294,0.15-5.94-10.568-4.309-14.597L401.953,513.81z"/>
		<path style="fill:#1F1E1E;" d="M567.932,527.851c-16.684-4.728-26.24,6.25-36.077,5.049c9.335-6.897,19.487-10.623,29.879-10.924
			c11.858-0.344,20.979,7.608,21.787,19.828c0.093,1.402-1.931,1.71-3.959,1.892C579.425,536.62,575.497,529.995,567.932,527.851z"
			/>
		<path style="fill:#1F1E1E;" d="M435.995,540.87l2.175,1.38c-0.377,0.329-0.231,0.688-0.122,1.121
			c1.446,5.776,4.482,11.794,2.796,18.223c-1.128,4.302-5.436,8.187-8.68,8.405c-4.455,0.3-8.376-4.529-8.993-8.95
			c-1.023-7.34,2.213-13.565,4.508-19.819c-0.382-0.972-0.525-1.96,0.902-1.684c0.481,0.335,1.271,0.383,1.874-0.124
			c-1.779,12.437-7.311,25.257,0.963,25.815C440.709,565.864,434.728,551.211,435.995,540.87z"/>
		<path style="fill:#1F1E1E;" d="M571.361,593.887c-24.195-13.792-41.327,4.254-44.344,1.585c-1.157-1.023-0.12-1.671,1.23-3.229
			C538.197,580.767,566.919,577.369,571.361,593.887z"/>
		<path style="fill:#FEFEFE;" d="M435.995,540.87c-1.267,10.341,4.714,24.994-4.575,24.367c-8.274-0.558-2.742-13.378-0.963-25.815
			c0.466-3.257,0.929-6.967,4.061-10.325C435.45,533.904,436.376,537.76,435.995,540.87z"/>
		<path style="fill:#1F1E1E;" d="M615.707,517.49c0.276,3.332-5.607,7.727-10.214,8.607c-9.834,1.879-20.018-5.631-25.104-14.548
			c4.285-2.805,6.472,2.386,9.399,3.597C597.366,520.928,604.644,521.999,615.707,517.49z"/>
		<path style="fill:#1F1E1E;" d="M355.454,492.208c-0.307,4.55-1.968,11.557,1.833,15.07c1.003,0.927,3.007,2.028,2.887,3.693
			c-6.218,6.116-4.074,14.393-0.456,21.867c-2.807,1.015-4.809-0.514-5.378-2.539l-1.417-5.039
			c-1.23-4.374,1.561-9.946,3.057-14.169c-3.55-5.059-7.135-10.516-3.291-17.758C350.566,489.698,353.29,490.487,355.454,492.208z"
			/>
		<path style="fill:#DE7C35;" d="M355.454,492.208c2.271-3.004,3.2-7.1,7.923-9.213c1.361-0.609,3.093,2.377,2.765,3.411
			l-1.418,4.471l-7.437,16.401C353.487,503.764,355.148,496.757,355.454,492.208z"/>
		<path style="fill:#1F1E1E;" d="M482.759,584.432c2.169,4.461-4.732,10.962,2.484,16.825c2.961,2.406,7.396,1.091,13.19,0.285
			c-3.395,6.346-13.066,5.925-17.008,2.212C475.442,598.121,476.429,589.446,482.759,584.432z"/>
		<path style="fill:#1F1E1E;" d="M517.678,366.915c12.954,3.605,18.389,17.956,12.375,28.871
			c-1.459-25.853-14.91-25.657-15.104-26.018C514.523,368.978,514.062,365.909,517.678,366.915z"/>
		<path style="fill:#DE7C35;" d="M541.747,370.901c-2.314-3.902-10.935-7.257-9.543-13.281c0.788-3.411,7.483-0.757,8.803,1.231
			C542.89,361.69,545.448,365.492,541.747,370.901z"/>
		<path style="fill:#DE7C35;" d="M366.642,457.554l6.43,1.038l-12.06,16.18c-2.635-2.536,0.314-4.827,0.119-7.067
			C359.482,462.111,365.723,461.822,366.642,457.554z"/>
		<path style="fill:#DE7C35;" d="M373.227,422.599c-6.557,4.719-8.164,9.941-8.099,18.311c-4.108-3.256-4.021-8.242-2.757-11.675
			C363.684,425.669,365.769,419.607,373.227,422.599z"/>
		<path style="fill:#DE7C35;" d="M443.337,362.376l-8.005,13.417c-3.134-1.036-2.298-7.191-1.127-10.074
			c0.89-2.191,3.397-3.966,7.254-6.404C444.54,357.049,447.25,360.697,443.337,362.376z"/>
		<path style="fill:#DE7C35;" d="M462.596,355.505l-8.827,10.928c-2.919-7.553,3.58-14.037,9.453-16.605
			C466.468,352.819,462.58,352.685,462.596,355.505z"/>
		<path style="fill:#DE7C35;" d="M356.834,441.411c0.348-0.724,1.414,0.024,1.973,1.128c-5.53,4.918-6.414,10.077-6.46,17.533
			c-5.208-0.919-1.995-4.817-2.309-6.739C347.701,448.025,352.32,443.663,356.834,441.411z"/>
		<path style="fill:#1F1E1E;" d="M366.642,457.554c-0.919,4.268-7.161,4.557-5.511,10.151c0.195,2.24-2.754,4.531-0.119,7.067
			l-4.226-0.189C356.249,463.556,362.744,453.004,366.642,457.554z"/>
		<path style="fill:#1F1E1E;" d="M563.641,395.522c-6.615-5.196-5.368-13.482-0.022-19.088L563.641,395.522z"/>
		<path style="fill:#DE7C35;" d="M402.389,385.608c-5.63,4.495-7.938,8.122-7.948,14.771c-4.857-2.636-3.601-7.367-1.879-10.653
			C393.893,387.187,397.351,382.777,402.389,385.608z"/>
		<path style="fill:#DE7C35;" d="M424.609,400.112c-4.566-3.66-1.407-6.929-0.404-10.65c1.011-3.751,5.167-6.438,9.879-5.789
			C429.859,389.223,425.715,392.237,424.609,400.112z"/>
		<path style="fill:#DE7C35;" d="M418.456,379.051c-1.822-3.288-1.833-6.142-0.805-9.008c0.849-2.367,2.342-5.632,7.965-5.541
			C424.868,370.191,423.356,375.361,418.456,379.051z"/>
		<path style="fill:#DE7C35;" d="M377.837,413.064c-2.061-6.496,3.071-13.457,9.761-13.65
			C385.091,404.109,382.639,408.319,377.837,413.064z"/>
		<path style="fill:#1F1E1E;" d="M550.665,372.045c-0.018-1.538,1.874-2.9,2.365-3.184c1.053-0.611,1.643,0.658,2.114,1.477
			c0.785,1.366-1.565,2.251-1.574,3.357l-0.105,13.269l-2.628,0.027L550.665,372.045z"/>
		<path style="fill:#DE7C35;" d="M374.139,446.382c-3.01-5.282-2.551-12.994,4.895-15.621L374.139,446.382z"/>
		<path style="fill:#DE7C35;" d="M364.838,555.708c-5.522-2.65-7.872-8.481-7.029-14.26c0.847-1.29,0.402-3.663,1.318-4.406
			c1.694-1.373,2.688-2.523,4.31-0.755C366.695,539.841,365.776,547.917,364.838,555.708z"/>
		<path style="fill:#DE7C35;" d="M359.718,532.838c-3.618-7.474-5.762-15.751,0.456-21.867c0.726,0.013,1.422,0.258,2.026,0.698
			c-0.141,0.324-0.089,0.621,0.284,0.918C362.335,521.045,364.318,531.175,359.718,532.838z"/>
		<path style="fill:#1F1E1E;" d="M374.708,583.622c-5.651,3.721-11.02-1.179-14.066-4.477c-3.951-4.279-6.307-11.462,0.148-15.674
			C358.238,573.941,364.88,580.655,374.708,583.622z"/>
		<path style="fill:#1F1E1E;" d="M338.815,550.896c-11.058,0.68-12.965-12.927-10.146-20.461c4.242-1.151,2.719,1.076,3.23,3.4
			C330.243,540.696,332.742,545.8,338.815,550.896z"/>
		<path style="fill:#1F1E1E;" d="M357.809,541.448c-0.843,5.779,1.507,11.611,7.029,14.26c0.727,1.32,3.327,0.277,2.365,3.327
			c-9.481-0.201-16.061-9.257-13.549-18.812L357.809,541.448z"/>
		<path style="fill:#1F1E1E;" d="M301.763,551.629c-3.709-1.587-5.901-5.107-4.522-9.154l4.406-12.932
			c5.22,1.272,1.487,4.758,2.744,9.279C300.221,541.3,300.093,544.785,301.763,551.629z"/>
		<path style="fill:#1F1E1E;" d="M294.523,517.664l-0.52,16.922c-0.048,1.562,2.548,5.144-0.341,7.091
			C287.414,535.116,288.124,525.563,294.523,517.664z"/>
		<path style="fill:#1F1E1E;" d="M320.617,530.53l1.534,2.56c0.613,1.022-0.967,2.881-2.002,2.1
			c-6.322-4.771-5.737-12.689-2.317-19.832c2.083-2.748,4-1.381,2.866,2.633C319.093,521.223,317.668,525.61,320.617,530.53z"/>
		<path style="fill:#1F1E1E;" d="M345.14,549.489c-1.662,8.007,0.094,15.613,7.279,19.786c-6.751,2.454-8.857-3.356-10.134-7.254
			C340.946,557.93,339.254,550.996,345.14,549.489z"/>
		<path style="fill:#1F1E1E;" d="M442.237,644.047c-2.467,3.722-5.939,3.732-8.168,3.315c-3.289-0.616-7.906-2.278-7.622-6.323
			C433.078,642.835,436.888,643.838,442.237,644.047z"/>
		<path style="fill:#1F1E1E;" d="M313.07,538.674c1.429,6.912,2.247,10.369,6.571,15.918
			C311.988,553.385,308.73,545.552,313.07,538.674z"/>
		<path style="fill:#1F1E1E;" d="M461.793,643.606c-1.166,3.582-5.403,2.713-8.088,2.334c-2.735-0.386-5.6-2.307-5.598-5.618
			L461.793,643.606z"/>
		<path style="fill:#1F1E1E;" d="M247.028,626.599c-2.922-0.832-4.308,2.293-6.326,4.373l-13.937,14.372
			c-1.247-1.077-2.457-1.907-2.261-2.51c0.178-0.549,0.279-1.726,1.206-2.664l21.732-22.01l35.215-45.256
			c0.827-1.063,2.784-2.18,3.685-1.9c0.873,0.271,1.185,1.787,0.907,2.654c-0.214,0.669-2.297,0.585-2.744,1.183l-32.403,43.292
			l-4.507,3.374C245.826,622.83,246.263,624.073,247.028,626.599z"/>
		<path style="fill:#1F1E1E;" d="M234.456,665.568c-1.517,1.419-4.033,4.478-7.695,2.272c9.491-5.933,14.716-14.435,21.1-21.998
			c14.999-17.767,34.815-56.42,37.059-56.57c0.712-0.047,1.424,0.493,1.897,0.774c1.724,1.027-0.658,1.331-1.268,2.447
			C271.005,619.093,256.439,645.005,234.456,665.568z"/>
		<path style="fill:#1F1E1E;" d="M218.955,441.569c24.717,12.983,44.95,31.887,61.646,55.785c0.866,1.24,3.183,0.779,3.419,1.734
			c0.183,0.742-0.499,1.787-1.014,2.359s-2.958-0.406-3.857-1.504c-18.372-22.409-37.741-42.968-62.504-56.025
			c0.896-1.751-0.1-2.184,0.29-2.621C217.325,440.861,218.26,441.25,218.955,441.569z"/>
		<path style="fill:#1F1E1E;" d="M216.508,464.997l-4.801-3.22c0.843-1.204,1.69-0.522,2.973-0.457
			c0.866,0.044,1.766-0.336,2.252-0.123c24.921,10.912,45.77,28.471,64.073,49.138c-4.393,0.756-7.189-3.039-9.774-5.642
			C254.792,488.142,237.133,473.791,216.508,464.997z"/>
		<path style="fill:#1F1E1E;" d="M236.85,495.698l-6.024-2.319c0.001-0.638,0.057-1.529-0.275-2.281
			c-0.411-0.932,0.232-1.505,1.159-1.121c15.696,6.503,29.927,16.386,43.954,26.668c2.3-0.785,2.311,1.287,1.296,2.633
			c-0.471,0.624-1.312,1.254-1.96,0.731l-2.416-1.947L236.85,495.698z"/>
		<path style="fill:#1F1E1E;" d="M249.474,578.914l-12.072,9.23c-0.936,0.716-2.852,2.583-3.929,3.697
			c-0.581,0.601-1.903-0.236-3.221-1.764l20.887-16.871l19.631-13.967c1.308-0.93,2.79-0.691,3.33-0.078
			c2.232,2.534-12.882,7.952-20.901,18.198C250.822,576.009,250.875,577.842,249.474,578.914z"/>
		<path style="fill:#1F1E1E;" d="M247.668,533.809l25.6,3.199c1.578,0.197-0.45,3.25-1.592,3.519
			c-1.392,0.328-3.845-1.371-5.114-1.529l-18.304-2.268l-10.982,0.106l-0.024-2.635L247.668,533.809z"/>
		<path style="fill:#1F1E1E;" d="M281.264,564.054c-7,9.268-15.646,21.521-22.725,19.699
			C265.756,576.458,271.98,569.398,281.264,564.054z"/>
		<path style="fill:#1F1E1E;" d="M239.735,516.12c0.344-1.118-0.064-3.389,2.264-3.835c8.741,3.313,18.006,6.136,26.886,12.371
			c-10.474,1.117-16.072-6.585-25.465-8.903L239.735,516.12z"/>
		<path style="fill:#1F1E1E;" d="M407.713,627.082l-11.5,21.354c-6.238,11.582-20.305,31.546-31.439,40.625
			c-4.368,3.562-7.516,10.177-14.71,9.045c22.408-18.857,38.485-40.63,51.304-66.178C402.452,629.77,403.61,625.612,407.713,627.082
			z"/>
		<path style="fill:#1F1E1E;" d="M377.872,655.844l-19.275,19.928l-19.512,15.145c-1.228,0.953-1.483,0.195-1.787,2.08
			c-0.282,1.753-1.829,0.099-2.452-0.726c-0.847-1.121,0.093-1.801,1.469-2.843c22.493-17.029,41.69-36.928,58.075-59.642
			c0.646-0.896,1.968,0.491,2.019,1.067c0.125,1.397,0.42,1.64-1.112,3.673l-9.383,12.453
			C383.504,650.181,380.668,652.954,377.872,655.844z"/>
		<path style="fill:#1F1E1E;" d="M393.334,621.832c-8.924,15.999-22.64,24.889-35.872,34.034l-29.613,20.466
			c-3.257,1.345-4.122,1.875-3.224-1.785C349.584,658.472,372.191,640.712,393.334,621.832z"/>
		<path style="fill:#1F1E1E;" d="M407.471,638.174c0.868,14.58-10.165,23.758-15.587,36.046l-10.063,13.002
			c-0.674,0.871-0.652,2.63-1.376,3.413c-0.569,0.615-3.88-0.416-2.963-1.697C389.139,672.637,398.216,656.903,407.471,638.174z"/>
		<path style="fill:#1F1E1E;" d="M482.89,321.045c-7.434-25.79-21.328-46.331-37.561-66.616
			c29.617,18.371,49.29,82.034,40.165,72.088C484.414,325.339,483.516,323.219,482.89,321.045z"/>
		<path style="fill:#1F1E1E;" d="M433.597,272.542c13.676,2.941,33.562,39.725,35.258,56.139
			C457.752,307.896,450.062,288.637,433.597,272.542z"/>
		<path style="fill:#1F1E1E;" d="M433.08,302.419c-1.081-1.011-0.826-2.858-1.579-3.46l-13.089-10.453
			c-2.239-1.788-3.183-2.949-3.495-5.029c17.49,5.215,40.142,42.834,39.639,46.312c-0.164,1.132,0.171,3.405-1.743,3.44
			C446.103,322.52,441.689,310.475,433.08,302.419z"/>
		<path style="fill:#1F1E1E;" d="M539.652,699.276c-0.385,0.54-0.37,2.546-1.12,2.653c-0.617,0.088-2.275-0.991-2.607-2.324
			c11.345-16.703,17.344-35.104,19.939-55.266c3.995,3.809,2.268,7.955,1.494,11.244
			C553.67,671.241,548.927,686.274,539.652,699.276z"/>
		<path style="fill:#1F1E1E;" d="M566.78,641.355c3.039,16.432-0.373,30.874-4.031,45.695c-0.439,1.779-0.908,5.662-5.176,5.49
			c4.963-18.917,9.864-37.913,5.433-57.014C565.998,635.985,569.359,638.703,566.78,641.355z"/>
		<path style="fill:#1F1E1E;" d="M574.293,637.041c5.776,17.378,2.172,43.595,0.489,44.8c-1.081,0.774-2.894-0.662-2.474-2.655
			c3.591-17.023,2.013-33.202-3.227-50.119c2.995-1.592,3.015,1.664,4.077,2.305C575.045,632.51,573.654,635.117,574.293,637.041z"
			/>
		<path style="fill:#1F1E1E;" d="M530.643,662.076c0.107,6.095-5.414,11.541-11.163,14.139c2.524-6.877,7.158-12.2,11.268-17.35
			C534.542,659.698,535.735,661.543,530.643,662.076z"/>
		<path style="fill:#1F1E1E;" d="M597.427,491.011c-7.228,2.992-14.656-1.053-17.411-6.426c-2.953-5.761-2.994-14.247,2.692-18.538
			c7.128-5.379,16.004-2.402,20.487,4.349C607.296,476.57,606.027,487.452,597.427,491.011z"/>
		<path style="fill:#1F1E1E;" d="M408.085,326.06l13.244,15.54c0.761,0.893,2.261,1.102,2.538,1.726
			c0.273,0.615,1.54,1.378-0.078,1.767c-0.684,0.165-1.601-0.024-3.09,1.202l-13.907-16.183l-4.401-4.8
			c-2.297-2.747-1.385-2.811,1.372-2.952C405.444,323.497,407.009,324.798,408.085,326.06z"/>
		<path style="fill:#1F1E1E;" d="M395.446,340.911c4.476,4.536,11.824,8.155,12.469,15.083l-15.771-13.368
			c-1.233-1.045-2.901-1.791-3.605-4.301C391.205,338.239,393.537,338.975,395.446,340.911z"/>
		<path style="fill:#1F1E1E;" d="M469.533,676.171c-7.497,17.556-18.325,34.028-33.484,46.591c-0.775-0.302-2.075,1.088-3.252-0.471
			c13.888-13.109,24.298-28.268,32.953-45.351C466.724,675.391,467.993,673.607,469.533,676.171z"/>
		<path style="fill:#1F1E1E;" d="M430.71,713.211l-2.033,3.149c-0.436,0.676-1.353-0.57-2.652-2.521
			c13.162-10.554,21.546-24.39,33.172-39.287C455.906,690.099,443.18,701.772,430.71,713.211z"/>
		<path style="fill:#1F1E1E;" d="M446.917,678.844c-1.209,1.613-0.019,3.157-1.869,4.572c-7.737,5.917-12.616,14.79-22.401,18.957
			c2.362-6.478,8.332-8.917,12.322-13.433l8.061-9.123c0.507-0.574,1.734-1.998,2.711-1.754
			C446.176,678.173,446.313,678.231,446.917,678.844z"/>
		<path style="fill:#FEFEFE;" d="M463.975,503.296c-15.889-11.094-18.979-30.118-14.669-47.05
			c4.541-17.841,17.787-28.091,35.37-32.087c23.529-5.347,46.408,7.641,51.257,32.188c3.777,19.122-4.317,37.031-19.915,47.371
			C500.757,513.834,480.493,514.829,463.975,503.296z M508.261,492.633c7.574,2.415,13.86-1.781,17.085-7.332
			c2.961-5.095,2.753-11.779-0.959-16.604c-3.558-4.625-9.876-7.496-16.149-5.16c-6.226,2.319-8.953,8.417-9.014,14.633
			C499.172,483.455,501.647,490.524,508.261,492.633z"/>
		<path style="fill:#DE7C35;" d="M519.505,558.278c5.686-1.652,11.555,5.901,14.311,8.861c-11.887,3.254-19.63,8.304-31.122,12.372
			C505.93,572.158,510.411,562.186,519.505,558.278z"/>
		<path style="fill:#DE7C35;" d="M538.162,566.119c-2.982-1.617-4.468-5.051-5.813-8.18c5.794-0.925,11.432,1.29,15.828,7.429
			C544.913,564.832,541.321,567.832,538.162,566.119z"/>
		<path style="fill:#1F1E1E;" d="M508.261,492.633c-6.614-2.109-9.089-9.178-9.037-14.464c0.061-6.216,2.788-12.314,9.014-14.633
			c6.273-2.336,12.591,0.536,16.149,5.16c3.712,4.825,3.92,11.51,0.959,16.604C522.121,490.852,515.835,495.047,508.261,492.633z"/>
		<g>
			<g>
				<path style="fill:#211C16;" d="M384.151,466.58c-2.515,7.919-4.922,15.839-5.814,24.073c-0.348,2.827-0.305,5.26-0.226,8.209
					c0.001,1.128-0.108,2.581-0.665,3.714c-2.264,5.3-0.046,11.15,0.346,16.762c0.363,3.982,0.803,8.374,1.687,12.257
					c4.399,21.699,17.33,40.802,33.271,55.858c0,0-0.263-0.201-0.263-0.201s8.059,4.942,8.059,4.942
					c0.838,0.637,2.222,1.66,3.155,2.333c-1.602,1.188-3.382,1.062-4.843,0.42c0,0-8.059-4.942-8.059-4.942
					c-19.741-18.215-34.588-43.106-36.223-70.379c-0.526-6.062-2.778-12.674,0.037-18.639c0.244-0.655,0.25-1.324,0.269-2.153
					c-0.588-11.298,2.818-22.599,6.194-33.238c1.834-3.845,4.25-7.776,6.984-11.042C386.647,458.553,385.351,462.53,384.151,466.58
					L384.151,466.58z"/>
			</g>
			<g>
				<path style="fill:#CD7E3C;" d="M354.045,627.487c-4.747,1.539-9.394,3.327-13.681,5.708l-13.144,7.517
					c-0.598,0.201-1.669,0.604-2.34,0.897c0.003-1.373,0.284-2.637,0.736-3.7l13.179-7.536c7.181-4.051,16.451-6.583,23.878-9.322
					c0.381,0.912,1.259,1.533,1.185,1.469c-0.309-0.229-0.109-0.085-0.229-0.093C360.638,624.005,357.799,625.504,354.045,627.487
					L354.045,627.487z"/>
			</g>
		</g>
	</g>
</g>
<g id="Layer_1">
</g>
</svg>
