<?xml version="1.0" encoding="iso-8859-1"?>
<!-- Generator: Adobe Illustrator 30.3.0, SVG Export Plug-In . SVG Version: 9.03 Build 0)  -->
<svg version="1.1" xmlns="http://www.w3.org/2000/svg" xmlns:xlink="http://www.w3.org/1999/xlink" x="0px" y="0px"
	 viewBox="0 0 951.862 990.303" style="enable-background:new 0 0 951.862 990.303;" xml:space="preserve">
<g id="Layer_5">
	<path style="fill:#070707;" d="M523.402,963.261l-18.752,0.751l-61.314-0.004l-20.65-1.019l-13.547-0.691l-11.948-0.79
		c-31.097-2.055-61.425-7.426-91.105-17.128c-28.35-9.268-53.9-22.783-77.24-41.87c-15.179-12.413-28.681-24.791-42.133-39.182
		C85.532,755.087,27.486,621.246,26.146,474.65l1.004-37.58l0.814-14.425l1.052-12.683c4.402-53.069,18.087-103.986,38.664-152.795
		c16.519-39.183,38.165-75.51,63.017-110.244l15.587-18.497c9.884-11.729,27.494-26.134,17.924-40.575
		c-4.687-7.073-6.587-14.769-4.027-23.631c1.9-6.576,7.359-13.112,15.109-16.608c13.282-5.992,27.221-10.03,42.228-11.88
		l51.248-6.319l12.182-1.139l11.458-0.906l23.737-1.553l14.609-0.921l24.834-1.013l32.635-1.233l59.15-1.253
		c2.416-0.051,5.179-1.647,8.18-1.172c11.286,1.786,22.226,1.37,33.409,1.579l59.158,1.104l55.843,1.71l23.567,0.993l17.46,1.011
		l14.39,1.009l12.532,0.905l19.694,1.937c25.648,2.522,77.899,9.1,92.2,24.811c6.763,7.43,8.756,20.057,3.091,28.609
		c-6.676,10.079-7.484,21.382,1.206,30.851l19.445,21.189l17.883,21.371c32.178,43.787,56.362,92.424,71.808,144.19
		c12.86,43.099,20.244,86.629,22.867,132.036l0.283,54.776l-0.692,19.861l-1.169,13.931l-1.248,11.651
		c-12.297,114.784-68.515,232.653-147.953,320.225c-16.899,18.629-33.962,34.851-53.38,50.541
		c-22.152,17.899-46.054,31.349-72.998,39.93c-29.994,9.553-60.955,14.632-92.463,17.036l-12.574,0.959L523.402,963.261z"/>
	<path style="fill:#FCFDFC;" d="M650.391,925.839c-71.727,28.429-191.928,28.287-269.747,19.64
		c-22.687-2.521-43.456-7.222-65.023-13.861c-31.927-9.828-60.42-25.555-85.902-47.692c-35.722-31.033-65.605-66.935-92.233-105.719
		c-33.068-48.165-58.248-100.685-74.977-156.668c-36.483-122.092-28.7-253.373,23.033-368.598
		c15.813-35.22,36.096-68.601,59.481-99.815l26.435-30.156c9.433-10.761,13.793-24.022,7.254-37.257
		c4.119-0.362,9.606,0.213,10.97,3.238c3.822,11.614-1.577,22.736-2.817,34.145c8.22-7.277,8.721-21.576,7.506-33.124
		c40.912,10.047,81.907,19.247,123.919,16.006l-61.787-8.874c-21.828-3.135-64.945-10.025-79.199-20.189
		c-3.939-2.809-4.531-7.385-1.332-11.27c7.538-9.154,36.044-15.199,51.219-17.221c42.255-5.629,83.846-8.911,126.715-10.739
		c35.423-1.51,69.291-2.624,104.73-2.326c57.46,0.484,113.76,1.414,171.166,4.593c30.86,1.709,60.422,4.223,90.661,8.582
		c16.459,2.372,48.026,8.016,54.57,19.357c5.629,9.757-14.674,16.5-27.559,19.733c-35.781,8.977-72.158,13.213-109.283,16.47
		c-3.627,0.318-7.458,0.111-8.305,4.286c42.523-0.459,83.087-6.209,124.747-17.038c-5.238,13.533-0.452,28.377,6.897,39.201
		c0.506,0.746,1.997-0.029,2.094-0.913c0.101-0.922,0.531-1.281-0.342-2.751c-6.44-10.835-7.991-23.258-6.141-35.838l13.028-5.112
		c-5.541,13.871-2.63,27.657,7.001,38.377l19.882,22.131c12.423,13.828,22.787,27.699,32.844,43.272
		c25.584,39.614,44.339,82.123,56.784,127.784c20.748,76.13,26.235,155.726,13.583,234.065
		c-17.664,109.375-67.87,209.807-141.611,291.874l-36.538,36.384C700.511,899.032,677.206,915.211,650.391,925.839z"/>
	<path style="fill:#070707;" d="M198.209,65.073c35.829-12.071,75.132-15.545,113.483-13.569c-1.661,3.904-4.965,3.023-7.994,3.289
		l-47.292,4.157c-16.092,1.414-31.601,3.602-46.723,9.193c21.389,4.84,41.051,6.944,62.316,8.747
		c66.69,5.653,132.704,7.669,199.871,7.794l141.587-2.841c42.409-0.851,83.25-5.798,125.374-12.453
		c-5.244-2.463-10.46-4.529-16.406-5.455c-36.209-5.639-72.03-9.083-108.918-10.453l-85.273-3.168l-173.105,1.03
		c-1.706,0.01-2.534-0.029-3.175-0.86c-0.42-0.545-0.325-2.646,0.919-2.782c22.23-2.426,43.325-3.743,65.781-3.533l143.532,1.342
		c47.067,0.44,92.791,3.808,139.401,9.578c15.94,1.973,30.386,5.016,45.349,10.545c1.861-1.593,3.783-3.492,6.073-3.988
		c1.521-0.33,2.326,1.647,2.569,2.657c4.708,19.515-167.137,26.442-194.25,26.453l-53.171,0.022l-49.767-0.473
		c-70.744-0.672-171.834-0.968-238.905-14.406c-8.9-1.783-17.212-3.804-25.227-7.818c-2.346-1.175-4.249-5.634-2.045-7.241
		C193.898,59.611,196.961,61.175,198.209,65.073z"/>
	<path style="fill:#070707;" d="M604.258,109.373c-82.033,7.687-167.202,6.634-250.179,0.143c-3.054-0.239-5.617-0.869-5.476-4.819
		l115.131,4.454c46.503,1.799,92.011-1.248,138.306-4.817c1.394-0.107,2.292,0.412,2.767,0.994
		C605.427,106.085,605.099,107.265,604.258,109.373z"/>
	<path style="fill:#070707;" d="M194.991,125.982l6.508-25.277C205.287,109.35,201.809,119.098,194.991,125.982z"/>
	<path style="fill:#070707;" d="M748.159,108.34l3.381,15.279c-7.444-5.506-7.435-14.241-6.462-21.497
		C747.375,104.084,747.688,106.212,748.159,108.34z"/>
	<path style="fill:#73ADC9;" d="M739.563,218.492L724.24,186.43l50.279,7.245c12.885,1.857,25.123,5.051,36.759,10.929
		c-12.657,5.671-24.52,8.823-37.073,10.17L739.563,218.492z"/>
	<path style="fill:#73ADC9;" d="M722.112,180.801c-1.855,0.917-2.248,2.989-2.039,4.923l-23.364-2.546
		c-1.997-0.218-0.422-2.647,0.293-3.095c1.165-0.73,1.813-1.63,3.698-1.44L722.112,180.801z"/>
	<path style="fill:#73ADC9;" d="M655.607,176.324c2.062-1.545,4.328-1.431,7.113-1.203l27.645,2.269
		c1.147,0.094,2.846,1.472,2.889,2.301c0.043,0.829-1.918,3.019-2.756,3l-30.976-0.724c1.842,2.59,3.713,4.504,2.836,7.278
		l-28.334-2.405c-8.084-0.686-15.522-0.759-24.154,0.451c0.689,3.477,3.293,2.317,5.684,2.502l52.75,4.095l18.121,29.813
		l-79.174,4.658c-53.905,3.172-106.854,3.458-160.976,1.131l-164.097-7.057c-45.288-1.948-88.972-8.373-132.652-18.045
		c-3.417-0.757-5.937-1.837-8.969-3.951c0.667-1.661,2.04-2.2,4.216-2.745c30.154-7.549,60.095-12.491,91.027-14.594l36.247-2.464
		l97.355-3.393c64.573-2.25,128.018-3.112,192.402-0.776l93.779,3.402C657.117,179.925,656.531,176.268,655.607,176.324z"/>
	<path style="fill:#FCFDFC;" d="M265.622,204.165c25.849,8.615,47.596,8.953,73.849,10.44c7.939,0.45,16.076,0.674,22.949,5.138
		l-63.889-3.633c-14.117-0.803-28.422-4.286-40.785-10.277c0.253-1.733-1.366-3.366-1.779-4.387
		c-3.393-8.392,30.788-12.709,45.707-13.213l65.545-2.216l12.448,0.415c1.085,0.036,2.291-0.108,2.904,0.612
		c0.82,0.962,0.47,2.973-1.224,3.028l-56.152,1.819c-20.572,0.666-40.232,2.055-60.228,6.14c-2.111,0.431-2.776,1.617-2.655,3.267
		C262.465,203.403,263.746,203.54,265.622,204.165z"/>
	<path style="fill:#FCFDFC;" d="M475.419,218.112l24.205,0.321c4.416,0.059,9.299-0.127,12.779,3.185
		c-24.212,2.3-128.572-1.107-126.279-17.011c2.076-14.399,81.465-14.985,104.234-13.299c-1.573,4.287-5.057,4.079-8.573,3.981
		c-27.844-0.778-61.945,0.259-88.177,7.022c-8.63,2.225,3.839,7.904,19.896,9.53L475.419,218.112z"/>
	<path style="fill:#FCFDFC;" d="M605.734,219.036c8.491-7.973,27.743-2.55,41.833-10.42c-3.909-3.034-7.979-4.373-12.651-4.82
		l-81.899-7.833c-2.972-0.284-6.092,1.644-8.629-2.198l9.642-1.858l78.539,7.325c9.88,0.921,22.887,4.562,22.101,10.301
		C653.612,217.26,620.894,220.369,605.734,219.036z"/>
	<path style="fill:#FCFDFC;" d="M469.053,203.187l9.83,2.084c14.341,3.041,29.065,2.671,44.136,0.018
		c-11.356-6.005-27.512-1.322-30.045-4.381c-0.574-0.693,0.214-2.105,1.929-3.147c11.397-1.913,24.197-0.371,34.622,6.269
		c1.06,2.85-3.566,4.84-6.348,5.242c-22.468,3.246-44.37,2.207-67.207-2.234C459.236,203.134,464.318,202.183,469.053,203.187z"/>
	<path style="fill:#FCFDFC;" d="M580.201,220.785l-48.672,2.954c-4.434,0.269-9.16,0.788-12.969-2.86l79.855-7.374
		C595.077,220.608,586.494,218.062,580.201,220.785z"/>
	<path style="fill:#FCFDFC;" d="M463.998,185.918l-50.714-0.978c14.805-7.551,36.822-4.461,53.921-3.184
		C468.081,183.67,465.883,185.954,463.998,185.918z"/>
	<path style="fill:#070707;" d="M655.607,176.324c0.924-0.057,1.51,3.601-0.024,3.546l-93.779-3.402
		c-64.384-2.336-127.829-1.474-192.402,0.776l-97.355,3.393L235.8,183.1c-30.932,2.103-60.872,7.045-91.027,14.594
		c-2.176,0.545-3.548,1.084-4.216,2.745c3.032,2.114,5.552,3.194,8.969,3.951c43.68,9.672,87.364,16.097,132.652,18.045
		l164.097,7.057c54.122,2.328,107.071,2.041,160.976-1.131l79.174-4.658l53.138-5.21l34.641-3.718
		c12.554-1.347,24.417-4.499,37.073-10.17c-11.636-5.877-23.874-9.072-36.759-10.929l-50.279-7.245l-4.166-0.706
		c-0.209-1.933,0.184-4.005,2.039-4.923l51.378,6.82c15.397,2.044,29.318,6.618,43.421,12.933
		c35.631,59.628,60.349,123.361,68.929,193.759c14.169,116.251-6.159,221.49-60.946,321.46
		c-15.724,28.691-33.529,55.152-53.002,81.332c-12.397,16.667-24.67,32.22-39.304,46.858l-13.488,13.492
		c-14.273,14.277-29.602,26.459-46.999,36.985c-21.714,13.139-45.162,21.458-70.288,26.089
		c-76.542,14.108-154.036,15.367-231.292,4.368c-17.05-2.428-32.184-5.303-48.197-10.357c-32.612-10.291-61.74-26.78-87.308-49.988
		l-26.244-26.143c-16.006-17.415-29.53-35.681-43.802-54.979c-35.591-48.125-63.257-100.409-81.878-156.904
		c-22.512-68.3-31.356-140.17-23.785-212.322c5.274-50.257,16.792-98.815,35.791-144.941c10.534-25.574,24.529-48.648,38.405-72.22
		c7.001-3.431,13.339-5.434,20.747-7.139c35.04-8.065,69.916-12.356,106.349-13.894l123.099-5.196
		c44.837-1.893,88.357-2.251,133.295-1.158l94.363,2.294l40.026,2.327L655.607,176.324z"/>
	<path style="fill:#73ADC9;" d="M692.333,228.573l8.033,15.616l11.517,23.768l25.102-11.848l-14.809-30.139l5.363-0.837
		c-0.34,1.732,0.679,3.077,1.54,4.677l13.484,25.077l14.755-7.016l-12.19-24.555c16.96-1.752,33.833-3.414,50.554-7.636
		l20.414-7.165c47.448,82.524,72.075,176.947,68.759,273.853c-1.016,29.685-4.346,57.863-10.88,86.735
		c-17.612,77.827-47.579,141.172-93.724,206.055c-3.999-1.582-8.137-2.699-12.658-1.771c-0.908-5.416-3.722-9.267-8.355-11.703
		c-9.332-4.908-20.948-2.99-28.849,4.626c-2.443-2.346-4.888-3.5-8.159-3.426c-9.998,0.226-13.763-20.031-39.101-4.628
		c-3.64-0.709-5.41-4.574-8.49-6.103c-10.947-5.434-24.37-1.078-31.476,9.446c-8.715-11.454-23.825-14.028-34.529-3.459
		c-7.297-12.338-22.883-15.605-34.758-6.896c-1.188,0.698-3.896,3.034-5.347,2.639c-8.362-4.998-17.914-5.178-24.945,2.503
		c-4.05-5.728-9.117-8.708-14.848-9.001c-6.362-0.326-12.1,1.84-16.819,6.605c-7.858-8.31-19.785-10.703-29.685-5.353
		c-3.854,2.083-5.756,5.745-8.715,9.511c-4.792-8.556-12.768-13.16-21.688-13.256c-9.416-0.102-17.837,3.708-22.778,12.552
		c-9.417-8.094-21.539-6.697-30.123,2.264c-3.613-7.38-10.308-10.261-17.67-9.53c-5.445,0.541-10.378,2.372-14.013,7.482
		c-9.755-7.354-21.767-5.47-29.374,3.753c-5.465-7.762-13.48-10.452-21.994-9.169c-8.443,1.273-15.523,5.532-19.93,12.852
		c-7.728-11.589-22.554-15.089-33.883-7.784c-4.409,2.843-7.047,7.202-10.33,11.26l-8.913-4.146
		c-12.319-4.614-25.042,1.159-29.868,13.594c-7.324-5.151-14.314-6.958-22.399-4.801c-5.971,1.592-11.823,6.773-15.035,14.185
		l-16.022-21.938c-37.891-53.442-64.891-113.018-81.712-176.722c-13.95-52.83-19.077-106.425-14.136-161.271
		c4.016-44.578,12.57-87.465,26.372-129.446c5.672-17.253,12.495-32.953,20.771-49.036l23.145-44.979l23.464,6.536
		c33.197,6.85,65.937,12.759,100.097,14.685l99.55,5.613l106.735,3.827c60.257,2.161,119.247,0.643,179.294-3.063L692.333,228.573z"
		/>
	<path style="fill:#73ADC9;" d="M669.834,846.659c2.608-12.496,15.844-19.742,28.435-16.389l9.421-8.893
		c8.037-5.965,16.999-6.395,26.781-2.923c-2.313-6.131-8.167-4.65-13.338-5.643c7.261-12.01,25.405-15.61,36.212-6.085
		c-12.306,15.763-25.04,29.301-38.84,42.755c-9.593,9.352-18.758,18.073-29.802,25.682c-0.35-6.704-4.175-10.977-9.906-13.788
		C677.949,855.368,674.975,850.605,669.834,846.659z"/>
	<path style="fill:#73ADC9;" d="M221.204,808.513c-1.984,6.106-1.812,13.243-9.728,15.085c0.314,1.579,1.493,2.185,2.454,2.032
		c1.062-0.169,2.137-0.625,4.068-1.559c5.821,10.721,11.633,18.273,24.168,19.542c-2.579,6.888,0.231,12.142,0.118,20.042
		c-23.895-21.781-44.702-46.043-63.607-72.112c1.817-10.512,11.226-15.911,21.409-14.343c6.251,0.962,11.746,3.67,13.42,10.625
		c-8.067,2.209-16.912-0.105-18.841,8.707c12.039-5.898,25.011-4.519,33.205,5.88C225.82,804.207,222.136,805.643,221.204,808.513z"
		/>
	<path style="fill:#73ADC9;" d="M485.784,842.982c9.247-10.101,27.116-10.268,33.959,1.611c1.074,1.865-1.508,6.517-3.719,7.613
		c-11.896-1.038-23.797,2.042-31.275,11.406c-10.443-12.463-22.741-12.818-38.08-10.687c-3.212-7.99-6.889-15.087-12.985-20.959
		c5.566-7.16,13.344-9.48,21.845-8.381c7.998,1.035,15.218,5.763,17.347,13.769c-7.019,0.039-13.322,1.207-17.668,6.829
		l12.636-2.527c13.391-2.678,16.668,7.487,16.993,7.621c1.208,0.502,2.955-0.263,3.017-1.617
		C487.894,846.788,486.627,844.82,485.784,842.982z"/>
	<path style="fill:#73ADC9;" d="M671.386,835.1c-9.848,1.078-13.849-2.708-21.158-6.751c-0.938-10.486,6.691-20.261,17.522-22.549
		c3.319,2.002,6.176,0.644,8.408-1.75c13.701-4.109,26.424,13.149,25.226,17.565c-0.37,1.364-1.564,3.846-3.856,3.688
		C687.533,824.615,677.517,827.133,671.386,835.1z"/>
	<path style="fill:#73ADC9;" d="M497.802,815.893c-9.882-9.608-20.284-14.08-32.364-9.277c-5.191,2.064-8.226,6.03-8.523,12.201
		c-2.842,0.866-6.472,1.314-9.26,0.044c-3.294-1.501-1.219-7.814-5.301-14.033c-1.286-1.959-2.842-4.084-2.369-6.44
		c1.75-8.715,17.692-12.284,27.002-5.8l6.298,9.228c1.282,0.201,1.488-2.433,1.538-4.065c0.303-9.908,20.904-6.877,31.48,6.838
		C502.526,808.415,500.907,811.133,497.802,815.893z"/>
	<path style="fill:#73ADC9;" d="M601.565,847.51c0.953,0.212,1.552,0.809,1.69,1.176c0.177,0.47-0.133,1.289-0.552,1.5
		c-0.559,0.28-1.675-0.003-1.716-1.047c-0.268-6.76-7.758-10.88-9.511-16.423c-2.12-6.704-3.229-12.079-10.799-14.543
		c-1.541-0.502-3.883-2.733-4.392-4.287c-0.579-1.769-0.167-4.827,1.299-6.914c5.275-7.506,14.999-8.823,23.502-5.958
		c8.046,2.711,14.094,8.574,14.672,17.494l-6.704,6.71C602.996,831.279,599.852,839.257,601.565,847.51z"/>
	<path style="fill:#73ADC9;" d="M482.909,880.121c-15.871,5.466-38.142,4.106-43.868-10.907c-0.518-4.337,2.163-7.687,6.04-10.275
		c8.455-3.888,18.99-4.451,27.476-0.408C481.324,862.71,486.163,871.813,482.909,880.121z"/>
	<path style="fill:#73ADC9;" d="M252.584,837.8c-7.459,3.249-15.652,2.113-21.642-2.559c-5.792-4.518-9.434-11.947-7.94-19.586
		c1.437-7.346,7.709-11.188,15.114-10.733c9.267,0.569,16.584,6.304,21.41,13.771C253.264,822.985,250.333,829.483,252.584,837.8z"
		/>
	<path style="fill:#73ADC9;" d="M532.226,878.14l-12.133,1.864c-8.493,1.766-17.532,2.591-25.326-1.355
		c-2.329-1.179-4.113-2.932-6.587-2.296l-1.029-8.818c4.934-11.08,22.839-13.856,34.085-9.418
		C529.613,861.424,534.073,869.178,532.226,878.14z"/>
	<path style="fill:#73ADC9;" d="M381.254,868.947c-10.105,1.445-20.011-0.218-29.415-4.37l-12.696-5.328
		c-1.695-7.142,3.392-13.735,10.507-16.592c7.731-3.145,15.626-0.53,22.717,3.399C381.201,850.95,385.248,860.183,381.254,868.947z"
		/>
	<path style="fill:#73ADC9;" d="M630.39,869.792l-8.679,3.034c-8.53,3.182-17.436,5.263-26.354,3.522l-12.705-4.703
		c1.073-7.133,6.153-12.941,13.281-15.577C612.354,849.996,630.647,857.724,630.39,869.792z"/>
	<path style="fill:#73ADC9;" d="M274.786,794.806c-9.296-1.036-17.317,2.063-23.66,9.253c-4.246-2.649-9.108-3.284-14.078-3.908
		c-1.708-9.296,3.262-17.21,10.398-21.229c7.914-4.458,17.439-3.682,24.22,2.683C274.566,785.085,275.36,788.849,274.786,794.806z"
		/>
	<path style="fill:#73ADC9;" d="M291.653,848.416c-13.378-1.382-25.257-11.96-33.309-23.102c11.164-10.966,35.18-5.593,40.049,8.195
		C295.296,837.657,291.473,842.827,291.653,848.416z"/>
	<path style="fill:#73ADC9;" d="M482.909,840.112c-8.123-4.185-8.26-15.77-22.48-20.688c0.526-6.16,5.335-10.109,11.279-10.747
		c13.721-1.474,25.717,9.013,27.877,22.544C492.852,832.939,487.607,835.048,482.909,840.112z"/>
	<path style="fill:#73ADC9;" d="M517.706,835.653c-4.594-1.347-9.687-2.924-13.256-5.664c-5.247-4.029-3.988-11.736-0.706-16.73
		c7.742-11.782,28.442-14.968,35.555-3.195C527.981,815.227,520.044,822.78,517.706,835.653z"/>
	<path style="fill:#73ADC9;" d="M436.908,861.84c-7.071-10.698-19.125-15.728-31.646-13.969c-3.486,0.49-5.266-0.515-7.185-3.423
		c-1.259-1.908-0.142-5.26,2.437-7.523c7.243-6.354,17.797-7.375,27.299-2.974c7.677,3.556,13.714,12.548,14.336,21.857
		L436.908,861.84z"/>
	<path style="fill:#73ADC9;" d="M642.626,788.915c-3.51-5.466-11.522-3.871-16.467-6.069c-6.202-11.861-16.295-13.783-16.274-17.33
		c0.04-6.564,10.78-10.498,16.991-9.521c10.86,1.708,18.575,12.647,17.12,23.091L642.626,788.915z"/>
	<path style="fill:#73ADC9;" d="M295.518,811.162c-4.768-7.315-10.318-13.114-18.386-16.474c1.682-2.562,0.418-6.622,1.065-8.795
		c4.594-4.825,11.417-6.199,17.576-4.506c5.546,1.525,11.223,5.573,13.751,11.503c2.528,5.932,0.19,11.897-5.601,14.497
		L295.518,811.162z"/>
	<path style="fill:#73ADC9;" d="M580.287,864.825c-4.691-7.04-11.611-10.963-20.309-12.551c0.135-7.982,6.136-13.477,13.438-15.66
		c5.564-1.663,11.027-1.784,16.215,1.705c3.657,2.46,7.078,7.08,7.452,12.986C590.282,853.988,584.937,857.305,580.287,864.825z"/>
	<path style="fill:#73ADC9;" d="M582.652,871.645l12.705,4.703c8.918,1.741,17.824-0.34,26.354-3.522l8.679-3.034
		c-0.071,3.325-0.278,6.724-2.655,10.167c-12.268,17.765-40.413,12.412-45.824,0.802
		C580.599,877.946,582.274,874.153,582.652,871.645z"/>
	<path style="fill:#73ADC9;" d="M490.84,777.474c-2.753-6.15-9.103-9.087-14.099-13.426c-1.449-5.141,4.745-11.285,9.707-13.062
		c6.335-2.268,12.58-1.491,18.02,2.287c4.765,3.309,8.714,9.11,8.978,15.935C504.604,768.656,498.013,771.09,490.84,777.474z"/>
	<path style="fill:#73ADC9;" d="M614.714,790.36c-5.55-0.295-8.982-10.744-17.307-7.047c-4.311-4.813-10.818-5.696-16.85-4.144
		c-4.828,1.286-8.406,4.343-12.464,7.906c-3.211-3.916-3.176-10.338,0.086-13.856c5.414-5.84,25.31-6.854,28.592,5.479
		c1.962-2.234,1.141-3.952,1.78-5.942c11.35-3.014,23.22,3.922,21.491,11.473C619.45,786.811,617.797,790.524,614.714,790.36z"/>
	<path style="fill:#73ADC9;" d="M532.947,862.654c-3.836-4.761-7.665-7.07-13.076-9.45c2.02-4.46,3.634-9.175,7.486-12.338
		c8.142-6.685,20.363-5.062,27.244,2.333c1.913,2.057,3.456,7.177,1.266,8.472C546.958,853.109,538.392,855.298,532.947,862.654z"/>
	<path style="fill:#73ADC9;" d="M364.646,781.411c-12.5,1.827-18.658,4.74-23.901,15.339l-14.676-2.176
		c-1.621-6.754,2.357-12.798,6.917-17.727c4.368-4.721,10.235-6.497,17.185-5.668C355.4,771.803,361.565,775.321,364.646,781.411z"
		/>
	<path style="fill:#73ADC9;" d="M387.909,816.827c1.475-4.88,7.306-5.992,12.099-5.287c2.796,0.412,4.891,2.047,8.052,0.927
		c-1.142-1.918-3.507-4.489-2.74-6.402c1.682-4.199,6.567-5.503,10.4-6.858c10.099-3.568,20.729,0.787,24.843,10.821
		c-2.746,0.537-4.605-0.189-6.689-0.507c-11.492-1.756-21.397,4.552-24.811,16.543C403.156,820.426,397.036,817.655,387.909,816.827
		z"/>
	<path style="fill:#73ADC9;" d="M472.902,792.055c-3.473-2.739-6.207-5.202-10.646-6.19c-4.703-1.047-9.864-6.547-6.659-11.645
		c3.687-5.864,11.479-7.14,18.424-5.845c11.441,2.132,17.163,16.609,11.884,18.654C481.769,788.632,477.608,788.553,472.902,792.055
		z"/>
	<path style="fill:#73ADC9;" d="M471.101,763.453c-7.351-0.373-13.354,5.018-19.769,6.852c-6.137-1.142-12.451-6.976-19.564-5.764
		c1.102-10.842,10.305-15.634,19.582-15.306C460.109,749.718,468.284,752.766,471.101,763.453z"/>
	<path style="fill:#73ADC9;" d="M482.909,880.121c-1.296,3.31-2.114,6.691-5.669,9.421c-10.08,7.74-24.419,7.984-34.758,0.416
		c-6.276-5.4-8.165-14.104-3.442-20.743C444.768,884.227,467.038,885.587,482.909,880.121z"/>
	<path style="fill:#73ADC9;" d="M416.815,788.59c-3.825-4.585-8.576-8.724-14.693-9.367c-9.21-0.969-17.668,4.991-20.475,14.409
		l-13.934-13.166c3.422-6.204,8.986-9.03,15.21-9.729c6.208-0.697,12.381,1.307,16.782,6.645c3.2-3.945,7.213-5.566,11.85-3.85
		c3.376,1.249,6.664,4.113,7.461,8.583C419.439,784.483,419.794,787.035,416.815,788.59z"/>
	<path style="fill:#73ADC9;" d="M293.868,772.95c-1.163,4.826-9.144,1.679-16.394,8.511c-5.348-5.504-11.934-9.466-20.437-11.236
		c2.802-7.955,10.104-11.542,17.462-12.062C285.418,757.391,294.961,768.413,293.868,772.95z"/>
	<path style="fill:#73ADC9;" d="M532.226,878.14c-1.659,8.052-9.219,13.159-17.14,15.207c-10.844,2.803-21.682,0.282-29.126-8.228
		c1.242-3.263,2.543-6.005,2.22-8.766c2.474-0.635,4.258,1.117,6.587,2.296c7.793,3.946,16.832,3.121,25.326,1.355L532.226,878.14z"
		/>
	<path style="fill:#73ADC9;" d="M328.786,819.668c-3.226-1.786-6.19-2.966-8.132-5.14l1.321-1.964
		c0.444-0.66,0.022-1.754-1.125-2.112l-8.175-2.551c2.816-10.255,22.022-11.371,31.634-3.614c4.372,3.529,6.997,8.409,5.496,13.991
		C342.638,815.937,336.067,816.681,328.786,819.668z"/>
	<path style="fill:#73ADC9;" d="M294.572,821.624c-10.139-5.101-20.165-8.232-30.66-4.123l-9.212-11.254
		c6.83-7.856,16.492-8.958,25.403-5.174C287.363,805.194,293.06,811.764,294.572,821.624z"/>
	<path style="fill:#73ADC9;" d="M367.518,831.2c-4.398-6.049-8.526-9.904-14.964-12.336c2.409-2.841,0.139-6.317,0.873-8.372
		c1.763-4.94,7.979-6.582,12.244-6.648c5.311-0.082,10.366,2.151,13.723,6.5l5.387,6.98
		C377.745,820.272,372.315,823.96,367.518,831.2z"/>
	<path style="fill:#73ADC9;" d="M582.61,832.855c-9.352-1.839-17.378,2.162-23.382,9.808c-3.909-4.398-7.525-7.499-12.766-10.364
		c5.755-12.386,20.753-17.937,32.304-10.177C582.132,824.583,584.255,827.174,582.61,832.855z"/>
	<path style="fill:#73ADC9;" d="M763.35,771.103c2.607,3.865-10.106,5.906-15.856,16.593c-4.782-5.001-10.08-8.264-17.647-9.097
		c0.014-7.331,4.579-12.476,11.088-14.355C749.206,761.857,758.335,763.669,763.35,771.103z"/>
	<path style="fill:#73ADC9;" d="M648.696,816.325c-8.664-3.188-19.298-0.123-29.134,1.901c-1.758-5.349,0.528-11.008,5.029-14.427
		c5.784-4.393,12.655-4.045,19.658-3.094c5.077,0.69,9.993,1.12,13.383,5.889C654.362,809.431,651.132,812.55,648.696,816.325z"/>
	<path style="fill:#73ADC9;" d="M596.205,770.635c-7.333-7.174-17.033-7.618-25.822-3.517c-1.969-3.107-1-6.501,1.263-9.126
		c8.297-9.627,23.316-10.048,31.527-0.309c2.918,3.461,3.778,7.435,2.049,11.348C602.212,768.878,599.902,768.942,596.205,770.635z"
		/>
	<path style="fill:#73ADC9;" d="M341.562,843.479c-3.926-6.343-9.138-10.07-15.834-14.152c2.706-5.06,8.481-7.38,14.229-7.454
		c10.759-0.138,21.927,5.101,25.715,15.93C356.337,836.862,348.438,837.406,341.562,843.479z"/>
	<path style="fill:#73ADC9;" d="M291.653,848.416c0.036,1.114-0.151,3.543-0.596,4.453c-2.175,3.592-6.35,3.038-9.902,3.219
		c-13.428,0.684-24.057-8.007-25.745-21.363c-0.49-3.876,0.491-7.012,2.934-9.411C266.395,836.456,278.275,847.034,291.653,848.416z
		"/>
	<path style="fill:#73ADC9;" d="M228.411,791.984c-1.152-8.524-14.565-12.206-8.384-18.555c7.708-7.918,20.978-8.23,29.648,0.097
		c-11.389,4.138-17.226,14.339-16.492,26.431c-2.575,0.535-3.399-1.917-4.358-2.54C226.433,795.862,228.637,793.661,228.411,791.984
		z"/>
	<path style="fill:#73ADC9;" d="M674.944,786.44c-9.463-2.861-18.799-1.992-27.569,2.522c-2.302-3.631-0.097-7.16,0.103-10.499
		c0.28-4.67,2.32-6.905,6.825-7.691c8.847-1.544,22.772-0.121,25.592,6.195L674.944,786.44z"/>
	<path style="fill:#73ADC9;" d="M314.93,797.096c-1.665-9.953-9.065-15.586-17.652-20.112c7.84-8.081,21.438-8.265,28.956,0.701
		c-2.23,5.457-5.284,10.599-3.31,16.741C321.169,796.33,318.268,797.147,314.93,797.096z"/>
	<path style="fill:#73ADC9;" d="M703.61,774.766c-8.784-4.058-17.515,1.462-20.833-1.792c-1.292-1.267-1.29-3.961-0.463-5.946
		c3.334-8.004,11.796-11.612,20.496-10.149c3.951,0.664,7.458,3.518,9.643,6.997C708.798,767.445,705.989,769.959,703.61,774.766z"
		/>
	<path style="fill:#73ADC9;" d="M373.439,800.808c-11.055-4.33-18.425,4.989-23.684,2.902c-1.844-0.732-5.228-3.376-4.762-5.429
		c1.409-6.204,6.577-9.656,10.552-11.054c8.382-2.947,17.12,0.48,22.5,8.552L373.439,800.808z"/>
	<path style="fill:#73ADC9;" d="M760.11,802.98c-4.434-1.618-8.282-4.796-11.274-7.908c-1.21-3.246-0.311-4.305,1.284-6.236
		c6.827-8.27,16.705-13.129,27.997-10.578L760.11,802.98z"/>
	<path style="fill:#73ADC9;" d="M723.293,804.782c-1.605-4.729-2.876-8.644-6.285-11.906c-0.97-2.869-0.656-5.063,1.923-6.806
		c4.866-3.29,12.147-4.307,17.84-1.853c4.97,2.142,8.068,7.346,8.193,12.34C736.842,797.142,730.35,798.55,723.293,804.782z"/>
	<path style="fill:#73ADC9;" d="M320.44,828.363c-6.944-0.167-12.559-0.188-18.512,2.443l-4.861-7.768
		c-0.87-1.39-0.55-5.139,0.358-6.729c2.436-4.268,7.889-5.666,12.482-4.261c6.478,1.981,11.458,6.684,14.951,12.217L320.44,828.363z
		"/>
	<path style="fill:#73ADC9;" d="M393.956,839.978c-7.307-5.154-15.056-6.265-24.036-3.724c2.058-8.29,8.641-12.641,15.342-14.009
		c7.47-1.526,14.974,0.511,20.314,6.084C400.636,831.586,396.944,834.343,393.956,839.978z"/>
	<path style="fill:#73ADC9;" d="M328.458,774.31c-8.129-7.822-18.401-9.231-29.449-4.708c3.507-10.499,15.118-14.76,25.227-12.714
		c6.025,1.22,10.253,6.297,13.458,10.833L328.458,774.31z"/>
	<path style="fill:#73ADC9;" d="M560.425,782.018c-8.699-4.376-17.37-4.091-25.234,1.996c-1.771-4.443-3.914-7.881-7.667-10.536
		c7.429-10.246,25.66-6.565,34.412,1.032C563.493,775.861,562.476,779.976,560.425,782.018z"/>
	<path style="fill:#73ADC9;" d="M443.179,787.993c-3.688,1.567-5.568,5.437-8.304,8.877c-5.228-2.301-9.662-3.186-15.836-3.277
		c6.719-9.042,0.732-17.788,5.628-21.009c6.079,1.179,12.344,3.553,16.137,9.358L443.179,787.993z"/>
	<path style="fill:#73ADC9;" d="M543.742,828.346c-3.771,5.881-8.325,3.026-17.575,8.25c-1.874,1.058-3.201,3.192-5.946,1.671
		c1.766-10.914,9.484-21.854,21.489-23.272c3.139-0.371,6.805,3.926,7.571,5.961C548.672,823.871,545.106,826.219,543.742,828.346z"
		/>
	<path style="fill:#73ADC9;" d="M702.248,788.26c-7.162,0.917-11.006,5.807-17.341,8.942l-6.128-8.022
		c-1.362-5.797,4.722-10.167,9.816-11.57c7.879-2.171,16.126,1.304,19.468,8.828C707.72,788.583,703.723,788.07,702.248,788.26z"/>
	<path style="fill:#73ADC9;" d="M524.63,771.501l-8.562-2.258c1.967-4.777-1.609-8.183-1.146-12.606
		c4.576-4.42,12.255-5.974,18.349-3.926c4.707,1.582,8.554,5.506,7.676,10.289C534.331,763.856,528.798,765.687,524.63,771.501z"/>
	<path style="fill:#73ADC9;" d="M678.703,766.927c-2.806,5.065-14.084-4.745-27.939,0.609c-1.084,0.419-2.468,1.203-3.412,0.234
		c-2.624-2.694,2.365-11.669,14.16-13.632c6.483-1.079,12.507,1.446,16.646,6.678C679.695,762.758,679.929,764.715,678.703,766.927z
		"/>
	<path style="fill:#73ADC9;" d="M667.919,803.195l-6.751,0.632c-7-6.157-15.295-5.182-11.767-10.372
		c3.617-3.703,9.012-4.801,14.347-4.992c7.371-0.264,13.522,3.476,16.327,10.225L667.919,803.195z"/>
	<path style="fill:#73ADC9;" d="M418.949,773.216c-5.49-4.788-12.179-4.336-19.182-1.76c-0.943-8.03,5.142-13.524,12.649-14.836
		c7.045-1.231,14.24,1.191,16.685,8.465L418.949,773.216z"/>
	<path style="fill:#73ADC9;" d="M430.633,830.59c-5.735-2.282-10.893-3.552-17.615-4.334c1.125-6.441,6.316-11.233,11.823-12.572
		c7.117-1.731,13.862,0.001,18.475,6.24C438.5,822.243,433.999,824.639,430.633,830.59z"/>
	<path style="fill:#73ADC9;" d="M515.006,786.776l-3.632-3.936c-6.064,0.107-12.065-0.381-16.805-3.505
		c7.193-6.567,16.124-8.29,25.4-4.843c5.813,2.16,11.915,6.601,11.223,13.581C525.118,784.376,519.317,782.999,515.006,786.776z"/>
	<path style="fill:#73ADC9;" d="M365.282,776.085c-6.096-8.304-14.891-9.892-24.531-9.211c0.856-4.603,4.337-7.438,8.456-8.657
		c9.709-2.873,19.196,2.781,23.476,11.369L365.282,776.085z"/>
	<path style="fill:#73ADC9;" d="M398.254,796.865c-3.763-2.946-7.051-3.985-11.839-4.02c-0.247-3.913,1.589-5.203,5.013-7.217
		c6.499-3.823,21.072-2.036,22.162,7.223C414.351,799.317,402.386,800.099,398.254,796.865z"/>
	<path style="fill:#73ADC9;" d="M586.804,796.744l-9.031,4.302l-6.474-11.558c5.627-7.06,15.247-9.797,22.747-3.783
		C595.665,790.802,592.556,796.105,586.804,796.744z"/>
	<path style="fill:#73ADC9;" d="M695.294,795.085l0.227,2.709c13.551,0.302,12.854,11.902,23.133,9.118
		c-0.203,5.702-6.728,8.915-13.933,11.587c-3.237-7.985-8.001-14.598-15.85-18.077C690.389,796.621,693.09,796.17,695.294,795.085z"
		/>
	<path style="fill:#73ADC9;" d="M726.043,778.419c-4.174,3.425-9.865,3.566-12.99,8.917l-6.192-10.681
		c2.575-5.965,8.749-12.135,16.561-10.326C727.191,767.201,729.314,775.734,726.043,778.419z"/>
	<path style="fill:#73ADC9;" d="M644.438,794.299c-10.842,5.107-21.312,0.147-27.347,14.023c-3.284-3.161-3.395-8.499-0.488-12.592
		c2.428-3.419,5.997-7.071,10.195-8.254C633.691,785.534,639.778,789.496,644.438,794.299z"/>
	<path style="fill:#73ADC9;" d="M515.006,786.776c-3.723,3.262-5.639,7.229-7.173,12.661l-16.959-11.627
		c-0.43-3.409,1.309-6.299,3.695-8.476c4.74,3.124,10.74,3.612,16.805,3.505L515.006,786.776z"/>
	<path style="fill:#73ADC9;" d="M394.733,768.102c-6.224-2.04-11.865-0.589-18.243-0.931c-3.08-0.165-5.643-6.919-3.811-8.797
		c5.429-5.562,13.925-5.158,19.829-1.087C395.996,759.692,396.546,764.008,394.733,768.102z"/>
	<path style="fill:#73ADC9;" d="M565.703,770.95l-21.055-8.534c2.549-7.096,13.671-10.941,19.584-5.713
		C567.705,759.774,567.239,765.778,565.703,770.95z"/>
	<path style="fill:#73ADC9;" d="M443.179,787.993l-2.375-6.052c-3.794-5.804-10.058-8.179-16.137-9.358
		c4.414-2.905,10.851-4.435,16.383-2.259c5.726,2.253,9.932,7.249,11.954,13.494L443.179,787.993z"/>
	<path style="fill:#73ADC9;" d="M386.791,857.755c-3.625-7.694-9.253-12.213-15.093-17.87c9.812-3.451,19.724,0.689,24.465,9.41
		L386.791,857.755z"/>
	<path style="fill:#73ADC9;" d="M386.324,812.277l-9.345-11.149c8.282-6.606,19.909-4.104,24.763,4.961
		C395.656,807.464,390.835,808.346,386.324,812.277z"/>
	<path style="fill:#73ADC9;" d="M718.654,806.912c-10.279,2.784-9.581-8.816-23.133-9.118l-0.227-2.709
		c4.138-2.038,8.626-2.744,13.658-1.428C715.316,795.321,718.864,800.998,718.654,806.912z"/>
	<path style="fill:#73ADC9;" d="M671.386,835.1c-2.048,2.662-3.509,5.529-4.761,8.932l-9.612-3.441
		c-4.67-2.877-6.37-7.606-6.784-12.242C657.537,832.391,661.538,836.178,671.386,835.1z"/>
	<path style="fill:#73ADC9;" d="M524.411,797.56c-4.016,1.46-7.812,0.624-12.096,2.832c-1.211-5.123,2.246-11.053,7.64-11.749
		c2.897-0.374,4.845,0.744,6.367,2.409C527.506,792.349,527.059,796.597,524.411,797.56z"/>
	<path style="fill:#73ADC9;" d="M609.797,799.9l-12.2-4.808c-1.578-0.622,0.331-4.778,1.624-5.798
		c1.549-1.223,3.494-1.934,5.835-0.447C608.644,791.127,612.231,795.156,609.797,799.9z"/>
	<path style="fill:#73ADC9;" d="M339.143,859.249l12.696,5.328c9.404,4.152,19.31,5.815,29.415,4.37
		c2.166,9.441,11.986,20.372,23.261,21.938c0.026,3.507-0.317,6.286,1.236,9.064c3.688-1.493,3.699-4.33,3.222-7.965
		c9.16,0.515,16.182-3.217,23.72-7.252c5.942,7.627,12.826,13.182,21.956,15.477c0.416,4.41,1.751,7.922,5.297,10.267
		c2.986,1.975,0.167-4.69-0.791-11.506c9.853,0.455,17.281-3.718,24.158-9.893c5.32,4.248,10.923,6.996,17.193,9.577
		c1.755,0.722-0.511,6.298,0.929,7.58c0.759,0.675,2.54,0.583,2.564-0.659l0.132-6.922c10.888,0.42,20.265-3.61,27.896-11.154
		c4.807,4.394,9.819,5.961,14.741,8.811c-1.469,3.742-3.217,7.398-1.79,11.448c4.556-3.684,6.192-9.662,5.62-15.574
		c-4.862-1.137-13.358-2.339-14.617-8.451c-0.958-4.654,1.512-11.216-0.067-15.915c-2.03-6.04,18.598-18.413,35.1-7.218
		c8.164,5.539,9.403,14.891,4.626,23.464c2.766,2.612,6.584,3.828,8.258,6.955c2.297,4.291,0.448,9.241,0.1,14.524
		c5.158-1.461,5.905-6.47,4.112-12.126c7.049-0.256,13.464,1.433,20.477,2.434l0.412,6.921c0.236,3.962,4.189,6.683,8.438,5.05
		c-3.059-4.088-5.115-7.566-4.639-11.973c7.687-3.94,13.854-9.351,20.06-15.257c6.722,4.294,13.82,8.008,21.527,6.27
		c10.771-2.429,18.647-10.087,23.668-19.612c2.579-0.924,5.999,1.894,6.722,3.841c0.887,2.39,0.639,6.782-1.935,8.716
		c-21.464,16.116-46.371,27.766-73.19,33.229c-80.404,16.379-162.562,17.529-243.592,5.202c-14.48-2.203-28.218-4.274-41.604-9.804
		l-0.204-4.116c-1.718,0.754-2.264,1.881-3.33,3.276c-23.314-6.675-44.34-17.857-63.453-32.567
		c3.841-2.354,10.83,2.243,12.712-4.545c-6.452-0.475-12.495,0.35-17.871-2.928c-7.899-4.817-10.675-18.592-5.318-24.134
		c0.929-0.961,4.61-1.719,5.386-0.606c5.791,9.447,14.017,16.433,25.126,16.826c-1.563,6.216-0.941,10.908,0.857,15.911
		c4.204,11.698,16.891,18.452,28.798,14.008l-15.769-4.574c-9.824-4.483-12.813-15.818-9.334-25.37
		c3.696-0.189,6.141-0.791,9.846-2.698c6.485,11.771,19.119,13.149,23.789,17.756c0.738,0.728-1.133,2.995-0.99,4.303
		c0.727,6.659,4.8,12.731,9.821,16.868c10.537,8.683,24.576,7.559,34.594-2.552c4.058,12.657,17.311,22.704,27.13,16.472
		l-11.519-3.529c-7.738-3.409-14.188-11.448-11.569-20.162c1.311-4.363,10.87-6.353,10.396-7.786
		c-0.824-2.487-12.261,1.754-21.831-1.073C344.02,873.85,337.276,867.271,339.143,859.249z"/>
	<path style="fill:#73ADC9;" d="M566.904,866.511c0.304,1.658-1.455,2.876-2.426,3.227c-2.284,0.825-7.206-1.249-7.878-3.035
		c-0.387-1.031,0.027-3.543,1.499-4.386C561.083,860.608,566.252,862.954,566.904,866.511z"/>
	<path style="fill:#73ADC9;" d="M352.782,894.168c-6.483,4.55-15.078,4.923-22.625,1.092c-5.221-2.65-11.793-9.834-11.06-17.319
		c0.462-4.713,6.45-6.038,10.458-7.556c-9.2-2.336-18.266,0.183-27.646-7.142c-5.618-4.387-7.763-10.229-6.291-17.51
		c1.123-5.551,5.659-10.882,12.536-12.725c11.492-3.078,24.277,1.907,29.876,13.001c-1.088,5.213-4.785,10.167-3.94,15.38
		c1.929,11.904,12.495,20.362,24.98,21.756C358.478,887.275,356.445,891.596,352.782,894.168z"/>
	<path style="fill:#73ADC9;" d="M328.652,842.962c1.68,1.704,1.602,3.606,0.735,4.665c-2.227,2.719-7.059-0.009-8.273-2.273
		c-0.694-1.293-0.259-3.545,1.302-4.156C324.347,840.443,327.028,841.315,328.652,842.962z"/>
	<path style="fill:#73ADC9;" d="M429.281,881.8c-6.045,6.081-14.483,6.45-22.009,5.695c-9.878-0.991-17.012-6.564-20.711-15.622
		c-1.169-2.864-1.228-5.819,2.184-7.366c-1.485-3.305,0.585-5.621,2.956-7.537c12.7-10.264,38.222-6.382,42.048,8.668
		C435.068,870.824,433.206,877.852,429.281,881.8z"/>
	<path style="fill:#73ADC9;" d="M423.908,865.465c-1.573,2.77-5.095,1.522-6.451,0.33c-1.759-1.546-1.882-6.013,0.252-6.901
		c1.938-0.807,3.7,0.305,4.694,1.15C423.554,861.021,425.119,863.334,423.908,865.465z"/>
	<path style="fill:#73ADC9;" d="M647.448,883.26c-5.273-0.278-11.933-2.852-12.892-7.721l-3.201-16.253
		c6.249-13.033,21.834-18.027,34.261-10.954c6.5,3.7,11.542,12.126,8.467,19.464C669.793,878.03,658.298,883.833,647.448,883.26z"/>
	<path style="fill:#73ADC9;" d="M660.703,851.577c1.199,1.513,0.453,3.291-0.229,4.125c-1.393,1.701-6.524,2.18-8.567,0.639
		c-0.973-0.734-2.647-2.197-1.69-4.229C652.038,848.245,657.893,848.032,660.703,851.577z"/>
	<path style="fill:#73ADC9;" d="M631.316,851.482c-0.844,2.017-1.713,3.638-3.425,5.416c-6.325-5.109-13.344-6.759-21.135-7.191
		c-4.305-7.899-1.349-16.784,5.476-22.53c9.229-8.256,22.426-10.546,34.976-7.397c-1.687,7.751-0.96,14.997,4.507,21.174
		C643.289,842.328,636.722,845.813,631.316,851.482z"/>
	<path style="fill:#73ADC9;" d="M632.598,833.361c-0.524,4.393-9.415,5.406-11.053,1.511c-1.42-3.375,2.507-5.095,4.674-5.588
		C628.313,828.808,633.067,829.431,632.598,833.361z"/>
	<path style="fill:#73ADC9;" d="M553.404,819.567l-16.51-17.008c-2.118-2.182-4.854-3.423-7.855-4.422
		c3.748-12.096,16.667-17.881,27.633-13.255c18.89,7.969,19.654,25.934,13.612,28.749
		C564.844,816.165,557.509,814.129,553.404,819.567z"/>
	<path style="fill:#73ADC9;" d="M562.925,799.626c-0.735,1.903-3.702,1.576-5.238,1.414c-1.472-0.155-4.022-1.723-3.667-4.19
		c0.413-2.866,3.253-3.391,5.198-2.692C561.264,794.893,563.947,796.981,562.925,799.626z"/>
	<polygon style="fill:#FCFDFC;" points="722.176,225.971 736.986,256.109 711.883,267.957 700.366,244.189 692.333,228.573 	"/>
	<path style="fill:#FCFDFC;" d="M745.128,223.317l12.19,24.555l-14.755,7.016l-13.484-25.077c-0.861-1.601-1.879-2.945-1.54-4.677
		L745.128,223.317z"/>
	<path style="fill:#FCFDFC;" d="M739.649,346.114l-9.993-33.759c-0.518-1.749,0.847-5.041-2.416-6.026l-13.658-34.021l26.4-9.969
		l13.342,33.775c1.036,2.623,2.078,5.045,2.824,7.518l9.689,32.115C758.016,340.991,749.144,343.974,739.649,346.114z"/>
	<polygon style="fill:#FCFDFC;" points="773.48,288.007 758.866,294.828 745.243,259.495 759.584,253.621 	"/>
	<path style="fill:#FCFDFC;" d="M786.09,326.462c-4.555,3.725-9.172,5.781-14.201,7.662l-11.376-35.175l14.551-4.703L786.09,326.462
		z"/>
	<path style="fill:#070707;" d="M396.34,482.206c2.949-0.677,5.628,1.599,6.158,4.297c0.488,2.485-1.315,5.304-4.261,6.097
		c-2.308,0.621-5.173-0.623-5.875-3.457C391.707,486.502,393.005,482.972,396.34,482.206z"/>
	<path style="fill:#070707;" d="M220.851,315.057c-4.758,1.496-9.591-0.806-12.019-4.58c-2.646-4.113-3.517-9.823-0.536-14.32
		c3.002-4.528,9.005-5.709,13.694-3.893c4.544,1.76,8.003,6.473,7.757,11.605C229.516,308.687,225.995,313.441,220.851,315.057z"/>
	<path style="fill:#73ADC9;" d="M216.232,311.218c-4.256-0.767-6.095-5.153-6.184-8.343c-0.106-3.804,2.487-7.602,6.845-8.211
		c4.854-0.678,8.747,4.006,8.739,8.248C225.625,307.501,221.62,312.19,216.232,311.218z"/>
	<path style="fill:#070707;" d="M807.746,392.902c6.154-2.086,12.565,1.28,14.707,7.537c1.97,5.756-1.23,13.128-7.689,15.226
		c-5.733,1.862-12.63-1.286-14.753-7.919C798.151,401.935,801.041,395.175,807.746,392.902z"/>
	<path style="fill:#73ADC9;" d="M808.509,412.028c-3.585-1.387-5.62-5.302-5.16-8.579c0.476-3.392,2.85-7.37,7.111-7.727
		c5.085-0.427,9.453,4.593,8.971,8.718C818.803,409.81,813.932,414.126,808.509,412.028z"/>
	<path style="fill:#070707;" d="M231.23,383.702c-5.011-6.891-5.25-15.814-0.703-22.015c6.531-8.906,18.737-9.962,26.551-3.719
		c8.688,6.942,9.222,19.934,1.849,27.436C251.275,393.189,238.011,393.028,231.23,383.702z"/>
	<path style="fill:#73ADC9;" d="M245.735,386.812c-7.93,0.097-12.899-6.107-13.87-12.178c-1.118-6.992,2.072-14.313,9.316-16.715
		c8.545-2.834,16.876,3.596,18.392,10.867C261.458,377.818,255.652,386.69,245.735,386.812z"/>
	<path style="fill:#070707;" d="M657.121,619.702c-8.205,0.974-13.999-4.966-14.143-12.067c-0.144-7.097,5.966-12.622,13.835-12.45
		c6.44,0.141,11.112,5.437,11.286,11.413C668.277,612.744,664.26,618.855,657.121,619.702z"/>
	<path style="fill:#73ADC9;" d="M658.256,615.731c-4.809,1.379-9.709-1.332-11.152-5.937c-1.309-4.179,0.708-9.849,5.684-11.795
		c4.625-1.809,9.787,1.386,11.434,5.894C665.849,608.34,663.467,614.237,658.256,615.731z"/>
	<path style="fill:#070707;" d="M764.165,698.34c-3.745,5.96-12.221,6.012-16.47,1.515c-4.762-5.039-3.863-13.156,2.044-17.169
		c4.279-2.907,10.075-1.816,13.401,1.866C766.17,687.905,766.964,693.886,764.165,698.34z"/>
	<path style="fill:#73ADC9;" d="M758.503,698.402c-3.747,2.49-7.583-0.168-9.084-3.245c-1.794-3.678-0.658-8.394,3.677-10.172
		c3.549-1.456,7.367,1.003,8.633,4.029C762.973,691.993,762.163,695.97,758.503,698.402z"/>
	<path style="fill:#070707;" d="M808.459,487.892c1.955,11.745-5.795,21.831-17.066,22.591c-11.422,0.77-20.392-9.564-19.018-21.509
		c1.046-9.09,8.424-15.691,17.075-16.085C798.521,472.477,806.921,478.657,808.459,487.892z"/>
	<path style="fill:#73ADC9;" d="M791.484,506.445c-7.949,0.387-13.711-5.939-14.758-11.867c-1.228-6.947,1.697-14.705,8.34-17.443
		c8.346-3.44,17.422,2.218,19.511,10.269C806.731,495.707,801.556,505.955,791.484,506.445z"/>
	<path style="fill:#070707;" d="M768.679,642.692c-5.092,3.948-11.594,2.509-15.163-1.762c-3.558-4.257-3.069-11.464,1.887-14.873
		c5.11-3.516,10.755-2.019,14.624,2.337C773.332,632.113,773.618,638.863,768.679,642.692z"/>
	<path style="fill:#73ADC9;" d="M759.378,628.119c3.378-1.847,7.005,0.688,8.563,3.472c1.739,3.107,0.163,7.275-3.519,8.749
		c-2.892,1.158-6.473,0.533-8.276-3.006C754.745,634.586,755.303,630.347,759.378,628.119z"/>
	<path style="fill:#070707;" d="M656.289,293.747c1.466,7.472-2.551,14.161-7.575,17.868c-5.662,4.178-14.057,4.48-20.015,0.05
		c-8.133-6.047-8.669-18.419-2.023-25.818c4.498-5.009,10.607-6.391,17.422-4.662C648.935,282.412,654.919,286.769,656.289,293.747z
		"/>
	<path style="fill:#73ADC9;" d="M652.166,299.555c-1.494,6.862-7.22,11.53-13.697,11.544c-5.32,0.011-9.398-3.847-11.239-7.732
		c-2.282-4.815-1.395-9.86,1.612-14.484c3.434-5.28,10.229-6.466,15.831-3.942C649.634,287.177,653.602,292.959,652.166,299.555z"/>
	<path style="fill:#070707;" d="M290.671,329.202c-6.38-3.705-8.549-10.262-7.779-16.958c0.664-5.777,4.466-11.324,10.909-13.551
		c7.347-2.539,14.712,0.52,18.761,6.62c4.086,6.156,3.828,14.648-1.299,20.479C306.518,331.186,297.808,333.346,290.671,329.202z"/>
	<path style="fill:#73ADC9;" d="M294.498,326.49c-5.17-2.16-7.57-6.774-7.669-11.315c-0.112-5.109,1.611-10.091,6.659-12.729
		c5.471-2.859,11.671-0.584,15.273,3.521c3.97,4.524,3.952,10.493,0.812,15.309C306.42,326.108,300.436,328.971,294.498,326.49z"/>
	<path style="fill:#070707;" d="M798.494,594.11c-3.316-2.282-4.343-6.719-3.524-11.028c0.65-3.419,3.611-7.046,8.345-7.912
		c4.836-0.884,9.184,2.23,10.864,5.911c2.062,4.517,0.569,9.056-2.174,11.872C808.192,596.868,803.036,597.237,798.494,594.11z"/>
	<path style="fill:#73ADC9;" d="M803.374,592.061c-3.855-1.087-5.175-4.786-4.765-7.894c0.373-2.835,3.097-6.088,6.649-5.824
		c4.19,0.311,6.617,3.964,6.221,7.614C811.103,589.412,807.812,593.312,803.374,592.061z"/>
	<path style="fill:#070707;" d="M716.099,551.201c-4.78,5.454-12.111,6.615-18.344,4.007c-5.918-2.476-9.482-8.336-9.199-15.291
		c0.247-6.066,4.161-12.143,11.022-13.951c7.051-1.858,13.78,0.487,17.595,5.738C721.33,537.423,721.23,545.347,716.099,551.201z"/>
	<path style="fill:#73ADC9;" d="M703.245,552.565c-7.625-0.802-11.346-7.655-10.446-13.601c1.004-6.629,6.789-12.172,14.033-10.799
		c6.565,1.244,10.032,7.848,9.316,13.708C715.429,547.767,710.61,553.34,703.245,552.565z"/>
	<path style="fill:#070707;" d="M600.369,343.145c-4.858,3.496-10.996,1.564-13.885-2.832c-2.926-4.453-2.134-10.372,3.308-13.552
		c4.428-2.588,9.93-0.78,12.73,3.531C604.83,333.847,604.979,339.827,600.369,343.145z"/>
	<path style="fill:#73ADC9;" d="M594.027,341.344c-2.926-0.191-4.503-3.015-5.068-4.755c-0.906-2.788,0.508-5.899,3.329-7.306
		c3.317-1.655,7.19,1.262,8.001,4.377C601.215,337.22,598.262,341.62,594.027,341.344z"/>
	<path style="fill:#070707;" d="M444.565,326.446c8.071-1.6,15.743,3.789,17.204,11.309c1.559,8.024-3.555,15.436-11.63,17.219
		c-7.354,1.624-15.074-2.841-16.884-10.301C431.236,336.349,436.082,328.128,444.565,326.446z"/>
	<path style="fill:#73ADC9;" d="M449.666,350.995c-4.728,1.321-9.123-1.538-11.168-4.716c-2.872-4.462-1.847-9.483,0.736-12.697
		c3.277-4.077,8.868-5.433,13.286-2.703c3.899,2.409,6.065,6.63,5.499,10.533C457.378,345.838,454.206,349.726,449.666,350.995z"/>
	<path style="fill:#070707;" d="M676.024,505.555c-2.929,4.876-9.902,5.562-13.675,1.844c-4.238-4.176-3.948-10.907,1.068-14.573
		c3.697-2.702,8.065-2.338,11.13,0.447C677.84,496.265,678.555,501.341,676.024,505.555z"/>
	<path style="fill:#73ADC9;" d="M663.509,502.371c-1.233-2.535,1.184-7.388,4.192-7.922c3.219-0.571,5.457,1.884,6.056,3.651
		c0.902,2.661-0.703,6.108-2.565,7.163C668.368,506.862,665.027,505.49,663.509,502.371z"/>
	<path style="fill:#070707;" d="M732.851,714.119c4.682-1.8,9.411,0.068,11.276,4.923c1.493,3.888,0.19,9.135-4.724,11.374
		c-4.182,1.905-9.135-0.117-11.157-4.829C726.356,721.186,727.724,716.09,732.851,714.119z"/>
	<path style="fill:#73ADC9;" d="M732.63,725.873c-1.552-2.273-1.856-6.974,0.622-8.116c2.766-1.275,6.597-0.387,7.756,1.893
		c0.817,1.606,0.495,4.777-1.311,6.757C738.263,727.978,734.59,728.745,732.63,725.873z"/>
	<path style="fill:#070707;" d="M672.815,463.641c-4.871-2.813-7.147-7.965-7.349-13.061c-0.203-5.112,2.442-10.108,7.572-12.731
		c6.535-3.341,14.031-1.358,18.331,4.373c3.824,5.097,3.56,12.387-0.658,17.828C686.718,465.2,678.932,467.173,672.815,463.641z"/>
	<path style="fill:#73ADC9;" d="M685.434,459.507c-5.343,3.95-12.459,1.574-15.049-4.102c-2.494-5.467-0.511-12.06,5.21-14.521
		c5.638-2.425,12.182,0.095,14.482,6.577C691.559,451.636,689.181,456.738,685.434,459.507z"/>
	<path style="fill:#070707;" d="M749.992,408.492c-0.249,8.445-6.204,13.684-12.987,14.276c-7.99,0.697-14.363-4.559-15.276-12.668
		c-0.988-8.783,4.746-16.029,13.302-16.691C742.889,392.802,750.264,399.248,749.992,408.492z"/>
	<path style="fill:#73ADC9;" d="M732.572,418.644c-6.336-2.189-8.142-8.964-6.312-14.235c1.873-5.394,7.851-9.171,13.454-6.867
		c5.631,2.316,7.568,8.401,6.366,13.154C744.586,416.607,738.887,420.825,732.572,418.644z"/>
	<path style="fill:#070707;" d="M386.731,580.754c4.859-1.948,9.328,0.849,10.843,4.738c1.731,4.443-0.646,9.404-4.435,10.991
		c-4.538,1.902-9.346-0.154-11.01-3.814C380.054,588.107,381.573,582.821,386.731,580.754z"/>
	<path style="fill:#73ADC9;" d="M386.953,584.053c2.491-1.951,5.849-0.776,7.157,1.722c1.164,2.224,0.991,5.194-1.549,7.13
		c-2.035,1.551-4.665,1.008-6.492-0.98C384.227,589.921,384.059,586.319,386.953,584.053z"/>
	<path style="fill:#070707;" d="M632.319,372.156c-4.352,3.055-9.681-0.086-11.171-4.091c-1.683-4.526,0.247-9.621,5.687-10.636
		c3.766-0.703,7.076,1.471,8.311,4.85C636.179,365.102,635.974,369.59,632.319,372.156z"/>
	<path style="fill:#73ADC9;" d="M629.151,369.522c-2.071,0.578-3.934-0.987-4.545-2.385c-0.76-1.74,0.156-5.078,2.539-6.097
		c2.316-0.99,4.617,0.286,5.278,2.739C632.976,365.829,631.996,368.728,629.151,369.522z"/>
	<path style="fill:#070707;" d="M262.336,721.95c-0.203,5.643-4.218,10.702-8.532,12.338c-5.656,2.146-12.375,0.972-15.574-4.074
		c-3.283-5.179-3.239-11.499,0.232-16.298c2.998-4.147,8.691-6.089,14.43-4.572C258.06,710.711,262.572,715.367,262.336,721.95z"/>
	<path style="fill:#73ADC9;" d="M245.868,730.945c-5.765-1.815-7.462-7.943-5.444-13.091c1.733-4.42,7.538-7.682,12.516-4.817
		c4.531,2.608,6.295,7.819,4.85,11.683C256.001,729.505,251.504,732.719,245.868,730.945z"/>
	<path style="fill:#070707;" d="M164.413,261.643c-3.279-4.993-3.492-11.445-0.343-16.001c2.994-4.331,8.138-7.289,14.748-5.821
		c4.232,0.94,9.198,5.372,9.925,11.212c0.814,6.535-2.328,12.689-7.86,15.064C175.462,268.426,168.12,267.287,164.413,261.643z"/>
	<path style="fill:#73ADC9;" d="M174.015,263.247c-5.915-0.93-8.694-6.174-8.442-10.693c0.268-4.811,4.366-9.976,9.864-9.978
		c5.966-0.003,10.174,5.687,9.837,11.014C184.954,258.631,180.438,264.256,174.015,263.247z"/>
	<path style="fill:#070707;" d="M456.842,375.614c4.283-0.942,8.136,1.867,9.314,5.748c1.235,4.07-1.474,8.468-5.804,9.579
		c-3.961,1.017-8.211-1.564-9.438-5.537C449.6,381.144,452.186,376.637,456.842,375.614z"/>
	<path style="fill:#73ADC9;" d="M456.625,378.989c2.687-1.28,5.226,0.479,6.032,2.15c1.041,2.158,0.33,5.11-1.85,6.054
		c-2.495,1.081-4.503,0.189-5.925-1.724C453.387,383.458,453.774,380.347,456.625,378.989z"/>
	<path style="fill:#070707;" d="M612.642,666.665c-1.651,5-6.767,6.328-10.824,3.769c-4.14-2.611-5.47-8.2-1.671-11.989
		c2.821-2.814,6.441-3.923,9.69-2.025C612.884,658.201,613.888,662.889,612.642,666.665z"/>
	<path style="fill:#73ADC9;" d="M605.407,668.379c-2.397-0.29-3.899-2.859-3.876-4.421c0.029-2.062,1.153-4.283,3.61-5.03
		c2.644-0.804,4.72,2.105,4.935,4.237C610.339,665.76,608.291,668.729,605.407,668.379z"/>
	<path style="fill:#070707;" d="M395.161,531.926c-5.124-6.904-2.53-16.067,4.848-19.75c7.285-3.636,15.496-0.716,18.922,7.481
		c2.661,6.367-0.327,13.261-6.208,16.363C406.742,539.176,399.378,537.608,395.161,531.926z"/>
	<path style="fill:#73ADC9;" d="M411.018,532.645c-5.048,2.904-10.535,0.82-13.367-3.707c-2.766-4.422-1.513-10.204,3.376-13.499
		c4.579-3.086,10.576-0.574,13.061,3.383C417.152,523.701,415.946,529.81,411.018,532.645z"/>
	<path style="fill:#070707;" d="M440.473,433.887c-2.088,5.839-7.28,9.315-13.146,9.147c-5.789-0.166-11.171-4.19-12.544-10.564
		c-1.18-5.477,1.598-10.609,6.052-13.462c4.751-3.043,9.909-2.793,14.608,0.608C439.785,422.758,442.401,428.495,440.473,433.887z"
		/>
	<path style="fill:#73ADC9;" d="M436.869,429.456c0.438,5.659-3.809,9.533-8.53,9.78c-5.058,0.265-9.167-3.017-9.842-8.136
		c-0.592-4.487,2.208-9.566,7.674-10.37C431.123,420.003,436.469,424.293,436.869,429.456z"/>
	<path style="fill:#070707;" d="M725.539,600.22c4.286-1.681,8.477,0.094,10.197,4.101c1.45,3.378-0.013,8.088-3.22,9.471
		c-4.394,1.895-8.611,1.147-10.558-2.963C720.255,607.235,721.068,601.974,725.539,600.22z"/>
	<path style="fill:#73ADC9;" d="M726.364,603.429c2.184-1.393,5.064-0.22,6.334,1.804c1.037,1.653,0.926,4.377-1.708,5.928
		c-1.571,0.925-3.755,0.841-5.243-0.992C724.417,608.529,723.589,605.199,726.364,603.429z"/>
	<path style="fill:#070707;" d="M160.575,506.377c-4.72,7.381-13.504,8.133-19.328,2.883c-5.519-4.974-5.339-14.794,1.277-18.991
		c5.074-3.219,11.32-2.982,15.345,0.437C162.231,494.411,163.95,501.099,160.575,506.377z"/>
	<path style="fill:#73ADC9;" d="M144.482,506.69c-2.525-2.192-3.357-5.434-2.655-8.697c0.501-2.329,2.603-5.076,5.626-6.246
		c4.013-1.554,8.108,0.923,9.865,3.902c2.272,3.852,1.062,8.073-1.911,10.834C152.503,509.179,147.841,509.606,144.482,506.69z"/>
	<path style="fill:#070707;" d="M433.157,301.584c3.957-1.685,7.758-0.269,9.572,3.653c1.53,3.31,0.627,7.558-3.863,9.697
		c-3.016,1.437-7.437,0.352-9.294-3.661C428.069,308.024,429.085,303.318,433.157,301.584z"/>
	<path style="fill:#73ADC9;" d="M435.104,304.012c2.257-0.84,4.499,1.56,4.893,3.04c0.639,2.394-0.509,4.411-2.813,5.072
		c-1.936,0.556-4.015-0.575-4.759-2.57C431.732,307.694,432.39,305.022,435.104,304.012z"/>
	<path style="fill:#070707;" d="M146.688,590.062c-1.569-5.403-0.044-11.012,4.042-13.725c6.573-4.364,14.298-2.681,18.334,3.515
		c3.926,6.028,1.758,14.094-4.878,17.538C157.738,600.735,149.105,598.381,146.688,590.062z"/>
	<path style="fill:#73ADC9;" d="M155.728,594.606c-6.013-2.653-8.025-9.89-4.091-14.354c3.073-3.487,7.679-3.952,11.37-1.458
		c3.251,2.197,5.083,6.727,3.258,11.17C164.865,593.374,160.686,596.793,155.728,594.606z"/>
</g>
<g id="Layer_1">
</g>
</svg>
